<?xml version="1.0" encoding="utf-8"?>
<!-- Generator: Adobe Illustrator 16.0.0, SVG Export Plug-In . SVG Version: 6.00 Build 0)  -->
<!DOCTYPE svg PUBLIC "-//W3C//DTD SVG 1.1//EN" "http://www.w3.org/Graphics/SVG/1.1/DTD/svg11.dtd">
<svg version="1.1" id="Layer_1" xmlns="http://www.w3.org/2000/svg" xmlns:xlink="http://www.w3.org/1999/xlink" x="0px" y="0px"
	 width="1256px" height="769px" viewBox="0 0 1256 769" enable-background="new 0 0 1256 769" xml:space="preserve">
<path fill="#C8552F" stroke="#C8552F" stroke-width="9.7597" stroke-miterlimit="10" d="M390.384,682.711
	c0,6.786-4.999,12.288-11.163,12.288H20.163C13.999,694.999,9,689.497,9,682.711V24.288C9,17.502,13.999,12,20.163,12h359.059
	c6.164,0,11.163,5.502,11.163,12.288L390.384,682.711L390.384,682.711z"/>
<g enable-background="new    ">
	<path fill="#FFFFFF" d="M85.027,452.232l5.061-4.594L73.78,436.928l-23.416,21.258l6.789,19.352l6.266-5.688l5.744,7.541
		l-19.761,17.938l-5.744-7.541l5.302-4.813l-25.928-76.146l11.849-10.758l63.802,41.766l6.105-5.543l5.744,7.543l-19.761,17.938
		L85.027,452.232z M47.11,448.826l18.797-17.063l-32.122-21.127L47.11,448.826z"/>
	<path fill="#FFFFFF" d="M128.927,412.381l5.784-5.25l-38.506-50.562l-5.784,5.25l-6.379-8.376l19.279-17.501l63.035,39.865
		l-24.155-75.159l18.275-16.59l6.379,8.376l-5.744,5.214l38.506,50.562l5.744-5.214l5.744,7.542l-19.761,17.938l-5.744-7.542
		l6.507-5.906l-38.874-51.044l23.331,77.91l-6.828,6.198l-66.287-39.138l38.974,51.175l6.266-5.688l5.744,7.543l-19.761,17.938
		L128.927,412.381z"/>
	<path fill="#FFFFFF" d="M203.004,319.473c-2.712-3.619-4.676-7.374-5.894-11.263c-1.219-3.889-1.71-7.73-1.477-11.528
		c0.233-3.796,1.188-7.419,2.863-10.869c1.676-3.449,4.04-6.56,7.092-9.331c3.079-2.795,6.332-4.783,9.757-5.965
		c3.425-1.181,6.844-1.552,10.257-1.116c3.413,0.438,6.751,1.671,10.019,3.701c3.267,2.028,6.269,4.841,9.007,8.437
		c2.694,3.538,4.662,7.252,5.904,11.143c1.243,3.892,1.766,7.73,1.57,11.517c-0.196,3.788-1.121,7.436-2.776,10.938
		c-1.656,3.506-4.023,6.655-7.102,9.451c-3.133,2.845-6.417,4.836-9.851,5.976c-3.435,1.141-6.869,1.477-10.304,1.009
		c-3.436-0.466-6.786-1.714-10.052-3.743C208.751,325.801,205.746,323.016,203.004,319.473z M210.916,312.291
		c1.981,2.604,4.115,4.646,6.401,6.131c2.286,1.484,4.586,2.426,6.902,2.819c2.315,0.396,4.563,0.283,6.742-0.335
		c2.179-0.617,4.151-1.729,5.919-3.333c1.847-1.678,3.267-3.634,4.259-5.87c0.992-2.235,1.515-4.626,1.568-7.172
		c0.055-2.545-0.386-5.174-1.319-7.888c-0.934-2.712-2.402-5.384-4.406-8.015c-2.093-2.748-4.287-4.885-6.581-6.412
		c-2.294-1.526-4.57-2.477-6.825-2.852s-4.465-0.199-6.629,0.527c-2.163,0.729-4.168,1.931-6.016,3.608
		c-1.768,1.604-3.156,3.484-4.166,5.635c-1.009,2.153-1.564,4.487-1.666,7.001c-0.102,2.514,0.321,5.148,1.263,7.902
		C207.306,306.791,208.823,309.543,210.916,312.291z"/>
	<path fill="#FFFFFF" d="M232.255,254.5l14.379-13.053l5.744,7.542l-3.896,3.537l34.128,21.977l-13.804-40.425l-2.531,2.297
		l-5.743-7.542l13.174-11.959l5.744,7.542l-3.575,3.245l15.773,50.951l-7.391,6.709l-42.965-26.267l-3.293,2.99L232.255,254.5z"/>
	<path fill="#FFFFFF" d="M271.691,191.481c-0.579-0.76-0.989-1.611-1.231-2.554c-0.241-0.941-0.323-1.88-0.244-2.819
		c0.079-0.936,0.323-1.85,0.731-2.74c0.409-0.891,0.975-1.664,1.698-2.321c0.696-0.631,1.476-1.08,2.339-1.344
		c0.863-0.263,1.724-0.353,2.582-0.267c0.858,0.087,1.69,0.347,2.494,0.777c0.805,0.432,1.496,1.028,2.075,1.788
		c0.601,0.789,1.028,1.663,1.281,2.619c0.253,0.958,0.351,1.919,0.295,2.885c-0.057,0.966-0.284,1.888-0.678,2.766
		c-0.396,0.879-0.942,1.633-1.638,2.265c-0.723,0.657-1.522,1.124-2.398,1.4c-0.877,0.275-1.755,0.357-2.636,0.241
		c-0.88-0.115-1.729-0.396-2.544-0.843C273,192.888,272.292,192.27,271.691,191.481z M279.328,211.767l13.576-12.323l28.854,37.889
		l6.266-5.688l5.744,7.542l-19.761,17.938l-5.744-7.542l5.944-5.396l-23.11-30.347l-6.025,5.469L279.328,211.767z"/>
	<path fill="#FFFFFF" d="M331.208,204.873c0.979,1.286,1.962,2.384,2.949,3.292c0.987,0.91,2.009,1.701,3.064,2.374
		c3.217,2.025,6.479,2.785,9.786,2.279c3.307-0.503,6.339-2.008,9.097-4.512c2.169-1.969,4.027-4.212,5.575-6.729
		c1.547-2.518,2.91-5.5,4.091-8.943l7.254,2.834c-1.172,4.526-2.76,8.539-4.76,12.035c-2.002,3.498-4.488,6.596-7.46,9.294
		c-2.812,2.552-5.806,4.404-8.981,5.556c-3.175,1.153-6.395,1.504-9.658,1.055c-3.263-0.449-6.53-1.736-9.801-3.86
		c-3.271-2.122-6.431-5.188-9.481-9.194c-2.472-3.245-4.388-6.683-5.751-10.318c-1.363-3.632-2.039-7.271-2.029-10.915
		c0.011-3.643,0.756-7.2,2.234-10.669c1.48-3.468,3.839-6.673,7.079-9.615c3.133-2.844,6.146-4.7,9.038-5.571
		c2.892-0.87,5.653-1.053,8.281-0.545c2.628,0.507,5.118,1.547,7.471,3.12c2.353,1.573,4.531,3.378,6.536,5.415
		c0.98,0.99,1.923,2.036,2.832,3.14c0.909,1.104,1.775,2.196,2.599,3.278L331.208,204.873z M329.103,176.151
		c-1.741,1.58-3.054,3.23-3.94,4.95c-0.887,1.72-1.402,3.498-1.544,5.332c-0.143,1.835,0.068,3.733,0.633,5.693
		c0.564,1.961,1.403,3.969,2.515,6.023l21.568-19.58c-1.398-1.598-2.837-2.937-4.316-4.017s-3.021-1.782-4.626-2.105
		c-1.605-0.323-3.259-0.206-4.963,0.352C332.726,173.356,330.95,174.474,329.103,176.151z"/>
</g>
<path fill="#C8552F" stroke="#C8552F" stroke-width="9.8858" stroke-miterlimit="10" d="M825.592,682.711
	c0,6.786-5.128,12.288-11.453,12.288H445.739c-6.325,0-11.453-5.502-11.453-12.288V24.288c0-6.786,5.128-12.288,11.453-12.288
	h368.396c6.325,0,11.453,5.502,11.453,12.288L825.592,682.711L825.592,682.711z"/>
<g enable-background="new    ">
	<path fill="#FFFFFF" d="M516.938,444.799l5.061-4.594l-16.309-10.709l-23.415,21.256l6.788,19.352l6.267-5.688l5.744,7.543
		l-19.763,17.938l-5.743-7.543l5.302-4.813l-25.927-76.146l11.849-10.756l63.803,41.764l6.104-5.541l5.744,7.543l-19.762,17.938
		L516.938,444.799z M479.02,441.395l18.798-17.063l-32.122-21.129L479.02,441.395z"/>
	<path fill="#FFFFFF" d="M560.838,404.947l5.783-5.25l-38.506-50.562l-5.783,5.251l-6.379-8.377l19.278-17.501l63.034,39.865
		l-24.154-75.159l18.274-16.589l6.379,8.376l-5.744,5.214l38.507,50.562l5.743-5.215l5.744,7.543l-19.762,17.939l-5.744-7.543
		l6.507-5.907l-38.873-51.044l23.33,77.911l-6.828,6.198l-66.284-39.139l38.973,51.174l6.266-5.688l5.744,7.543l-19.761,17.938
		L560.838,404.947z"/>
	<path fill="#FFFFFF" d="M634.914,312.041c-2.712-3.62-4.677-7.374-5.896-11.263c-1.218-3.889-1.71-7.732-1.477-11.528
		c0.232-3.796,1.188-7.419,2.863-10.869c1.676-3.449,4.039-6.559,7.092-9.33c3.079-2.795,6.332-4.783,9.757-5.965
		c3.426-1.18,6.845-1.553,10.258-1.116s6.752,1.671,10.02,3.7c3.267,2.03,6.269,4.841,9.007,8.437
		c2.693,3.538,4.662,7.252,5.904,11.143c1.241,3.892,1.766,7.731,1.569,11.516c-0.196,3.788-1.121,7.436-2.775,10.939
		c-1.655,3.506-4.023,6.655-7.104,9.451c-3.133,2.844-6.417,4.836-9.851,5.976c-3.436,1.14-6.869,1.477-10.305,1.01
		c-3.436-0.466-6.786-1.714-10.052-3.744C640.661,318.37,637.656,315.584,634.914,312.041z M642.826,304.857
		c1.98,2.604,4.114,4.646,6.4,6.131c2.285,1.484,4.586,2.427,6.902,2.82c2.314,0.396,4.563,0.282,6.742-0.335
		c2.179-0.618,4.15-1.729,5.919-3.334c1.847-1.678,3.267-3.634,4.259-5.869c0.992-2.235,1.515-4.625,1.568-7.173
		c0.055-2.544-0.387-5.175-1.319-7.887s-2.401-5.384-4.405-8.016c-2.094-2.748-4.287-4.884-6.582-6.412
		c-2.294-1.525-4.568-2.477-6.824-2.853c-2.256-0.374-4.466-0.199-6.63,0.529c-2.162,0.728-4.168,1.93-6.016,3.607
		c-1.768,1.604-3.155,3.483-4.166,5.636c-1.009,2.152-1.564,4.488-1.665,7.001c-0.102,2.514,0.32,5.149,1.263,7.901
		C639.216,299.36,640.733,302.11,642.826,304.857z"/>
	<path fill="#FFFFFF" d="M664.165,247.067l14.379-13.053l5.744,7.543l-3.896,3.537l34.128,21.977l-13.804-40.427l-2.531,2.297
		l-5.742-7.543l13.174-11.959l5.744,7.543l-3.575,3.245l15.772,50.95l-7.391,6.709l-42.965-26.266l-3.293,2.99L664.165,247.067z"/>
	<path fill="#FFFFFF" d="M703.601,184.048c-0.578-0.76-0.987-1.61-1.23-2.553c-0.241-0.942-0.323-1.882-0.244-2.819
		s0.323-1.851,0.73-2.741c0.409-0.891,0.977-1.664,1.698-2.32c0.696-0.632,1.477-1.08,2.339-1.344
		c0.862-0.265,1.725-0.354,2.582-0.268c0.857,0.087,1.689,0.346,2.493,0.777c0.805,0.432,1.497,1.027,2.075,1.787
		c0.602,0.79,1.028,1.663,1.281,2.62s0.352,1.919,0.295,2.884c-0.058,0.967-0.283,1.889-0.678,2.768
		c-0.396,0.878-0.942,1.633-1.64,2.265c-0.723,0.656-1.521,1.123-2.397,1.399c-0.877,0.276-1.756,0.357-2.636,0.241
		c-0.881-0.115-1.729-0.396-2.545-0.842C704.911,185.455,704.202,184.838,703.601,184.048z M711.238,204.335l13.575-12.324
		l28.854,37.889l6.266-5.688l5.744,7.543l-19.762,17.939l-5.744-7.543l5.945-5.396l-23.111-30.346l-6.024,5.469L711.238,204.335z"/>
	<path fill="#FFFFFF" d="M763.118,197.44c0.979,1.287,1.962,2.384,2.949,3.292c0.985,0.91,2.009,1.701,3.063,2.373
		c3.218,2.026,6.479,2.785,9.786,2.28c3.307-0.505,6.339-2.008,9.098-4.512c2.169-1.969,4.026-4.213,5.574-6.73
		c1.547-2.517,2.911-5.499,4.092-8.944l7.254,2.835c-1.173,4.526-2.76,8.539-4.761,12.035c-2.001,3.498-4.487,6.596-7.46,9.293
		c-2.812,2.552-5.806,4.405-8.981,5.557c-3.175,1.153-6.395,1.504-9.657,1.054c-3.264-0.449-6.53-1.735-9.802-3.859
		c-3.271-2.123-6.431-5.188-9.48-9.194c-2.473-3.245-4.389-6.684-5.751-10.317c-1.363-3.633-2.039-7.271-2.029-10.916
		c0.011-3.644,0.756-7.199,2.234-10.669c1.479-3.468,3.839-6.674,7.079-9.615c3.133-2.844,6.146-4.7,9.038-5.571
		c2.892-0.87,5.651-1.052,8.279-0.544c2.628,0.506,5.118,1.546,7.472,3.119c2.353,1.573,4.53,3.378,6.535,5.416
		c0.979,0.989,1.924,2.035,2.832,3.139c0.909,1.104,1.775,2.197,2.6,3.278L763.118,197.44z M761.013,168.718
		c-1.74,1.581-3.054,3.231-3.939,4.95c-0.888,1.72-1.401,3.497-1.544,5.332c-0.144,1.834,0.067,3.732,0.634,5.693
		c0.563,1.96,1.401,3.968,2.515,6.022l21.568-19.58c-1.398-1.597-2.837-2.936-4.315-4.017c-1.479-1.079-3.021-1.781-4.627-2.105
		c-1.604-0.324-3.259-0.206-4.963,0.352C764.636,165.925,762.86,167.041,761.013,168.718z"/>
</g>
<path fill="#C8552F" stroke="#C8552F" stroke-width="9.7711" stroke-miterlimit="10" d="M1247,682.711
	c0,6.786-5.01,12.288-11.188,12.288h-359.9c-6.18,0-11.188-5.502-11.188-12.288V24.288c0-6.786,5.013-12.288,11.188-12.288h359.9
	c6.179,0,11.188,5.502,11.188,12.288V682.711z"/>
<g enable-background="new    ">
	<path fill="#FFFFFF" d="M942.86,446.692l5.061-4.594l-16.308-10.711l-23.416,21.258l6.789,19.352l6.266-5.688l5.744,7.541
		l-19.762,17.938l-5.744-7.543l5.302-4.813l-25.927-76.146l11.849-10.756l63.804,41.764l6.104-5.541l5.744,7.541l-19.761,17.939
		L942.86,446.692z M904.942,443.288l18.797-17.063l-32.121-21.127L904.942,443.288z"/>
	<path fill="#FFFFFF" d="M986.76,406.841l5.783-5.25l-38.506-50.562l-5.783,5.25l-6.379-8.376l19.278-17.501l63.035,39.864
		l-24.155-75.158l18.275-16.59l6.379,8.376l-5.744,5.214l38.506,50.563l5.744-5.214l5.744,7.542l-19.762,17.938l-5.744-7.542
		l6.507-5.906l-38.873-51.045l23.33,77.911l-6.828,6.198l-66.286-39.14l38.974,51.176l6.267-5.688l5.744,7.541l-19.762,17.938
		L986.76,406.841z"/>
	<path fill="#FFFFFF" d="M1060.836,313.934c-2.711-3.619-4.676-7.373-5.894-11.263c-1.219-3.888-1.71-7.731-1.478-11.527
		c0.233-3.797,1.188-7.419,2.863-10.87c1.676-3.449,4.04-6.559,7.093-9.33c3.078-2.795,6.331-4.783,9.757-5.965
		c3.426-1.18,6.845-1.552,10.258-1.115c3.412,0.437,6.752,1.67,10.019,3.699c3.267,2.03,6.27,4.841,9.007,8.437
		c2.694,3.538,4.662,7.253,5.904,11.143c1.242,3.892,1.766,7.731,1.57,11.517c-0.195,3.788-1.121,7.436-2.776,10.938
		c-1.656,3.507-4.022,6.655-7.103,9.45c-3.133,2.846-6.418,4.837-9.852,5.978c-3.436,1.14-6.868,1.477-10.304,1.009
		c-3.437-0.466-6.786-1.714-10.052-3.743C1066.584,320.263,1063.579,317.478,1060.836,313.934z M1068.749,306.75
		c1.981,2.604,4.115,4.646,6.401,6.131c2.285,1.484,4.586,2.426,6.902,2.819c2.314,0.396,4.563,0.283,6.741-0.334
		c2.179-0.618,4.151-1.729,5.919-3.335c1.848-1.677,3.268-3.633,4.26-5.868c0.991-2.235,1.516-4.626,1.567-7.173
		c0.056-2.544-0.386-5.175-1.319-7.887c-0.934-2.711-2.4-5.384-4.404-8.016c-2.094-2.748-4.287-4.884-6.582-6.412
		c-2.294-1.525-4.569-2.477-6.825-2.852c-2.255-0.375-4.465-0.199-6.628,0.528c-2.163,0.728-4.169,1.93-6.018,3.607
		c-1.768,1.604-3.154,3.483-4.164,5.636c-1.011,2.153-1.565,4.487-1.666,7c-0.102,2.514,0.319,5.149,1.263,7.902
		C1065.139,301.252,1066.656,304.002,1068.749,306.75z"/>
	<path fill="#FFFFFF" d="M1090.088,248.96l14.379-13.053l5.744,7.542l-3.896,3.537l34.127,21.977l-13.804-40.426l-2.53,2.297
		l-5.744-7.542l13.174-11.959l5.744,7.542l-3.574,3.245l15.772,50.95l-7.392,6.709l-42.964-26.266l-3.294,2.99L1090.088,248.96z"/>
	<path fill="#FFFFFF" d="M1129.523,185.94c-0.578-0.76-0.988-1.61-1.231-2.553c-0.241-0.942-0.323-1.881-0.244-2.819
		c0.079-0.937,0.323-1.851,0.732-2.741c0.408-0.891,0.974-1.664,1.697-2.32c0.696-0.632,1.476-1.08,2.339-1.344
		c0.862-0.264,1.724-0.354,2.582-0.268c0.857,0.087,1.688,0.346,2.493,0.777c0.806,0.433,1.497,1.027,2.075,1.787
		c0.602,0.79,1.027,1.663,1.28,2.62c0.254,0.957,0.353,1.919,0.295,2.884c-0.057,0.967-0.282,1.889-0.678,2.768
		c-0.396,0.878-0.942,1.633-1.639,2.265c-0.724,0.656-1.521,1.123-2.398,1.399c-0.877,0.276-1.755,0.357-2.635,0.241
		c-0.881-0.114-1.729-0.396-2.545-0.842C1130.833,187.348,1130.125,186.73,1129.523,185.94z M1137.161,206.229l13.576-12.324
		l28.854,37.889l6.266-5.688l5.744,7.542l-19.762,17.939l-5.744-7.542l5.944-5.396l-23.11-30.347l-6.024,5.469L1137.161,206.229z"/>
	<path fill="#FFFFFF" d="M1189.041,199.333c0.98,1.287,1.962,2.384,2.949,3.292c0.986,0.911,2.009,1.701,3.064,2.374
		c3.217,2.026,6.479,2.785,9.784,2.28c3.308-0.504,6.339-2.008,9.099-4.512c2.168-1.969,4.025-4.212,5.574-6.73
		c1.547-2.517,2.91-5.499,4.092-8.944l7.254,2.836c-1.173,4.525-2.76,8.538-4.761,12.034c-2.001,3.498-4.487,6.596-7.46,9.293
		c-2.813,2.553-5.807,4.405-8.981,5.557c-3.175,1.153-6.395,1.504-9.658,1.055c-3.263-0.449-6.529-1.736-9.801-3.859
		c-3.271-2.123-6.431-5.189-9.48-9.195c-2.472-3.245-4.39-6.683-5.751-10.317c-1.363-3.632-2.039-7.271-2.028-10.915
		c0.01-3.644,0.755-7.2,2.233-10.669c1.479-3.468,3.839-6.674,7.078-9.616c3.134-2.844,6.146-4.7,9.038-5.571
		c2.894-0.87,5.652-1.052,8.28-0.544c2.628,0.506,5.118,1.546,7.471,3.119c2.354,1.573,4.531,3.379,6.535,5.416
		c0.98,0.989,1.926,2.035,2.833,3.139c0.909,1.104,1.774,2.197,2.6,3.278L1189.041,199.333z M1186.936,170.611
		c-1.74,1.58-3.055,3.231-3.94,4.95c-0.888,1.72-1.4,3.498-1.544,5.333c-0.143,1.835,0.068,3.732,0.635,5.693
		c0.563,1.96,1.401,3.968,2.515,6.022l21.567-19.579c-1.397-1.597-2.837-2.937-4.315-4.017c-1.479-1.079-3.021-1.782-4.626-2.105
		c-1.604-0.323-3.259-0.206-4.963,0.352C1190.56,167.817,1188.783,168.933,1186.936,170.611z"/>
</g>
<g>
	
		<path opacity="0.6" fill="#FFFFFF" stroke="#000000" stroke-width="1.4502" stroke-miterlimit="10" enable-background="new    " d="
		M460.485,715.916c5.339,15.452-44.981,78.415-105.899,33.378C344.173,712.041,317.833,599,317.833,599
		c-4.915-15.595-7.909-31.785,6.375-36.288l54.177-17.074c14.282-4.502,21.866,7.77,26.782,23.362
		C405.167,569,447.667,678.821,460.485,715.916z"/>
	
		<line fill="none" stroke="#000000" stroke-width="13.052" stroke-miterlimit="10" x1="352.849" y1="554.479" x2="377.446" y2="632.521"/>
	<path d="M437.717,719.863c1.025,3.249-0.557,6.64-3.533,7.579l-46.146,14.544c-2.977,0.938-6.218-0.936-7.242-4.185l-0.392-1.244
		c-1.024-3.25,0.557-6.644,3.534-7.58l46.144-14.545c2.976-0.938,6.218,0.937,7.242,4.187L437.717,719.863L437.717,719.863z"/>
</g>
</svg>
