<?xml version="1.0" encoding="utf-8"?>
<!-- Generator: Adobe Illustrator 16.0.0, SVG Export Plug-In . SVG Version: 6.00 Build 0)  -->
<!DOCTYPE svg PUBLIC "-//W3C//DTD SVG 1.1//EN" "http://www.w3.org/Graphics/SVG/1.1/DTD/svg11.dtd">
<svg version="1.1" id="Layer_3" xmlns="http://www.w3.org/2000/svg" xmlns:xlink="http://www.w3.org/1999/xlink" x="0px" y="0px"
	 width="96.059px" height="83.083px" viewBox="0 0 96.059 83.083" enable-background="new 0 0 96.059 83.083" xml:space="preserve">
<g opacity="0.9">
	<g opacity="0.8">
		<g>
			<rect x="2.03" y="2.049" transform="matrix(-1 0.001 -0.001 -1 96.0895 58.0487)" fill="#303843" width="91.999" height="54"/>
		</g>
		<g>
			
				<rect x="2.03" y="2.049" transform="matrix(-1 0.001 -0.001 -1 96.0895 58.0487)" fill="none" stroke="#C8552F" stroke-width="4" stroke-miterlimit="10" width="91.999" height="54"/>
		</g>
	</g>
	<g opacity="0.8">
		<g>
			
				<rect x="16.081" y="74.049" transform="matrix(-1 0.001 -0.001 -1 96.2421 156.0487)" fill="#C8552F" width="63.999" height="8"/>
		</g>
		<g>
			
				<rect x="16.081" y="74.049" transform="matrix(-1 0.001 -0.001 -1 96.2421 156.0487)" fill="none" stroke="#C8552F" stroke-width="2" stroke-miterlimit="10" width="63.999" height="8"/>
		</g>
	</g>
	<g opacity="0.8">
		<g>
			<line fill="#FFFFFF" x1="57.06" y1="58.488" x2="57.077" y2="73.363"/>
		</g>
		<g>
			
				<line fill="none" stroke="#C8552F" stroke-width="5.7401" stroke-miterlimit="10" x1="57.06" y1="58.488" x2="57.077" y2="73.363"/>
		</g>
	</g>
	<g opacity="0.8">
		<g>
			<line fill="#FFFFFF" x1="38.06" y1="58.488" x2="38.077" y2="73.363"/>
		</g>
		<g>
			
				<line fill="none" stroke="#C8552F" stroke-width="5.6791" stroke-miterlimit="10" x1="38.06" y1="58.488" x2="38.077" y2="73.363"/>
		</g>
	</g>
	
		<rect x="19.043" y="14.049" opacity="0.7" fill="#FFFFFF" stroke="#FFFFFF" stroke-width="4" stroke-miterlimit="10" width="59" height="30"/>
</g>
</svg>
