<?xml version="1.0" encoding="utf-8"?>
<!-- Generator: Adobe Illustrator 16.0.0, SVG Export Plug-In . SVG Version: 6.00 Build 0)  -->
<!DOCTYPE svg PUBLIC "-//W3C//DTD SVG 1.1//EN" "http://www.w3.org/Graphics/SVG/1.1/DTD/svg11.dtd">
<svg version="1.1" id="Layer_1" xmlns="http://www.w3.org/2000/svg" xmlns:xlink="http://www.w3.org/1999/xlink" x="0px" y="0px"
	 width="1256px" height="769px" viewBox="0 0 1256 769" enable-background="new 0 0 1256 769" xml:space="preserve">
<path fill="#303843" stroke="#C8552F" stroke-width="14" stroke-miterlimit="10" d="M1249,750c0,6.627-5.373,12-12,12H19
	c-6.627,0-12-5.373-12-12V19c0-6.627,5.373-12,12-12h1218c6.627,0,12,5.373,12,12V750z"/>
<line fill="none" stroke="#C8552F" stroke-width="15" stroke-miterlimit="10" x1="90.923" y1="689.77" x2="1170.923" y2="691.308"/>
<line fill="none" stroke="#FFFFFF" stroke-width="15" stroke-miterlimit="10" x1="158.5" y1="651" x2="158.5" y2="727"/>
<polygon fill="#FFFFFF" stroke="#FFFFFF" stroke-miterlimit="10" points="599.5,651 669,689 599.5,727 "/>
<polygon fill="#8C9399" stroke="#8C9399" stroke-width="14" stroke-miterlimit="10" points="1092,497 345,497 158,497 158,94 
	1092,94 "/>
<polygon fill="#8C9399" stroke="#8C9399" stroke-width="14" stroke-miterlimit="10" points="245.5,601.846 336.308,497 507,497 "/>
<g enable-background="new    ">
	<path fill="#FFFFFF" d="M285.332,166.73h32.857c4.039,0,7.884,0.524,11.535,1.573c3.65,1.049,7.049,2.525,10.195,4.428
		c3.146,1.903,6,4.186,8.563,6.845c2.563,2.661,4.748,5.622,6.554,8.885s3.194,6.768,4.166,10.516
		c0.97,3.748,1.456,7.642,1.456,11.681c0,4.117-0.486,8.06-1.456,11.826c-0.971,3.768-2.359,7.302-4.166,10.603
		c-1.806,3.302-3.991,6.302-6.554,9.001c-2.563,2.699-5.417,5.01-8.563,6.933c-3.146,1.922-6.545,3.408-10.195,4.456
		c-3.651,1.049-7.496,1.573-11.535,1.573h-32.857v-10.021h8.389V176.81h-8.389V166.73z M305.139,176.81v68.219h13.749
		c4.078,0,7.913-0.893,11.505-2.68c3.592-1.786,6.729-4.224,9.409-7.312c2.68-3.087,4.796-6.719,6.35-10.894
		c1.553-4.175,2.33-8.671,2.33-13.486c0-4.738-0.777-9.166-2.33-13.283c-1.554-4.116-3.67-7.699-6.35-10.748
		s-5.816-5.447-9.409-7.195c-3.593-1.747-7.428-2.621-11.505-2.621H305.139z"/>
	<path fill="#FFFFFF" d="M370.155,194.694h19.691v50.334h9.088v10.021h-28.663v-10.021h8.622v-40.313h-8.738V194.694z
		 M376.854,173.313c0-1.009,0.204-1.971,0.612-2.884c0.408-0.912,0.951-1.708,1.631-2.388c0.679-0.68,1.485-1.224,2.417-1.632
		c0.932-0.407,1.922-0.611,2.971-0.611c1.01,0,1.971,0.204,2.884,0.611c0.912,0.408,1.708,0.952,2.389,1.632
		c0.679,0.68,1.223,1.476,1.631,2.388c0.408,0.913,0.612,1.875,0.612,2.884c0,1.049-0.204,2.039-0.612,2.972
		c-0.408,0.932-0.952,1.758-1.631,2.476c-0.68,0.72-1.477,1.282-2.389,1.689c-0.913,0.408-1.874,0.612-2.884,0.612
		c-1.049,0-2.039-0.204-2.971-0.612c-0.932-0.407-1.738-0.97-2.417-1.689c-0.68-0.718-1.224-1.544-1.631-2.476
		C377.058,175.353,376.854,174.362,376.854,173.313z"/>
	<path fill="#FFFFFF" d="M444.491,164.4h19.05v80.628h8.855v10.021h-19.691v-4.952c-1.942,1.981-4.195,3.524-6.758,4.632
		c-2.563,1.106-5.476,1.66-8.739,1.66c-4.078,0-7.875-0.709-11.389-2.126c-3.516-1.418-6.564-3.496-9.146-6.233
		c-2.583-2.738-4.602-6.098-6.059-10.079c-1.457-3.98-2.185-8.534-2.185-13.661c0-4.661,0.699-8.903,2.097-12.729
		c1.398-3.825,3.379-7.087,5.942-9.787c2.563-2.699,5.651-4.796,9.263-6.292c3.612-1.494,7.632-2.242,12.059-2.242
		c2.913,0,5.573,0.32,7.981,0.961c2.408,0.641,4.719,1.758,6.933,3.35v-23.128h-8.214V164.4z M438.607,246.951
		c3.223,0,5.922-0.476,8.098-1.428c2.175-0.951,4.174-2.378,6-4.281v-33.789c-1.942-1.632-4.175-2.816-6.7-3.554
		c-2.525-0.737-5.107-1.107-7.748-1.107c-2.563,0-4.972,0.477-7.224,1.428c-2.253,0.952-4.224,2.34-5.913,4.165
		c-1.689,1.826-3.02,4.059-3.991,6.699c-0.971,2.642-1.456,5.671-1.456,9.089c0,3.729,0.466,7.011,1.398,9.845
		c0.932,2.836,2.233,5.215,3.903,7.137c1.669,1.923,3.67,3.37,6,4.341C433.305,246.466,435.849,246.951,438.607,246.951z"/>
	<path fill="#FFFFFF" d="M504.845,194.694h22.895v10.021h-7.166l14.156,38.508l14.797-38.508h-7.107v-10.021h22.895v10.021h-6.233
		l-26.856,67.753h8.272v10.021h-24.352v-10.021h7.34l6.408-16.604l-20.157-51.149h-4.894V194.694z"/>
	<path fill="#FFFFFF" d="M576.56,224.871c0.038-4.776,0.806-9.126,2.301-13.049c1.495-3.923,3.583-7.292,6.262-10.108
		c2.68-2.815,5.864-4.98,9.554-6.495c3.689-1.515,7.749-2.272,12.176-2.272c4.466,0,8.554,0.758,12.263,2.272
		c3.708,1.515,6.884,3.661,9.526,6.438c2.641,2.777,4.698,6.127,6.175,10.049c1.476,3.924,2.214,8.272,2.214,13.05
		c0,4.7-0.738,9.021-2.214,12.963c-1.477,3.942-3.534,7.331-6.175,10.165c-2.642,2.836-5.817,5.04-9.526,6.612
		c-3.709,1.573-7.797,2.359-12.263,2.359c-4.544,0-8.661-0.777-12.351-2.33c-3.69-1.553-6.855-3.737-9.496-6.554
		c-2.642-2.815-4.7-6.185-6.175-10.107C577.355,233.94,576.598,229.61,576.56,224.871z M588.037,224.871
		c0,3.458,0.495,6.584,1.485,9.38c0.991,2.796,2.35,5.176,4.078,7.137c1.728,1.962,3.729,3.477,6,4.544
		c2.272,1.068,4.69,1.602,7.253,1.602c2.68,0,5.175-0.523,7.486-1.572c2.31-1.049,4.32-2.554,6.03-4.516
		c1.708-1.96,3.048-4.34,4.02-7.136c0.97-2.797,1.457-5.942,1.457-9.438c0-3.649-0.486-6.893-1.457-9.729
		c-0.971-2.835-2.301-5.204-3.991-7.107c-1.689-1.902-3.699-3.34-6.029-4.311c-2.331-0.971-4.835-1.457-7.516-1.457
		c-2.563,0-4.981,0.486-7.253,1.457s-4.273,2.408-6,4.311c-1.729,1.903-3.087,4.272-4.078,7.107
		C588.532,217.979,588.037,221.222,588.037,224.871z"/>
	<path fill="#FFFFFF" d="M685.094,194.694h19.457v50.334h6.7v10.021h-17.594v-5.593c-2.72,2.098-5.681,3.729-8.884,4.894
		c-3.205,1.165-6.633,1.748-10.283,1.748c-3.029,0-5.777-0.438-8.243-1.311c-2.467-0.874-4.563-2.233-6.292-4.078
		s-3.059-4.185-3.99-7.021c-0.932-2.834-1.398-6.213-1.398-10.137v-28.837h-8.156v-10.021h19.458v37.576
		c0,4.622,1.067,8.117,3.204,10.486c2.136,2.369,5.204,3.554,9.205,3.554c2.368,0,4.864-0.427,7.486-1.282
		c2.621-0.854,5.098-2.039,7.428-3.554v-36.76h-8.098V194.694z"/>
	<path fill="#FFFFFF" d="M787.189,206.725c-0.758-1.146-1.738-2.077-2.942-2.797c-1.204-0.718-2.544-1.242-4.02-1.572
		c-1.477-0.33-2.913-0.495-4.312-0.495c-1.553,0-2.98,0.175-4.281,0.523c-1.302,0.35-2.418,0.855-3.35,1.516
		c-0.933,0.66-1.66,1.466-2.186,2.417c-0.523,0.952-0.786,2.01-0.786,3.175c0,2.021,0.612,3.622,1.835,4.807
		c1.224,1.186,3.271,2.282,6.146,3.292l11.594,4.077c4.971,1.671,8.602,3.942,10.894,6.816c2.291,2.875,3.437,6.312,3.437,10.312
		c0,2.68-0.533,5.137-1.602,7.37s-2.584,4.136-4.544,5.709c-1.962,1.572-4.321,2.796-7.078,3.67
		c-2.759,0.874-5.826,1.311-9.205,1.311c-4.7,0-8.525-0.757-11.477-2.271c-2.952-1.515-5.224-3.515-6.815-6.001h-6.06v-10.02h12.06
		c0,1.67,0.358,3.098,1.078,4.281c0.718,1.186,1.669,2.146,2.854,2.884c1.186,0.738,2.525,1.282,4.021,1.631
		c1.495,0.35,3.019,0.524,4.573,0.524c1.515,0,2.971-0.184,4.369-0.553s2.631-0.912,3.699-1.632
		c1.068-0.718,1.912-1.582,2.534-2.592c0.621-1.01,0.933-2.156,0.933-3.438c0-1.941-0.633-3.592-1.894-4.952
		c-1.263-1.358-3.408-2.582-6.438-3.67l-11.535-4.312c-4.7-1.669-8.185-3.795-10.457-6.379c-2.272-2.582-3.408-5.815-3.408-9.699
		c0-2.563,0.476-4.933,1.427-7.107s2.331-4.049,4.137-5.622c1.807-1.573,4.01-2.806,6.612-3.699c2.602-0.894,5.573-1.34,8.913-1.34
		c4.312,0,7.924,0.603,10.836,1.806c2.913,1.204,5.535,3.263,7.865,6.175h5.65v10.021h-11.942
		C788.325,209.259,787.946,207.87,787.189,206.725z"/>
	<path fill="#FFFFFF" d="M821.59,226.27c0,1.71,0.125,3.272,0.379,4.689c0.252,1.419,0.611,2.768,1.078,4.05
		c1.436,3.884,3.736,6.807,6.902,8.768s6.748,2.941,10.749,2.941c3.146,0,6.204-0.437,9.175-1.311
		c2.972-0.874,6.088-2.243,9.352-4.107l4.369,7.399c-3.962,2.719-7.943,4.738-11.943,6.059c-4,1.319-8.156,1.98-12.467,1.98
		c-4.078,0-7.855-0.68-11.331-2.039c-3.477-1.359-6.467-3.379-8.972-6.059c-2.506-2.68-4.467-6.02-5.885-10.021
		c-1.418-4-2.125-8.66-2.125-13.981c0-4.312,0.602-8.379,1.805-12.205c1.204-3.825,3.001-7.166,5.389-10.021
		c2.389-2.854,5.351-5.116,8.885-6.787c3.533-1.669,7.65-2.505,12.351-2.505c4.544,0,8.34,0.69,11.39,2.068
		c3.049,1.379,5.534,3.204,7.457,5.477c1.922,2.271,3.379,4.864,4.369,7.777c0.99,2.912,1.68,5.884,2.068,8.913
		c0.193,1.477,0.32,2.971,0.379,4.485c0.058,1.515,0.087,2.991,0.087,4.428H821.59z M838.543,202.21
		c-2.525,0-4.729,0.359-6.613,1.077c-1.883,0.72-3.486,1.748-4.806,3.088c-1.321,1.34-2.38,2.981-3.175,4.923
		c-0.797,1.942-1.389,4.117-1.777,6.524h31.285c-0.156-2.252-0.516-4.33-1.078-6.233c-0.563-1.902-1.428-3.554-2.593-4.952
		c-1.165-1.397-2.661-2.484-4.485-3.262C843.475,202.599,841.223,202.21,838.543,202.21z"/>
	<path fill="#FFFFFF" d="M890.043,226.27c0,1.71,0.125,3.272,0.378,4.689c0.253,1.419,0.612,2.768,1.078,4.05
		c1.437,3.884,3.737,6.807,6.903,8.768c3.165,1.961,6.748,2.941,10.748,2.941c3.146,0,6.205-0.437,9.177-1.311
		c2.971-0.874,6.088-2.243,9.35-4.107l4.369,7.399c-3.961,2.719-7.943,4.738-11.943,6.059c-4,1.319-8.155,1.98-12.466,1.98
		c-4.078,0-7.856-0.68-11.332-2.039c-3.477-1.359-6.467-3.379-8.971-6.059c-2.506-2.68-4.467-6.02-5.885-10.021
		c-1.418-4-2.126-8.66-2.126-13.981c0-4.312,0.602-8.379,1.806-12.205c1.203-3.825,3-7.166,5.389-10.021s5.35-5.116,8.885-6.787
		c3.533-1.669,7.65-2.505,12.35-2.505c4.545,0,8.34,0.69,11.39,2.068c3.049,1.379,5.535,3.204,7.457,5.477
		c1.922,2.271,3.379,4.864,4.369,7.777c0.99,2.912,1.68,5.884,2.068,8.913c0.193,1.477,0.32,2.971,0.379,4.485
		s0.088,2.991,0.088,4.428H890.043z M906.995,202.21c-2.524,0-4.729,0.359-6.612,1.077c-1.884,0.72-3.486,1.748-4.807,3.088
		s-2.379,2.981-3.174,4.923c-0.797,1.942-1.39,4.117-1.777,6.524h31.284c-0.156-2.252-0.516-4.33-1.078-6.233
		c-0.563-1.902-1.428-3.554-2.592-4.952c-1.166-1.397-2.661-2.484-4.486-3.262C911.928,202.599,909.676,202.21,906.995,202.21z"/>
</g>
<g enable-background="new    ">
	<path fill="#FFFFFF" d="M482.999,337.868h14.157v8.797h-14.273l-0.175,34.838c0,2.369,0.271,4.292,0.815,5.768
		c0.543,1.477,1.417,2.496,2.622,3.059c1.204,0.563,2.563,0.845,4.078,0.845c1.631,0,3.067-0.146,4.311-0.438
		c1.243-0.291,2.602-0.786,4.078-1.485l2.505,7.282c-1.864,0.972-3.826,1.737-5.884,2.301c-2.059,0.563-4.486,0.845-7.282,0.845
		c-2.642,0-4.943-0.32-6.904-0.961c-1.961-0.641-3.612-1.719-4.952-3.233s-2.34-3.544-3-6.088c-0.661-2.543-0.991-5.718-0.991-9.524
		l0.175-33.207h-9.612v-8.797h9.729V323.42l10.603-5.01V337.868z"/>
	<path fill="#FFFFFF" d="M510.729,307.574h19.108v36.936h0.35c1.087-1.087,2.339-2.106,3.758-3.059
		c1.417-0.951,2.903-1.777,4.457-2.477c1.553-0.698,3.165-1.242,4.835-1.631c1.669-0.388,3.417-0.582,5.243-0.582
		c3.223,0,6.136,0.446,8.739,1.34c2.602,0.894,4.815,2.253,6.641,4.077c1.825,1.826,3.233,4.166,4.224,7.021
		s1.485,6.225,1.485,10.107v28.896h9.088v10.021h-28.663v-10.021h8.272v-27.556c0-4.621-1.175-8.127-3.524-10.516
		c-2.351-2.388-5.719-3.582-10.108-3.582c-2.486,0-5.01,0.592-7.573,1.776c-2.563,1.186-4.972,2.671-7.224,4.457v35.42h8.739v10.021
		h-28.663v-10.021h9.088v-70.607h-8.273V307.574z"/>
	<path fill="#FFFFFF" d="M624.272,392.63c-2.292,2.137-4.826,3.884-7.603,5.243c-2.777,1.359-5.933,2.039-9.467,2.039
		c-2.952,0-5.661-0.466-8.127-1.398c-2.467-0.932-4.593-2.203-6.379-3.815c-1.787-1.611-3.175-3.485-4.166-5.622
		c-0.99-2.136-1.485-4.407-1.485-6.816c0-2.563,0.378-4.835,1.136-6.815c0.757-1.981,1.767-3.699,3.029-5.156
		c1.262-1.456,2.738-2.68,4.428-3.67s3.457-1.786,5.301-2.389c1.844-0.602,3.729-1.028,5.651-1.281
		c1.922-0.253,3.757-0.379,5.505-0.379c2.796,0,5.146,0.087,7.049,0.262c1.902,0.175,3.631,0.418,5.185,0.729l0.058-4.952
		c0-2.135-0.312-3.99-0.932-5.563c-0.622-1.572-1.496-2.873-2.622-3.903c-1.127-1.028-2.476-1.796-4.049-2.301
		c-1.573-0.504-3.331-0.758-5.272-0.758c-1.826,0-3.574,0.127-5.243,0.379c-1.67,0.253-3.233,0.583-4.689,0.99
		c-1.457,0.408-2.796,0.874-4.02,1.398c-1.223,0.524-2.263,1.078-3.117,1.66l-3.554-7.515c1.437-0.933,3.009-1.796,4.719-2.593
		c1.709-0.796,3.505-1.476,5.389-2.039c1.883-0.563,3.806-1.01,5.767-1.34c1.961-0.329,3.894-0.495,5.797-0.495
		c3.496,0,6.641,0.418,9.438,1.252c2.796,0.836,5.165,2.127,7.107,3.875c1.942,1.747,3.438,3.971,4.486,6.67
		c1.049,2.7,1.573,5.934,1.573,9.7l-0.059,30.177h6.7v10.021h-17.536V392.63z M609.592,390.824c1.437,0,2.874-0.175,4.311-0.524
		c1.437-0.35,2.796-0.825,4.078-1.428c1.282-0.602,2.466-1.301,3.554-2.097c1.087-0.796,2-1.621,2.738-2.477l0.059-13.632h-12.583
		c-2.098,0-4.011,0.233-5.739,0.699c-1.729,0.466-3.224,1.146-4.485,2.039c-1.263,0.894-2.243,2.001-2.942,3.32
		c-0.699,1.321-1.048,2.836-1.048,4.544c0,1.593,0.291,2.981,0.874,4.166s1.407,2.175,2.476,2.971
		c1.068,0.797,2.339,1.398,3.816,1.806C606.174,390.62,607.805,390.824,609.592,390.824z"/>
	<path fill="#FFFFFF" d="M671.52,337.868h14.156v8.797h-14.273l-0.174,34.838c0,2.369,0.271,4.292,0.814,5.768
		c0.544,1.477,1.418,2.496,2.622,3.059c1.204,0.563,2.563,0.845,4.078,0.845c1.632,0,3.067-0.146,4.312-0.438
		c1.242-0.291,2.602-0.786,4.078-1.485l2.504,7.282c-1.863,0.972-3.825,1.737-5.883,2.301c-2.06,0.563-4.486,0.845-7.283,0.845
		c-2.641,0-4.942-0.32-6.903-0.961c-1.962-0.641-3.612-1.719-4.952-3.233s-2.34-3.544-3-6.088c-0.66-2.543-0.99-5.718-0.99-9.524
		l0.175-33.207h-9.612v-8.797h9.729V323.42l10.604-5.01V337.868z"/>
	<path fill="#FFFFFF" d="M704.9,306.351h15.146l-2.388,67.986h-10.37L704.9,306.351z M704.9,391.174c0-1.01,0.204-1.971,0.611-2.884
		c0.408-0.912,0.951-1.709,1.632-2.389c0.679-0.679,1.485-1.224,2.417-1.631c0.933-0.408,1.924-0.612,2.972-0.612
		c1.01,0,1.971,0.204,2.884,0.612c0.912,0.407,1.709,0.952,2.389,1.631c0.68,0.68,1.223,1.477,1.631,2.389
		c0.408,0.913,0.611,1.874,0.611,2.884c0,1.048-0.203,2.039-0.611,2.971c-0.408,0.933-0.951,1.758-1.631,2.476
		c-0.68,0.72-1.477,1.282-2.389,1.689c-0.913,0.408-1.874,0.612-2.884,0.612c-1.048,0-2.039-0.204-2.972-0.612
		c-0.932-0.407-1.738-0.97-2.417-1.689c-0.681-0.718-1.224-1.543-1.632-2.476C705.104,393.213,704.9,392.222,704.9,391.174z"/>
	<path fill="#FFFFFF" d="M744.633,306.351h15.146l-2.389,67.986h-10.37L744.633,306.351z M744.633,391.174
		c0-1.01,0.203-1.971,0.611-2.884c0.408-0.912,0.951-1.709,1.631-2.389c0.68-0.679,1.485-1.224,2.418-1.631
		c0.932-0.408,1.922-0.612,2.971-0.612c1.01,0,1.971,0.204,2.884,0.612c0.912,0.407,1.708,0.952,2.389,1.631
		c0.679,0.68,1.224,1.477,1.632,2.389c0.407,0.913,0.611,1.874,0.611,2.884c0,1.048-0.204,2.039-0.611,2.971
		c-0.408,0.933-0.953,1.758-1.632,2.476c-0.681,0.72-1.477,1.282-2.389,1.689c-0.913,0.408-1.874,0.612-2.884,0.612
		c-1.049,0-2.039-0.204-2.971-0.612c-0.933-0.407-1.738-0.97-2.418-1.689c-0.68-0.718-1.223-1.543-1.631-2.476
		C744.836,393.213,744.633,392.222,744.633,391.174z"/>
</g>
</svg>
