<?xml version="1.0" encoding="utf-8"?>
<!-- Generator: Adobe Illustrator 16.0.0, SVG Export Plug-In . SVG Version: 6.00 Build 0)  -->
<!DOCTYPE svg PUBLIC "-//W3C//DTD SVG 1.1//EN" "http://www.w3.org/Graphics/SVG/1.1/DTD/svg11.dtd">
<svg version="1.1" id="Layer_1" xmlns="http://www.w3.org/2000/svg" xmlns:xlink="http://www.w3.org/1999/xlink" x="0px" y="0px"
	 width="1870.91px" height="511.184px" viewBox="0 0 1870.91 511.184" enable-background="new 0 0 1870.91 511.184"
	 xml:space="preserve">
<g>
	<g>
		<defs>
			<path id="SVGID_1_" d="M155.867,20.563c-3.697-21.271,172.48-32.949,232.41,0c26.582,66.264,1.52,330.73-13.672,351.545
				c0,0-88.104,83.081-207.346,0C126.248,236.424,146.672,42.693,155.867,20.563z"/>
		</defs>
		<clipPath id="SVGID_2_">
			<use xlink:href="#SVGID_1_"  overflow="visible"/>
		</clipPath>
		<path clip-path="url(#SVGID_2_)" fill="#9D5614" d="M152.449,26.445c-3.697-20.956,172.48-32.46,232.41,0
			c35.697,65.317,1.52,325.829-13.672,346.335c0,0-88.861,91.142-207.346,0C122.83,239.107,137.261,46.952,152.449,26.445z"/>
		<rect x="246.91" y="65.547" clip-path="url(#SVGID_2_)" fill="#BA5D11" width="36" height="333"/>
		<rect x="276.91" y="65.547" clip-path="url(#SVGID_2_)" fill="#D16718" width="32" height="337"/>
		<rect x="220.91" y="58.547" clip-path="url(#SVGID_2_)" fill="#AA5013" width="34" height="344"/>
		<rect x="305.91" y="58.547" clip-path="url(#SVGID_2_)" fill="#AA5013" width="28" height="336"/>
		<rect x="197.91" y="58.547" clip-path="url(#SVGID_2_)" fill="#BA5D11" width="29" height="332"/>
		<rect x="327.91" y="55.547" clip-path="url(#SVGID_2_)" fill="#BA5D11" width="29" height="329"/>
		<rect x="174.91" y="50.547" clip-path="url(#SVGID_2_)" fill="#D16718" width="32" height="334"/>
		<rect x="156.91" y="45.547" clip-path="url(#SVGID_2_)" fill="#AA5013" width="26" height="330"/>
		<rect x="353.91" y="50.547" clip-path="url(#SVGID_2_)" fill="#AA5013" width="26" height="325"/>
		<rect x="137.91" y="45.547" clip-path="url(#SVGID_2_)" fill="#D16718" width="23" height="309"/>
		<rect x="374.91" y="45.547" clip-path="url(#SVGID_2_)" fill="#D16718" width="37" height="317"/>
		<path clip-path="url(#SVGID_2_)" fill="none" d="M153.589,24.167c-3.697-20.956,172.48-32.46,232.409,0
			c35.698,65.317,1.52,325.829-13.671,346.335c0,0-88.861,91.141-207.346,0C123.969,236.829,138.4,44.673,153.589,24.167z"/>
		<path clip-path="url(#SVGID_2_)" fill="#060002" d="M379.922,352.655c24.873-1.329-114.306,88.293-228.992-6.266
			c-1.709,3.038,5.696,26.013,5.696,26.013s127.598,98.356,228.992-1.519C388.275,364.428,379.922,352.655,379.922,352.655z"/>
		<path clip-path="url(#SVGID_2_)" fill="#060002" d="M403.276,303.667c1.898-0.381-126.662,95.889-262.804-2.278
			c-1.709,3.038,7.039,28.86,7.039,28.86s127.189,84.496,259.7-11.05C409.869,312.743,403.276,303.667,403.276,303.667z"/>
		<path clip-path="url(#SVGID_2_)" fill="#060002" d="M418.657,251.642c1.898-0.381-158.073,75.95-284.532-4.368
			c-1.709,3.039-3.703,21.646-3.703,21.646s131.585,85.445,279.404,5.412C412.485,267.875,418.657,251.642,418.657,251.642z"/>
		<path clip-path="url(#SVGID_2_)" fill="#060002" d="M406.125,143.316c1.897-0.381-125.604,71.489-274.563-7.405
			c-1.708,3.038-2.278,20.506-2.278,20.506s160.636,83.736,282.538,1.424C414.479,151.385,406.125,143.316,406.125,143.316z"/>
		<path clip-path="url(#SVGID_2_)" fill="#060002" d="M404.605,78.478c1.898-0.381-151.143,61.6-269.625-11.013
			c-1.709,3.038-4.557,21.646-4.557,21.646s129.497,71.014,277.222,8.734C410.303,91.389,404.605,78.478,404.605,78.478z"/>
		<path clip-path="url(#SVGID_2_)" fill="none" d="M152.449,26.445c-3.697-20.956,172.48-32.46,232.41,0
			c35.697,65.317,1.52,325.829-13.672,346.335c0,0-88.861,91.142-207.346,0C122.83,239.107,137.261,46.952,152.449,26.445z"/>
		<path clip-path="url(#SVGID_2_)" fill="#060002" d="M400.575,26.067c-2.892,1.184-145.037,60.556-263.521-12.058
			c-1.708,3.039-7.771,27.252-7.771,27.252s129.497,71.014,277.221,8.734C409.163,43.54,400.575,26.067,400.575,26.067z"/>
		<path clip-path="url(#SVGID_2_)" fill="none" stroke="#060002" stroke-width="6.8356" stroke-miterlimit="10" d="M387.896,29.987
			c0-7.76-52.837-26.079-118.483-26.079c-65.646,0-113.322,12.81-113.322,20.57c0,7.76,51.854,31.588,117.5,31.588
			C347.507,56.066,387.896,36.689,387.896,29.987z"/>
	</g>
	
		<ellipse fill="#DB833A" stroke="#773D15" stroke-width="1.1393" stroke-miterlimit="10" cx="252.024" cy="228.476" rx="9.954" ry="10.823"/>
</g>
<g>
	<g>
		<path fill="#F7D134" d="M439.097,273.309c4.616-6.265-4.946-11.21-10.221-8.243c3.626-1.648,11.869-5.275,7.583-9.892
			c-4.616-4.616-13.848-1.318-12.859,4.946c0-3.957-6.265-4.616-9.231-4.946c2.638-1.648,5.605-10.551,0-8.902
			c1.648-6.924-4.946-8.902-8.573-3.297c-2.637-4.616-12.199-11.54-12.858-2.308c-2.638-0.659-5.935-1.648-8.572,0
			c4.616-8.573-7.913-15.827-11.87-8.243c-1.648-6.265-8.243-4.945-12.529-3.627c-9.232,2.968-0.659,2.638-1.979,8.902
			c-0.989,4.616-7.583-5.275-11.869-4.616c-5.936,0.989-5.275,6.265-4.946,10.551c0.33-7.913-8.243,0.989-8.902,4.616
			c-1.318-3.956-0.329-4.945,1.648-7.913c1.319-1.979,5.936-3.627,2.968-7.254c-5.275-6.265-11.21,1.979-11.54,6.595
			c-9.562-1.319-9.562,4.945-9.232,12.199c-2.308-2.308-6.264-3.956-9.562-1.319c-1.318,0.989-0.659,3.627-2.308,4.616
			c-1.648,1.319-3.627,0.33-4.946,1.319c-7.583,3.956-3.297,13.519,4.287,13.848c-5.936-7.913-11.87,0.989-11.211,7.584
			c-6.924,1.318-9.892,3.297-9.562,11.21l3.957,14.178l144.415-17.805L439.097,273.309z"/>
		<g>
			<path fill="#DDB536" d="M440.378,274.058c4.97-7.988-5.505-13.385-12.251-10.273c-1.738,0.802-0.228,3.348,1.498,2.563
				c4.251-1.935,14.781-8.242,6.724-13.188c-5.718-3.509-14.738-0.647-14.232,6.961c0.971-0.131,1.942-0.263,2.914-0.395
				c-0.67-4.947-6.65-5.582-10.662-6.036c0.35,0.844,0.699,1.689,1.049,2.533c3.77-2.96,6.001-12.865-1.443-11.382
				c0.608,0.608,1.217,1.217,1.825,1.825c1.414-8.357-6.437-10.939-11.285-4.44c0.854,0,1.708,0,2.563,0
				c-3.657-5.807-14.24-12.255-15.623-1.559c0.626-0.477,1.252-0.954,1.878-1.431c-3.513-0.882-6.357-1.368-9.716,0.149
				c0.677,0.677,1.354,1.354,2.03,2.03c1.927-4.217,1.367-9.261-2.861-11.947c-4.168-2.647-8.887-2.119-11.571,2.206
				c0.904,0.118,1.808,0.236,2.712,0.354c-2.002-5.771-6.978-6.399-12.397-5.206c-2.751,0.605-9.794,2.439-6.413,6.431
				c0.912,1.078,1.467,1.936,1.524,3.406c0.047,1.217-3.464-1.75-3.891-2.082c-1.557-1.216-3.763-3.043-5.896-2.995
				c-6.997,0.157-7.593,6.567-7.164,12.051c0.146,1.882,3.001,1.935,2.967,0c-0.174-9.995-10.495-0.619-11.816,4.222
				c0.954,0,1.907,0,2.861,0c-1.586-5.669,3.152-6.84,5.31-10.971c1.426-2.73-1.38-5.404-3.372-6.788
				c-5.59-3.881-11.097,4.698-11.723,9.186c0.477-0.363,0.954-0.726,1.431-1.089c-9.541-0.975-11.058,5.589-10.716,13.683
				c0.844-0.35,1.688-0.699,2.532-1.049c-3.42-3.016-7.337-4.083-11.359-1.551c-1.245,0.784-1.536,2.433-1.845,3.736
				c-0.3,1.267-5.554,2.067-6.81,3.101c-7.11,5.854-1.357,14.868,6.437,15.711c1.413,0.153,1.791-1.664,1.049-2.533
				c-6.909-8.096-14.082,0.497-13.743,8.633c0.362-0.477,0.726-0.954,1.089-1.431c-6.175,1.264-12.711,5.465-10.598,13.035
				c1.319,4.726,2.638,9.452,3.957,14.178c0.161,0.577,0.785,1.169,1.431,1.089c47.114-5.809,94.229-11.617,141.343-17.426
				c1.004-0.124,3.325-0.018,4.121-0.813C435.541,283.249,437.827,277.989,440.378,274.058c1.045-1.611-1.525-3.097-2.563-1.498
				c-1.498,2.31-2.996,4.619-4.494,6.93c-0.91,1.402-1.819,2.804-2.729,4.206c-1.033,1.593-0.179,0.424,0.449,0.347
				c-2.262,0.278-4.522,0.558-6.784,0.836c-11.964,1.476-23.928,2.95-35.892,4.425c-29.635,3.654-59.27,7.308-88.903,10.961
				c-4.231,0.521-8.462,1.043-12.693,1.565c0.477,0.362,0.954,0.726,1.431,1.089c-1.026-3.679-2.054-7.358-3.08-11.037
				c-0.552-1.978-0.881-3.364-0.792-5.445c0.215-5.001,4.289-6.23,8.44-7.08c0.621-0.127,1.115-0.808,1.089-1.431
				c-0.2-4.826,3.204-12.95,8.679-6.535c0.35-0.844,0.699-1.689,1.049-2.533c-3.076-0.333-5.478-2-6.554-4.94
				c-1.666-4.551,3.161-5.818,6.324-6.689c1.086-0.298,2.328-1.067,2.916-2.07c0.433-0.737,0.61-1.621,0.804-2.438
				c1.018-4.3,6.492-1.113,7.989,0.207c0.913,0.806,2.591,0.325,2.532-1.049c-0.097-2.303-0.206-4.606,0.18-6.891
				c0.674-3.999,4.252-4.164,7.569-3.825c0.587,0.06,1.348-0.493,1.431-1.089c0.319-2.289,1.256-4.202,2.745-5.968
				c0.445-0.383,0.891-0.767,1.335-1.15c2.905-1.497,4.495-0.268,4.77,3.688c-0.624,0.738-1.499,1.341-2.21,1.995
				c-2.999,2.756-3.616,6.292-2.577,10.007c0.395,1.411,2.473,1.423,2.861,0c0.397-1.458,5.925-8.648,5.988-5.011
				c0.989,0,1.978,0,2.967,0c-0.218-2.792-0.916-6.493,1.762-8.442c2.929-2.133,6.504,1.713,8.575,3.314
				c1.614,1.248,4.164,3.003,5.829,0.882c1.65-2.104,0.66-5.478-0.867-7.341c-1.389-1.695,1.295-1.492,3.357-2.099
				c3.714-1.092,8.195-1.621,9.753,2.871c0.419,1.207,2.008,1.489,2.712,0.354c3.97-6.394,12.023,0.802,9.308,6.745
				c-0.637,1.395,0.64,2.658,2.03,2.03c2.657-1.201,4.941-0.475,7.429,0.149c1.026,0.258,1.755-0.476,1.878-1.431
				c0.92-7.116,8.454,0.453,10.094,3.057c0.64,1.015,1.899,0.888,2.563,0c2.649-3.551,6.696-2.778,5.861,2.153
				c-0.194,1.146,0.65,2.059,1.825,1.825c3.103-0.618-0.64,5.791-1.443,6.422c-1.148,0.902-0.055,2.408,1.049,2.533
				c2.629,0.297,7.348,0.51,7.801,3.857c0.225,1.66,3.024,1.261,2.914-0.395c-0.384-5.781,7.596-7.467,10.79-3.288
				c2.185,2.858-6.01,6.161-7.746,6.952c0.499,0.854,0.999,1.708,1.498,2.563c4.046-1.866,11.503,0.889,8.19,6.213
				C436.802,274.189,439.369,275.678,440.378,274.058z"/>
		</g>
	</g>
	<path fill="#D30F0F" stroke="#470205" stroke-width="5.4403" stroke-miterlimit="10" d="M301.44,299.191l-5.77-6.76l-8.243,3.298
		l-4.286-12.2l-8.902,1.154c0,0,31.322,77.979,30.663,139.635c5.853,4.78,14.528,7.975,14.528,7.975L301.44,299.191
		c0,0-0.879-1.211,11.046-4.451c2.485-0.676,8.6-5.191,11.539-5.936c4.22-1.066,7.677,6.584,12.777,5.44
		c2.549-0.571,7.134-6.842,9.892-7.418c2.154-0.451,4.398,6.26,6.677,5.811c3.191-0.629,8.844-8.473,12.268-9.087
		c3.217-0.578,5.957,4.573,9.369,4.018c4.131-0.672,9.949-7.373,14.352-7.995c3.354-0.475,9.964,6.205,13.469,5.77
		c4.179-0.52,5.283-8.146,9.663-8.599c2.979-0.309,11.008,6.398,14.076,6.126c6.272-0.556,7.723-8.029,14.343-8.407
		c-13.848,35.114-15.826,148.866-15.826,148.866L321.883,433.88"/>
	<g>
		<g>
			<path fill="#DDB536" d="M303.313,285.897c1.592-1.354,3.223-2.812,5.213-3.546c2.327-0.859,4.146,0.951,5.548,2.557
				c1.261,1.444,3.351-0.663,2.098-2.098c-1.857-2.128-4.302-4.066-7.31-3.566c-3.009,0.5-5.399,2.642-7.646,4.556
				C299.756,285.042,301.866,287.131,303.313,285.897L303.313,285.897z"/>
		</g>
	</g>
	<g>
		<g>
			<path fill="#DDB536" d="M329.302,270.835c2.063-0.146,5.132,0.16,6.021,2.413c1.133,2.874-4.219,2.915-5.756,3.246
				c-1.199,0.258-1.519,2.176-0.354,2.712c1.522,0.701,4.814,3.223,2.997,5.253c-1.272,1.42,0.818,3.526,2.098,2.098
				c3.153-3.52,0.077-8.221-3.597-9.913c-0.118,0.904-0.236,1.808-0.354,2.712c3.399-0.73,8.902-1.213,7.958-6.209
				c-0.775-4.103-5.297-5.541-9.012-5.279C327.404,268.001,327.391,270.97,329.302,270.835L329.302,270.835z"/>
		</g>
	</g>
	<g>
		<g>
			<path fill="#DDB536" d="M343.539,268.093c3.982-4.673,9.812,1.778,9.997,6.205c0.079,1.906,3.047,1.914,2.967,0
				c-0.286-6.858-9.23-15.146-15.062-8.303C340.207,267.442,342.296,269.552,343.539,268.093L343.539,268.093z"/>
		</g>
	</g>
	<g>
		<g>
			<path fill="#DDB536" d="M374.537,272.431c1.735-0.718,3.756-1.34,5.652-1.012c2.227,0.386,1.677,2.509,1.095,4.133
				c-0.646,1.807,2.221,2.577,2.861,0.789c0.963-2.688,1.033-6.053-1.982-7.391c-2.628-1.167-5.874-0.433-8.415,0.619
				C372.006,270.291,372.769,273.163,374.537,272.431L374.537,272.431z"/>
		</g>
	</g>
	<g>
		<g>
			<path fill="#DDB536" d="M396.653,254.807c3.251-1.617,7.752,4.648,2.548,4.819c-1.335,0.044-1.909,1.564-1.049,2.533
				c1.77,1.995,5.153,6.223,0.519,6.661c-3.657,0.346-7.784-1.25-10.62-3.484c-1.485-1.17-3.601,0.915-2.098,2.099
				c3.91,3.081,9.621,5.303,14.636,4.046c6.397-1.604,2.314-8.429-0.339-11.42c-0.35,0.844-0.699,1.689-1.049,2.533
				c3.839-0.126,6.767-2.886,4.868-6.795c-1.633-3.362-5.418-5.293-8.914-3.554C393.441,253.097,394.945,255.656,396.653,254.807
				L396.653,254.807z"/>
		</g>
	</g>
	<g>
		<g>
			<path fill="#DDB536" d="M410.471,265.786c1.391-1.683,3.99-1.867,6.015-1.583c1.673,0.235,3.928,0.871,2.536,2.751
				c-1.14,1.541,1.438,3.018,2.563,1.498c5.093-6.884-9.405-9.37-13.211-4.765C407.164,265.15,409.251,267.262,410.471,265.786
				L410.471,265.786z"/>
		</g>
	</g>
	<g>
		<g>
			<path fill="#DDB536" d="M360.332,242.734c2.83,5.75,9.045,12.734,16.119,11.946c1.88-0.209,1.9-3.179,0-2.968
				c-6.036,0.673-11.166-5.619-13.557-10.476C362.049,239.52,359.49,241.024,360.332,242.734L360.332,242.734z"/>
		</g>
	</g>
	<g>
		<g>
			<path fill="#DDB536" d="M323.366,255.009c2.354-0.015,4.759-0.252,7.098,0.103c3.198,0.485,4.104,2.628,3.948,5.667
				c-0.099,1.913,2.869,1.904,2.967,0c0.171-3.32-0.769-6.497-4.021-7.907c-3.093-1.342-6.717-0.851-9.991-0.831
				C321.453,252.053,321.452,255.021,323.366,255.009L323.366,255.009z"/>
		</g>
	</g>
	<g>
		<g>
			<path fill="#DDB536" d="M351.063,255.009c3.761,0.322,8.574,1.997,8.738,6.429c0.07,1.908,3.038,1.915,2.967,0
				c-0.229-6.235-6.225-8.927-11.705-9.397C349.155,251.878,349.171,254.847,351.063,255.009L351.063,255.009z"/>
		</g>
	</g>
	<polygon fill="#FFFFFF" points="436.953,280.232 303.264,312.677 280.974,303.313 286.757,321.02 305.743,331.029 435.234,302.066 
			"/>
	<polygon fill="#FFFFFF" points="429.535,356.892 312.958,384.403 300.38,376.434 302.265,388.555 315.122,400.414 427.815,378.725 
			"/>
	<polygon fill="#FFFFFF" points="433.986,317.326 308.694,348.483 292.348,340.57 296.357,356.892 309.188,363.815 432.267,339.159 
			"/>
	<polygon fill="#FFFFFF" points="427.063,400.414 317.829,420.441 304.624,411.786 304.902,424.318 321.883,433.88 425.343,422.247 
			"/>
	<path fill="none" stroke="#470205" stroke-width="5.4403" stroke-miterlimit="10" d="M301.44,299.191l-5.77-6.76l-8.243,3.298
		l-4.286-12.2l-8.902,1.154c0,0,31.322,77.979,30.663,139.635c5.853,4.78,14.528,7.975,14.528,7.975L301.44,299.191
		c0,0-0.879-1.211,11.046-4.451c2.485-0.676,8.6-5.191,11.539-5.936c4.22-1.066,7.677,6.584,12.777,5.44
		c2.549-0.571,7.135-6.842,9.892-7.418c2.154-0.451,4.398,6.26,6.677,5.811c3.191-0.629,8.844-8.473,12.268-9.087
		c3.217-0.578,5.957,4.573,9.369,4.018c4.131-0.672,9.949-7.373,14.352-7.995c3.354-0.475,9.964,6.205,13.469,5.77
		c4.179-0.52,5.283-8.146,9.663-8.599c2.979-0.309,11.008,6.398,14.076,6.126c6.272-0.556,7.723-8.029,14.343-8.407
		c-13.848,35.114-15.826,148.866-15.826,148.866L321.883,433.88"/>
</g>
<g>
	<path fill="#303843" stroke="#8C9399" stroke-width="10" stroke-miterlimit="10" d="M169.41,221.547
		c117,0,42.5,335.5-122.5,225.064L169.41,221.547z"/>
	<path fill="#303843" stroke="#8C9399" stroke-width="14.7744" stroke-miterlimit="10" d="M140.52,209.88
		c87.313,4.667,51.286,264.532-103.452,231.532C-21.34,419.297,3.081,212.047,140.52,209.88z"/>
	<polygon fill="#8C9399" points="105.41,220.547 100.41,281.547 109.41,284.547 151.41,228.047 162.41,252.047 111.91,301.047 
		111.91,317.547 155.41,327.297 141.16,362.047 107.098,347.547 93.688,356.547 90.691,421.047 62.801,431.047 69.859,368.547 
		59.885,366.547 18.41,422.547 8.91,394.047 55.91,346.547 56.41,332.434 16.41,322.983 29.41,291.547 65.41,305.547 75.41,295.047 
		81.039,228.08 	"/>
	<path fill="#303843" stroke="#8C9399" stroke-width="4" stroke-miterlimit="10" d="M92.578,305.547
		c12.807-3.143,3.667,41-13.333,35S85.245,299.547,92.578,305.547z"/>
	<path fill="#8C9399" stroke="#8C9399" stroke-width="2" stroke-miterlimit="10" d="M20.578,422.214
		c3.912,4.347-0.537,11.521,3.332,14.833c168.656,63,224.399-288.383,87-223.316c6.641-1.8,2.248,3.825,7.5,6.316
		C198.91,206.379,161.696,461.127,20.578,422.214z"/>
	<path fill="#2F3742" stroke="#303843" stroke-width="7.9915" stroke-miterlimit="10" d="M162.41,411.047
		c0,0,54.133-46.489-9,84.972l35.962,10.389c31.567-65.73,33.364-88.406,27.271-94.649c-6.094-6.244-34.063-10.04-34.063-10.04"/>
	<path fill="#626A72" d="M213.662,442.113c-2.156,6.472-8.672,10.134-14.545,8.176l-9.745-3.25
		c-5.875-1.958-8.885-8.79-6.727-15.266l1.628-4.887c2.157-6.474,8.668-10.134,14.541-8.176l9.749,3.251
		c5.873,1.957,8.883,8.792,6.723,15.267L213.662,442.113z"/>
	<path fill="#626A72" d="M200.662,480.113c-2.156,6.472-8.672,10.134-14.545,8.176l-9.745-3.25
		c-5.875-1.958-8.885-8.79-6.727-15.266l1.628-4.887c2.157-6.474,8.668-10.134,14.541-8.176l9.749,3.251
		c5.873,1.957,8.883,8.792,6.723,15.267L200.662,480.113z"/>
</g>
<g>
	<path fill="#C8552F" d="M468.605,103.291H572.01v40.847h-19.52v-24.375h-51.512v46.37h49.607v15.996h-49.607v49.131h14.473v16.377
		h-46.846V231.26h13.711V119.763h-13.711V103.291z"/>
	<path fill="#C8552F" d="M582.103,99.482h31.992V231.26h14.854v16.377h-46.846V231.26h14.282v-115.4h-14.282V99.482z"/>
	<path fill="#C8552F" d="M645.515,148.994h32.183v82.266h14.854v16.377h-46.846V231.26h14.092v-65.889h-14.282V148.994z
		 M656.464,114.05c0-1.65,0.334-3.221,1-4.713c0.667-1.49,1.555-2.792,2.666-3.903c1.11-1.11,2.428-2,3.951-2.666
		c1.523-0.667,3.143-1,4.856-1c1.649,0,3.221,0.333,4.713,1c1.491,0.666,2.793,1.556,3.904,2.666
		c1.109,1.111,1.999,2.413,2.666,3.903c0.666,1.492,0.999,3.063,0.999,4.713c0,1.714-0.333,3.333-0.999,4.856
		c-0.667,1.523-1.557,2.873-2.666,4.047c-1.111,1.175-2.413,2.095-3.904,2.761c-1.492,0.667-3.063,1-4.713,1
		c-1.714,0-3.333-0.333-4.856-1c-1.523-0.666-2.841-1.585-3.951-2.761c-1.111-1.174-1.999-2.523-2.666-4.047
		C656.798,117.383,656.464,115.764,656.464,114.05z"/>
	<path fill="#C8552F" d="M765.391,231.26h5.618l-19.615-24.375l-19.138,24.375h4.856v16.377h-32.754V231.26h7.998l29.992-34.944
		l-28.184-30.945h-9.998v-16.377h32.754v16.377h-3.713l18.186,23.423l18.377-23.423h-4.761v-16.377h32.754v16.377h-8.474
		l-27.898,32.183l29.517,33.706h7.236v16.377h-32.754V231.26z"/>
	<path fill="#C8552F" d="M867.699,168.656c-1.238-1.872-2.842-3.395-4.809-4.57c-1.969-1.174-4.158-2.031-6.57-2.571
		c-2.413-0.538-4.76-0.809-7.045-0.809c-2.54,0-4.873,0.286-6.999,0.857c-2.127,0.571-3.951,1.397-5.475,2.476
		c-1.523,1.08-2.714,2.397-3.57,3.951c-0.857,1.557-1.286,3.285-1.286,5.189c0,3.301,1,5.92,3,7.855
		c1.999,1.937,5.347,3.729,10.045,5.379l18.947,6.665c8.125,2.73,14.06,6.443,17.806,11.14c3.744,4.698,5.618,10.316,5.618,16.853
		c0,4.38-0.874,8.396-2.619,12.044c-1.746,3.651-4.222,6.761-7.427,9.331c-3.206,2.571-7.063,4.57-11.568,5.999
		c-4.508,1.428-9.521,2.142-15.044,2.142c-7.682,0-13.935-1.238-18.758-3.713c-4.824-2.476-8.538-5.744-11.14-9.807h-9.902v-16.377
		h19.71c0,2.73,0.586,5.063,1.761,6.999c1.174,1.937,2.729,3.508,4.666,4.713c1.936,1.207,4.125,2.095,6.569,2.666
		c2.443,0.571,4.935,0.857,7.475,0.857c2.476,0,4.855-0.3,7.141-0.905c2.285-0.602,4.3-1.49,6.047-2.666
		c1.745-1.173,3.125-2.585,4.142-4.237c1.015-1.65,1.523-3.523,1.523-5.618c0-3.173-1.032-5.871-3.095-8.093
		c-2.063-2.221-5.57-4.221-10.521-5.999l-18.852-7.046c-7.682-2.729-13.378-6.204-17.092-10.426
		c-3.713-4.221-5.57-9.505-5.57-15.854c0-4.189,0.777-8.061,2.333-11.616c1.555-3.554,3.809-6.617,6.761-9.188
		c2.951-2.57,6.553-4.585,10.807-6.046c4.252-1.459,9.107-2.19,14.568-2.19c7.045,0,12.949,0.985,17.709,2.952
		c4.762,1.968,9.046,5.332,12.854,10.093h9.235v16.377h-19.519C869.556,172.798,868.937,170.529,867.699,168.656z"/>
	<path fill="#C8552F" d="M935.729,148.994h23.137v14.377h-23.327l-0.286,56.938c0,3.873,0.443,7.015,1.334,9.426
		c0.888,2.413,2.315,4.08,4.284,4.999c1.967,0.921,4.189,1.38,6.665,1.38c2.666,0,5.014-0.238,7.046-0.714
		c2.03-0.476,4.252-1.285,6.665-2.428l4.094,11.902c-3.047,1.587-6.253,2.84-9.616,3.761c-3.365,0.919-7.331,1.38-11.901,1.38
		c-4.318,0-8.079-0.524-11.283-1.571c-3.206-1.048-5.903-2.809-8.094-5.285c-2.189-2.476-3.825-5.792-4.903-9.95
		c-1.08-4.157-1.618-9.346-1.618-15.568l0.285-54.272h-15.711v-14.377H918.4v-23.613l17.329-8.188V148.994z"/>
	<path fill="#C8552F" d="M978.958,148.994h32.183v82.266h14.854v16.377h-46.846V231.26h14.092v-65.889h-14.282V148.994z
		 M989.907,114.05c0-1.65,0.334-3.221,1-4.713c0.667-1.49,1.555-2.792,2.666-3.903c1.11-1.11,2.428-2,3.951-2.666
		c1.523-0.667,3.143-1,4.856-1c1.649,0,3.221,0.333,4.713,1c1.491,0.666,2.793,1.556,3.904,2.666
		c1.109,1.111,1.999,2.413,2.666,3.903c0.666,1.492,0.999,3.063,0.999,4.713c0,1.714-0.333,3.333-0.999,4.856
		c-0.667,1.523-1.557,2.873-2.666,4.047c-1.111,1.175-2.413,2.095-3.904,2.761c-1.492,0.667-3.063,1-4.713,1
		c-1.714,0-3.333-0.333-4.856-1c-1.523-0.666-2.841-1.585-3.951-2.761c-1.111-1.174-1.999-2.523-2.666-4.047
		C990.241,117.383,989.907,115.764,989.907,114.05z"/>
	<path fill="#C8552F" d="M1041.514,99.482h31.992V231.26h14.854v16.377h-46.846V231.26h14.282v-115.4h-14.282V99.482z"/>
	<path fill="#C8552F" d="M1104.927,99.482h31.992V231.26h14.854v16.377h-46.846V231.26h14.282v-115.4h-14.282V99.482z"/>
	<path fill="#C8552F" d="M1185.859,200.601c0,2.794,0.205,5.349,0.619,7.665c0.412,2.318,1,4.522,1.762,6.617
		c2.347,6.348,6.108,11.125,11.282,14.33c5.173,3.206,11.028,4.808,17.567,4.808c5.142,0,10.141-0.714,14.996-2.142
		c4.856-1.429,9.95-3.666,15.282-6.713l7.142,12.092c-6.475,4.444-12.982,7.745-19.52,9.902c-6.539,2.157-13.33,3.237-20.376,3.237
		c-6.665,0-12.839-1.111-18.52-3.333c-5.682-2.221-10.568-5.522-14.663-9.902c-4.094-4.38-7.3-9.838-9.616-16.377
		c-2.318-6.537-3.476-14.154-3.476-22.852c0-7.046,0.983-13.694,2.951-19.947c1.967-6.251,4.904-11.712,8.808-16.377
		c3.904-4.666,8.743-8.363,14.521-11.093c5.775-2.729,12.504-4.094,20.186-4.094c7.427,0,13.631,1.128,18.614,3.38
		c4.982,2.254,9.046,5.236,12.188,8.95c3.143,3.713,5.522,7.95,7.142,12.711c1.618,4.761,2.744,9.617,3.38,14.568
		c0.316,2.413,0.523,4.856,0.619,7.332c0.095,2.476,0.143,4.889,0.143,7.236H1185.859z M1213.566,161.277
		c-4.127,0-7.729,0.588-10.807,1.761c-3.079,1.176-5.698,2.856-7.855,5.047c-2.158,2.189-3.889,4.872-5.188,8.045
		c-1.302,3.175-2.271,6.729-2.904,10.664h51.13c-0.254-3.681-0.842-7.077-1.761-10.188c-0.921-3.109-2.333-5.808-4.237-8.093
		s-4.349-4.062-7.332-5.332C1221.627,161.912,1217.947,161.277,1213.566,161.277z"/>
	<path fill="#C8552F" d="M1351.915,169.846h-18.092v-6.094c-2.094,0-4.236,0.397-6.427,1.19c-2.189,0.795-4.237,2-6.142,3.618
		c-1.904,1.619-3.57,3.683-4.998,6.189c-1.429,2.508-2.461,5.475-3.095,8.902v47.607h16.758v16.377h-48.94V231.26h13.615
		l0.096-65.889h-13.711v-16.377h31.516v13.616c1.143-2.031,2.429-3.918,3.856-5.666c1.429-1.745,3.015-3.268,4.761-4.57
		c1.745-1.3,3.681-2.316,5.809-3.047c2.126-0.729,4.428-1.095,6.902-1.095c3.3,0,6.411,0,9.332,0c2.918,0,5.839,0.064,8.76,0.19
		V169.846z"/>
	<path fill="#C8552F" d="M1365.815,148.994h37.42v16.377h-11.711l23.137,62.937l24.185-62.937h-11.616v-16.377h37.42v16.377h-10.188
		l-43.894,110.734h13.52v16.377h-39.799v-16.377h11.996l10.475-27.136l-32.945-83.599h-7.998V148.994z"/>
</g>
<g>
	<path fill="#8C9399" d="M489.406,364.851c-3.358,0-6.417-0.552-9.177-1.656c-2.761-1.104-5.13-2.714-7.107-4.83
		c-1.979-2.115-3.508-4.727-4.589-7.831c-1.081-3.105-1.621-6.659-1.621-10.661s0.609-7.555,1.828-10.66s2.864-5.715,4.934-7.831
		c2.07-2.115,4.485-3.727,7.245-4.83c2.76-1.104,5.703-1.656,8.832-1.656c1.978,0,3.761,0.138,5.348,0.414
		c1.587,0.275,2.967,0.599,4.14,0.966c1.174,0.369,2.128,0.736,2.864,1.104c0.735,0.368,1.241,0.645,1.518,0.827l-1.932,5.521
		c-0.414-0.276-1.013-0.575-1.794-0.897c-0.783-0.321-1.668-0.644-2.657-0.966c-0.989-0.321-2.069-0.586-3.242-0.793
		c-1.174-0.207-2.358-0.311-3.554-0.311c-2.53,0-4.808,0.438-6.831,1.311c-2.025,0.874-3.75,2.139-5.175,3.795
		c-1.427,1.656-2.519,3.669-3.278,6.038c-0.759,2.369-1.138,5.025-1.138,7.969c0,2.854,0.333,5.451,1,7.797
		c0.666,2.347,1.667,4.359,3.002,6.038c1.333,1.68,3.001,2.979,5.002,3.898c2.001,0.921,4.335,1.38,7.004,1.38
		c3.081,0,5.634-0.321,7.659-0.966c2.023-0.644,3.541-1.219,4.554-1.726l1.725,5.521c-0.322,0.23-0.896,0.518-1.725,0.862
		s-1.863,0.68-3.105,1.001c-1.241,0.321-2.69,0.597-4.347,0.828C493.132,364.735,491.338,364.851,489.406,364.851z"/>
	<path fill="#8C9399" d="M538.396,362.78c-1.473,0.369-3.415,0.759-5.83,1.173s-5.21,0.621-8.384,0.621
		c-2.76,0-5.083-0.403-6.969-1.207c-1.887-0.805-3.405-1.943-4.555-3.416c-1.15-1.472-1.978-3.208-2.483-5.209
		c-0.507-2.001-0.759-4.22-0.759-6.659v-20.147h6.417v18.768c0,4.371,0.689,7.499,2.069,9.385c1.38,1.887,3.702,2.828,6.969,2.828
		c0.69,0,1.403-0.022,2.14-0.068c0.735-0.046,1.425-0.104,2.07-0.173c0.644-0.069,1.229-0.138,1.759-0.207
		c0.528-0.068,0.908-0.148,1.139-0.241v-30.291h6.417V362.78z"/>
	<path fill="#8C9399" d="M557.785,359.192c2.622,0,4.564-0.345,5.83-1.035c1.265-0.689,1.897-1.794,1.897-3.312
		c0-1.563-0.621-2.806-1.862-3.727c-1.242-0.919-3.29-1.954-6.142-3.104c-1.38-0.552-2.702-1.115-3.967-1.69
		c-1.267-0.575-2.358-1.253-3.278-2.036c-0.92-0.781-1.655-1.725-2.208-2.829c-0.552-1.104-0.828-2.46-0.828-4.07
		c0-3.174,1.174-5.692,3.52-7.556s5.543-2.795,9.591-2.795c1.012,0,2.023,0.059,3.036,0.173c1.012,0.115,1.955,0.253,2.829,0.414
		c0.873,0.162,1.644,0.334,2.312,0.518c0.666,0.185,1.184,0.345,1.553,0.482l-1.174,5.521c-0.689-0.368-1.771-0.747-3.242-1.139
		c-1.473-0.391-3.243-0.586-5.313-0.586c-1.794,0-3.358,0.356-4.691,1.069c-1.335,0.714-2.002,1.828-2.002,3.347
		c0,0.782,0.149,1.473,0.449,2.069c0.299,0.599,0.759,1.139,1.38,1.622c0.621,0.482,1.391,0.931,2.312,1.345
		c0.92,0.414,2.023,0.853,3.312,1.312c1.701,0.645,3.22,1.276,4.555,1.897c1.333,0.621,2.472,1.346,3.415,2.174
		c0.942,0.827,1.667,1.828,2.174,3.001c0.506,1.173,0.759,2.611,0.759,4.313c0,3.313-1.231,5.819-3.691,7.521
		c-2.462,1.702-5.969,2.553-10.522,2.553c-3.174,0-5.658-0.266-7.452-0.794s-3.014-0.932-3.657-1.207l1.173-5.521
		c0.735,0.276,1.908,0.69,3.52,1.242C552.978,358.916,555.116,359.192,557.785,359.192z"/>
	<path fill="#8C9399" d="M586.213,327.936h13.593v5.382h-13.593v16.56c0,1.795,0.138,3.278,0.413,4.451
		c0.276,1.173,0.69,2.094,1.242,2.76c0.553,0.667,1.242,1.139,2.07,1.414c0.828,0.276,1.794,0.414,2.898,0.414
		c1.932,0,3.484-0.218,4.657-0.655c1.173-0.437,1.989-0.747,2.449-0.932l1.242,5.313c-0.645,0.322-1.771,0.725-3.381,1.207
		c-1.611,0.483-3.45,0.725-5.521,0.725c-2.438,0-4.45-0.311-6.037-0.932s-2.863-1.552-3.83-2.794
		c-0.966-1.242-1.645-2.771-2.035-4.589c-0.392-1.816-0.586-3.921-0.586-6.313v-32.016l6.417-1.104V327.936z"/>
	<path fill="#8C9399" d="M638.653,345.875c0,2.854-0.414,5.429-1.242,7.729c-0.828,2.301-1.99,4.278-3.484,5.934
		c-1.496,1.656-3.278,2.933-5.348,3.83c-2.07,0.896-4.324,1.346-6.762,1.346c-2.439,0-4.692-0.449-6.763-1.346
		c-2.069-0.897-3.853-2.174-5.348-3.83c-1.495-1.655-2.656-3.633-3.484-5.934c-0.828-2.3-1.242-4.875-1.242-7.729
		c0-2.805,0.414-5.37,1.242-7.693c0.828-2.322,1.989-4.313,3.484-5.968c1.495-1.656,3.278-2.933,5.348-3.83
		c2.07-0.896,4.323-1.346,6.763-1.346c2.438,0,4.691,0.449,6.762,1.346c2.069,0.897,3.852,2.174,5.348,3.83
		c1.494,1.655,2.656,3.646,3.484,5.968C638.239,340.505,638.653,343.07,638.653,345.875z M631.96,345.875
		c0-4.047-0.909-7.255-2.726-9.625c-1.817-2.369-4.29-3.554-7.417-3.554c-3.129,0-5.602,1.185-7.418,3.554
		c-1.817,2.37-2.726,5.578-2.726,9.625c0,4.049,0.908,7.257,2.726,9.626c1.816,2.37,4.289,3.554,7.418,3.554
		c3.127,0,5.6-1.184,7.417-3.554C631.051,353.132,631.96,349.924,631.96,345.875z"/>
	<path fill="#8C9399" d="M647.691,328.971c1.472-0.368,3.416-0.759,5.831-1.173s5.209-0.621,8.384-0.621
		c2.299,0,4.231,0.311,5.796,0.932c1.563,0.62,2.874,1.529,3.933,2.725c0.321-0.229,0.828-0.552,1.519-0.966
		c0.689-0.414,1.54-0.815,2.553-1.207c1.011-0.391,2.139-0.735,3.381-1.035c1.242-0.299,2.575-0.448,4.002-0.448
		c2.76,0,5.014,0.403,6.762,1.207c1.748,0.806,3.116,1.944,4.105,3.416c0.989,1.473,1.656,3.22,2.001,5.243
		c0.346,2.025,0.518,4.233,0.518,6.624v20.148h-6.417v-18.768c0-2.115-0.104-3.934-0.311-5.451
		c-0.207-1.519-0.598-2.783-1.173-3.795s-1.357-1.76-2.346-2.243c-0.99-0.482-2.267-0.725-3.83-0.725
		c-2.162,0-3.944,0.288-5.347,0.863c-1.404,0.575-2.358,1.093-2.864,1.552c0.368,1.197,0.644,2.508,0.828,3.934
		c0.184,1.426,0.276,2.922,0.276,4.484v20.148h-6.417v-18.768c0-2.115-0.115-3.934-0.345-5.451
		c-0.231-1.519-0.633-2.783-1.208-3.795s-1.357-1.76-2.346-2.243c-0.99-0.482-2.243-0.725-3.761-0.725
		c-0.645,0-1.335,0.024-2.07,0.069c-0.736,0.047-1.438,0.104-2.104,0.173c-0.667,0.068-1.276,0.149-1.828,0.241
		c-0.552,0.093-0.921,0.162-1.104,0.207v30.291h-6.417V328.971z"/>
	<path fill="#8C9399" d="M738.633,364.644c-2.898,0-5.44-0.461-7.625-1.38c-2.186-0.92-4.025-2.208-5.52-3.864
		c-1.495-1.656-2.611-3.622-3.347-5.899c-0.736-2.277-1.104-4.796-1.104-7.556s0.402-5.289,1.208-7.59
		c0.805-2.3,1.942-4.289,3.415-5.969c1.472-1.679,3.278-2.989,5.417-3.933c2.139-0.942,4.52-1.415,7.142-1.415
		c1.609,0,3.219,0.139,4.83,0.414c1.609,0.276,3.15,0.714,4.623,1.312l-1.449,5.451c-0.966-0.46-2.082-0.828-3.347-1.104
		c-1.266-0.276-2.611-0.414-4.036-0.414c-3.588,0-6.338,1.128-8.246,3.381c-1.909,2.255-2.863,5.544-2.863,9.867
		c0,1.932,0.218,3.703,0.655,5.313c0.437,1.61,1.127,2.99,2.07,4.14c0.942,1.15,2.149,2.035,3.622,2.656
		c1.472,0.621,3.266,0.932,5.383,0.932c1.701,0,3.242-0.16,4.623-0.483c1.38-0.321,2.46-0.666,3.242-1.034l0.897,5.382
		c-0.369,0.23-0.897,0.448-1.587,0.655c-0.69,0.207-1.473,0.391-2.346,0.552c-0.875,0.161-1.807,0.299-2.795,0.414
		C740.506,364.585,739.552,364.644,738.633,364.644z"/>
	<path fill="#8C9399" d="M785.898,345.875c0,2.854-0.414,5.429-1.242,7.729c-0.828,2.301-1.99,4.278-3.484,5.934
		c-1.496,1.656-3.278,2.933-5.348,3.83c-2.07,0.896-4.324,1.346-6.762,1.346c-2.439,0-4.692-0.449-6.763-1.346
		c-2.069-0.897-3.853-2.174-5.348-3.83c-1.495-1.655-2.656-3.633-3.484-5.934c-0.828-2.3-1.242-4.875-1.242-7.729
		c0-2.805,0.414-5.37,1.242-7.693c0.828-2.322,1.989-4.313,3.484-5.968c1.495-1.656,3.278-2.933,5.348-3.83
		c2.07-0.896,4.323-1.346,6.763-1.346c2.438,0,4.691,0.449,6.762,1.346c2.069,0.897,3.852,2.174,5.348,3.83
		c1.494,1.655,2.656,3.646,3.484,5.968C785.484,340.505,785.898,343.07,785.898,345.875z M779.205,345.875
		c0-4.047-0.909-7.255-2.726-9.625c-1.817-2.369-4.29-3.554-7.417-3.554c-3.129,0-5.602,1.185-7.418,3.554
		c-1.817,2.37-2.726,5.578-2.726,9.625c0,4.049,0.908,7.257,2.726,9.626c1.816,2.37,4.289,3.554,7.418,3.554
		c3.127,0,5.6-1.184,7.417-3.554C778.296,353.132,779.205,349.924,779.205,345.875z"/>
	<path fill="#8C9399" d="M794.937,328.971c1.472-0.368,3.416-0.759,5.831-1.173s5.209-0.621,8.384-0.621
		c2.299,0,4.231,0.311,5.796,0.932c1.563,0.62,2.874,1.529,3.933,2.725c0.321-0.229,0.828-0.552,1.519-0.966
		c0.689-0.414,1.54-0.815,2.553-1.207c1.011-0.391,2.139-0.735,3.381-1.035c1.242-0.299,2.575-0.448,4.002-0.448
		c2.76,0,5.014,0.403,6.762,1.207c1.748,0.806,3.116,1.944,4.105,3.416c0.989,1.473,1.656,3.22,2.001,5.243
		c0.346,2.025,0.518,4.233,0.518,6.624v20.148h-6.417v-18.768c0-2.115-0.104-3.934-0.311-5.451
		c-0.207-1.519-0.598-2.783-1.173-3.795s-1.357-1.76-2.346-2.243c-0.99-0.482-2.267-0.725-3.83-0.725
		c-2.162,0-3.944,0.288-5.347,0.863c-1.404,0.575-2.358,1.093-2.864,1.552c0.368,1.197,0.644,2.508,0.828,3.934
		c0.184,1.426,0.276,2.922,0.276,4.484v20.148h-6.417v-18.768c0-2.115-0.115-3.934-0.345-5.451
		c-0.231-1.519-0.633-2.783-1.208-3.795s-1.357-1.76-2.346-2.243c-0.99-0.482-2.243-0.725-3.761-0.725
		c-0.645,0-1.335,0.024-2.07,0.069c-0.736,0.047-1.438,0.104-2.104,0.173c-0.667,0.068-1.276,0.149-1.828,0.241
		c-0.552,0.093-0.921,0.162-1.104,0.207v30.291h-6.417V328.971z"/>
	<path fill="#8C9399" d="M854.345,328.971c1.472-0.368,3.416-0.759,5.831-1.173s5.209-0.621,8.384-0.621
		c2.299,0,4.231,0.311,5.796,0.932c1.563,0.62,2.874,1.529,3.933,2.725c0.321-0.229,0.828-0.552,1.519-0.966
		c0.689-0.414,1.54-0.815,2.553-1.207c1.011-0.391,2.139-0.735,3.381-1.035c1.242-0.299,2.575-0.448,4.002-0.448
		c2.76,0,5.014,0.403,6.762,1.207c1.748,0.806,3.116,1.944,4.105,3.416c0.989,1.473,1.656,3.22,2.001,5.243
		c0.346,2.025,0.518,4.233,0.518,6.624v20.148h-6.417v-18.768c0-2.115-0.104-3.934-0.311-5.451
		c-0.207-1.519-0.598-2.783-1.173-3.795s-1.357-1.76-2.346-2.243c-0.99-0.482-2.267-0.725-3.83-0.725
		c-2.162,0-3.944,0.288-5.347,0.863c-1.404,0.575-2.358,1.093-2.864,1.552c0.368,1.197,0.644,2.508,0.828,3.934
		c0.184,1.426,0.276,2.922,0.276,4.484v20.148h-6.417v-18.768c0-2.115-0.115-3.934-0.345-5.451
		c-0.231-1.519-0.633-2.783-1.208-3.795s-1.357-1.76-2.346-2.243c-0.99-0.482-2.243-0.725-3.761-0.725
		c-0.645,0-1.335,0.024-2.07,0.069c-0.736,0.047-1.438,0.104-2.104,0.173c-0.667,0.068-1.276,0.149-1.828,0.241
		c-0.552,0.093-0.921,0.162-1.104,0.207v30.291h-6.417V328.971z"/>
	<path fill="#8C9399" d="M911.752,345.944c0-3.174,0.46-5.944,1.381-8.314c0.919-2.368,2.139-4.335,3.656-5.899
		c1.519-1.563,3.266-2.736,5.244-3.519c1.978-0.782,4.002-1.174,6.072-1.174c4.83,0,8.532,1.508,11.109,4.52
		c2.575,3.014,3.863,7.603,3.863,13.766c0,0.276,0,0.633,0,1.069c0,0.438-0.023,0.84-0.068,1.208h-24.564
		c0.276,3.726,1.356,6.555,3.243,8.487c1.886,1.932,4.83,2.897,8.832,2.897c2.253,0,4.15-0.195,5.692-0.586
		c1.541-0.391,2.702-0.771,3.484-1.139l0.897,5.382c-0.783,0.414-2.151,0.852-4.105,1.311c-1.956,0.46-4.175,0.69-6.659,0.69
		c-3.128,0-5.83-0.473-8.107-1.415c-2.276-0.941-4.151-2.242-5.623-3.898c-1.473-1.655-2.565-3.622-3.277-5.899
		C912.108,351.154,911.752,348.659,911.752,345.944z M936.386,342.426c0.045-2.898-0.68-5.279-2.174-7.142
		c-1.495-1.863-3.554-2.795-6.176-2.795c-1.473,0-2.771,0.288-3.898,0.862c-1.128,0.576-2.082,1.323-2.863,2.243
		c-0.783,0.921-1.392,1.979-1.828,3.174c-0.438,1.196-0.725,2.415-0.863,3.657H936.386z"/>
	<path fill="#8C9399" d="M952.323,328.971c1.472-0.368,3.427-0.759,5.865-1.173c2.438-0.414,5.244-0.621,8.418-0.621
		c2.852,0,5.221,0.403,7.107,1.207c1.886,0.806,3.392,1.933,4.52,3.381c1.126,1.449,1.92,3.187,2.38,5.21
		c0.46,2.024,0.69,4.255,0.69,6.692v20.148h-6.417v-18.768c0-2.208-0.149-4.094-0.448-5.658c-0.3-1.563-0.794-2.829-1.483-3.795
		c-0.69-0.966-1.611-1.667-2.761-2.104c-1.15-0.437-2.576-0.656-4.277-0.656c-0.69,0-1.404,0.024-2.14,0.069
		c-0.736,0.047-1.438,0.104-2.104,0.173c-0.667,0.068-1.266,0.149-1.794,0.241c-0.529,0.093-0.908,0.162-1.139,0.207v30.291h-6.417
		V328.971z"/>
	<path fill="#8C9399" d="M997.933,327.936h13.593v5.382h-13.593v16.56c0,1.795,0.138,3.278,0.413,4.451
		c0.276,1.173,0.69,2.094,1.242,2.76c0.553,0.667,1.242,1.139,2.07,1.414c0.828,0.276,1.794,0.414,2.898,0.414
		c1.932,0,3.484-0.218,4.657-0.655c1.173-0.437,1.989-0.747,2.449-0.932l1.242,5.313c-0.645,0.322-1.771,0.725-3.381,1.207
		c-1.611,0.483-3.45,0.725-5.521,0.725c-2.438,0-4.45-0.311-6.037-0.932s-2.863-1.552-3.83-2.794
		c-0.966-1.242-1.645-2.771-2.035-4.589c-0.392-1.816-0.586-3.921-0.586-6.313v-32.016l6.417-1.104V327.936z"/>
	<path fill="#8C9399" d="M1031.259,327.038c2.575,0,4.749,0.335,6.521,1.001c1.77,0.667,3.196,1.61,4.277,2.829
		s1.852,2.668,2.312,4.347c0.46,1.68,0.69,3.531,0.69,5.555v22.425c-0.552,0.093-1.323,0.219-2.312,0.38
		c-0.99,0.161-2.104,0.311-3.347,0.448s-2.588,0.264-4.036,0.38c-1.449,0.114-2.888,0.172-4.313,0.172
		c-2.025,0-3.888-0.207-5.589-0.621c-1.703-0.414-3.175-1.069-4.416-1.966c-1.242-0.897-2.208-2.081-2.898-3.554
		c-0.69-1.472-1.035-3.243-1.035-5.313c0-1.977,0.402-3.68,1.208-5.105c0.804-1.426,1.897-2.576,3.277-3.45
		c1.38-0.873,2.989-1.518,4.83-1.932c1.839-0.414,3.771-0.621,5.796-0.621c0.644,0,1.311,0.034,2.001,0.104
		c0.689,0.068,1.346,0.161,1.967,0.275c0.62,0.115,1.161,0.219,1.621,0.311c0.459,0.093,0.781,0.162,0.966,0.207v-1.794
		c0-1.058-0.115-2.104-0.345-3.14c-0.23-1.035-0.645-1.954-1.242-2.76c-0.599-0.804-1.414-1.449-2.449-1.932
		c-1.035-0.483-2.381-0.725-4.037-0.725c-2.116,0-3.967,0.149-5.554,0.448c-1.587,0.3-2.772,0.61-3.554,0.932l-0.759-5.313
		c0.828-0.367,2.208-0.724,4.14-1.069C1026.911,327.211,1029.004,327.038,1031.259,327.038z M1031.811,359.192
		c1.518,0,2.863-0.034,4.036-0.104s2.15-0.195,2.933-0.38v-10.694c-0.46-0.229-1.207-0.425-2.242-0.587
		c-1.035-0.16-2.289-0.241-3.761-0.241c-0.966,0-1.99,0.069-3.07,0.207c-1.081,0.138-2.07,0.426-2.967,0.862
		c-0.897,0.438-1.646,1.035-2.243,1.794s-0.896,1.76-0.896,3.002c0,2.301,0.735,3.898,2.208,4.795
		C1027.279,358.744,1029.28,359.192,1031.811,359.192z"/>
	<path fill="#8C9399" d="M1068.932,327.177c0.553,0,1.185,0.034,1.897,0.104c0.713,0.068,1.415,0.161,2.104,0.275
		c0.69,0.115,1.322,0.231,1.898,0.346c0.574,0.115,1,0.219,1.276,0.311l-1.104,5.589c-0.507-0.184-1.346-0.402-2.519-0.656
		c-1.173-0.252-2.68-0.379-4.52-0.379c-1.196,0-2.38,0.127-3.554,0.379c-1.173,0.254-1.943,0.426-2.312,0.518v30.153h-6.417v-34.362
		c1.519-0.552,3.404-1.069,5.658-1.552C1063.596,327.418,1066.126,327.177,1068.932,327.177z"/>
	<path fill="#8C9399" d="M1079.557,370.509c0.506,0.229,1.161,0.448,1.967,0.655c0.805,0.207,1.598,0.311,2.381,0.311
		c2.529,0,4.508-0.564,5.934-1.69c1.426-1.128,2.714-2.956,3.864-5.485c-2.898-5.521-5.601-11.374-8.107-17.561
		c-2.508-6.187-4.589-12.455-6.245-18.803h6.9c0.506,2.07,1.115,4.302,1.828,6.693s1.507,4.854,2.381,7.383
		c0.873,2.53,1.816,5.061,2.829,7.59c1.012,2.53,2.07,4.968,3.174,7.313c1.748-4.83,3.266-9.613,4.554-14.352
		c1.288-4.737,2.507-9.613,3.657-14.628h6.624c-1.656,6.762-3.496,13.26-5.52,19.492c-2.025,6.234-4.209,12.064-6.556,17.491
		c-0.92,2.07-1.874,3.853-2.863,5.348c-0.989,1.494-2.082,2.726-3.277,3.691c-1.196,0.967-2.542,1.679-4.036,2.14
		c-1.496,0.459-3.187,0.689-5.072,0.689c-0.506,0-1.034-0.034-1.587-0.104c-0.552-0.068-1.093-0.161-1.621-0.275
		c-0.529-0.115-1.013-0.242-1.449-0.38c-0.438-0.138-0.748-0.253-0.932-0.345L1079.557,370.509z"/>
	<path fill="#8C9399" d="M1148.004,310.271c1.886,0,3.507,0.138,4.864,0.414c1.356,0.276,2.312,0.529,2.863,0.759l-1.173,5.521
		c-0.552-0.276-1.335-0.541-2.346-0.794c-1.013-0.252-2.255-0.38-3.727-0.38c-2.99,0-5.083,0.817-6.278,2.45
		c-1.197,1.633-1.795,3.829-1.795,6.589v3.105h13.801v5.382h-13.801v30.498h-6.417v-39.123c0-4.6,1.127-8.152,3.382-10.66
		C1139.631,311.525,1143.174,310.271,1148.004,310.271z"/>
	<path fill="#8C9399" d="M1192.301,345.875c0,2.854-0.414,5.429-1.242,7.729c-0.828,2.301-1.99,4.278-3.484,5.934
		c-1.496,1.656-3.278,2.933-5.348,3.83c-2.07,0.896-4.324,1.346-6.762,1.346c-2.439,0-4.692-0.449-6.763-1.346
		c-2.069-0.897-3.853-2.174-5.348-3.83c-1.495-1.655-2.656-3.633-3.484-5.934c-0.828-2.3-1.242-4.875-1.242-7.729
		c0-2.805,0.414-5.37,1.242-7.693c0.828-2.322,1.989-4.313,3.484-5.968c1.495-1.656,3.278-2.933,5.348-3.83
		c2.07-0.896,4.323-1.346,6.763-1.346c2.438,0,4.691,0.449,6.762,1.346c2.069,0.897,3.852,2.174,5.348,3.83
		c1.494,1.655,2.656,3.646,3.484,5.968C1191.887,340.505,1192.301,343.07,1192.301,345.875z M1185.607,345.875
		c0-4.047-0.909-7.255-2.726-9.625c-1.817-2.369-4.29-3.554-7.417-3.554c-3.129,0-5.602,1.185-7.418,3.554
		c-1.817,2.37-2.726,5.578-2.726,9.625c0,4.049,0.908,7.257,2.726,9.626c1.816,2.37,4.289,3.554,7.418,3.554
		c3.127,0,5.6-1.184,7.417-3.554C1184.698,353.132,1185.607,349.924,1185.607,345.875z"/>
	<path fill="#8C9399" d="M1214.587,327.177c0.553,0,1.185,0.034,1.897,0.104c0.713,0.068,1.415,0.161,2.104,0.275
		c0.69,0.115,1.322,0.231,1.898,0.346c0.574,0.115,1,0.219,1.276,0.311l-1.104,5.589c-0.507-0.184-1.346-0.402-2.519-0.656
		c-1.173-0.252-2.68-0.379-4.52-0.379c-1.196,0-2.38,0.127-3.554,0.379c-1.173,0.254-1.943,0.426-2.312,0.518v30.153h-6.417v-34.362
		c1.519-0.552,3.404-1.069,5.658-1.552C1209.251,327.418,1211.781,327.177,1214.587,327.177z"/>
	<path fill="#8C9399" d="M1239.701,370.509c0.506,0.229,1.161,0.448,1.967,0.655c0.805,0.207,1.598,0.311,2.381,0.311
		c2.529,0,4.508-0.564,5.934-1.69c1.426-1.128,2.714-2.956,3.864-5.485c-2.898-5.521-5.601-11.374-8.107-17.561
		c-2.508-6.187-4.589-12.455-6.245-18.803h6.9c0.506,2.07,1.115,4.302,1.828,6.693s1.507,4.854,2.381,7.383
		c0.873,2.53,1.816,5.061,2.829,7.59c1.012,2.53,2.07,4.968,3.174,7.313c1.748-4.83,3.266-9.613,4.554-14.352
		c1.288-4.737,2.507-9.613,3.657-14.628h6.624c-1.656,6.762-3.496,13.26-5.52,19.492c-2.025,6.234-4.209,12.064-6.556,17.491
		c-0.92,2.07-1.874,3.853-2.863,5.348c-0.989,1.494-2.082,2.726-3.277,3.691c-1.196,0.967-2.542,1.679-4.036,2.14
		c-1.496,0.459-3.187,0.689-5.072,0.689c-0.506,0-1.034-0.034-1.587-0.104c-0.552-0.068-1.093-0.161-1.621-0.275
		c-0.529-0.115-1.013-0.242-1.449-0.38c-0.438-0.138-0.748-0.253-0.932-0.345L1239.701,370.509z"/>
	<path fill="#8C9399" d="M1309.874,345.875c0,2.854-0.414,5.429-1.242,7.729c-0.828,2.301-1.99,4.278-3.484,5.934
		c-1.496,1.656-3.278,2.933-5.348,3.83c-2.07,0.896-4.324,1.346-6.762,1.346c-2.439,0-4.692-0.449-6.763-1.346
		c-2.069-0.897-3.853-2.174-5.348-3.83c-1.495-1.655-2.656-3.633-3.484-5.934c-0.828-2.3-1.242-4.875-1.242-7.729
		c0-2.805,0.414-5.37,1.242-7.693c0.828-2.322,1.989-4.313,3.484-5.968c1.495-1.656,3.278-2.933,5.348-3.83
		c2.07-0.896,4.323-1.346,6.763-1.346c2.438,0,4.691,0.449,6.762,1.346c2.069,0.897,3.852,2.174,5.348,3.83
		c1.494,1.655,2.656,3.646,3.484,5.968C1309.46,340.505,1309.874,343.07,1309.874,345.875z M1303.181,345.875
		c0-4.047-0.909-7.255-2.726-9.625c-1.817-2.369-4.29-3.554-7.417-3.554c-3.129,0-5.602,1.185-7.418,3.554
		c-1.817,2.37-2.726,5.578-2.726,9.625c0,4.049,0.908,7.257,2.726,9.626c1.816,2.37,4.289,3.554,7.418,3.554
		c3.127,0,5.6-1.184,7.417-3.554C1302.271,353.132,1303.181,349.924,1303.181,345.875z"/>
	<path fill="#8C9399" d="M1347.479,362.78c-1.473,0.369-3.415,0.759-5.83,1.173s-5.21,0.621-8.384,0.621
		c-2.76,0-5.083-0.403-6.969-1.207c-1.887-0.805-3.405-1.943-4.555-3.416c-1.15-1.472-1.978-3.208-2.483-5.209
		c-0.507-2.001-0.759-4.22-0.759-6.659v-20.147h6.417v18.768c0,4.371,0.689,7.499,2.069,9.385c1.38,1.887,3.702,2.828,6.969,2.828
		c0.69,0,1.403-0.022,2.14-0.068c0.735-0.046,1.425-0.104,2.07-0.173c0.644-0.069,1.229-0.138,1.759-0.207
		c0.528-0.068,0.908-0.148,1.139-0.241v-30.291h6.417V362.78z"/>
	<path fill="#8C9399" d="M1371.766,327.177c0.553,0,1.185,0.034,1.897,0.104c0.713,0.068,1.415,0.161,2.104,0.275
		c0.69,0.115,1.322,0.231,1.898,0.346c0.574,0.115,1,0.219,1.276,0.311l-1.104,5.589c-0.507-0.184-1.346-0.402-2.519-0.656
		c-1.173-0.252-2.68-0.379-4.52-0.379c-1.196,0-2.38,0.127-3.554,0.379c-1.173,0.254-1.943,0.426-2.312,0.518v30.153h-6.417v-34.362
		c1.519-0.552,3.404-1.069,5.658-1.552C1366.43,327.418,1368.96,327.177,1371.766,327.177z"/>
	<path fill="#8C9399" d="M1415.097,310.271c1.886,0,3.507,0.138,4.864,0.414c1.356,0.276,2.312,0.529,2.863,0.759l-1.173,5.521
		c-0.552-0.276-1.335-0.541-2.346-0.794c-1.013-0.252-2.255-0.38-3.727-0.38c-2.99,0-5.083,0.817-6.278,2.45
		c-1.197,1.633-1.795,3.829-1.795,6.589v3.105h13.801v5.382h-13.801v30.498h-6.417v-39.123c0-4.6,1.127-8.152,3.382-10.66
		C1406.724,311.525,1410.267,310.271,1415.097,310.271z"/>
	<path fill="#8C9399" d="M1439.314,327.038c2.575,0,4.749,0.335,6.521,1.001c1.77,0.667,3.196,1.61,4.277,2.829
		s1.852,2.668,2.312,4.347c0.46,1.68,0.69,3.531,0.69,5.555v22.425c-0.552,0.093-1.323,0.219-2.312,0.38
		c-0.99,0.161-2.104,0.311-3.347,0.448s-2.588,0.264-4.036,0.38c-1.449,0.114-2.888,0.172-4.313,0.172
		c-2.025,0-3.888-0.207-5.589-0.621c-1.703-0.414-3.175-1.069-4.416-1.966c-1.242-0.897-2.208-2.081-2.898-3.554
		c-0.69-1.472-1.035-3.243-1.035-5.313c0-1.977,0.402-3.68,1.208-5.105c0.804-1.426,1.897-2.576,3.277-3.45
		c1.38-0.873,2.989-1.518,4.83-1.932c1.839-0.414,3.771-0.621,5.796-0.621c0.644,0,1.311,0.034,2.001,0.104
		c0.689,0.068,1.346,0.161,1.967,0.275c0.62,0.115,1.161,0.219,1.621,0.311c0.459,0.093,0.781,0.162,0.966,0.207v-1.794
		c0-1.058-0.115-2.104-0.345-3.14c-0.23-1.035-0.645-1.954-1.242-2.76c-0.599-0.804-1.414-1.449-2.449-1.932
		c-1.035-0.483-2.381-0.725-4.037-0.725c-2.116,0-3.967,0.149-5.554,0.448c-1.587,0.3-2.772,0.61-3.554,0.932l-0.759-5.313
		c0.828-0.367,2.208-0.724,4.14-1.069C1434.967,327.211,1437.06,327.038,1439.314,327.038z M1439.866,359.192
		c1.518,0,2.863-0.034,4.036-0.104s2.15-0.195,2.933-0.38v-10.694c-0.46-0.229-1.207-0.425-2.242-0.587
		c-1.035-0.16-2.289-0.241-3.761-0.241c-0.966,0-1.99,0.069-3.07,0.207c-1.081,0.138-2.07,0.426-2.967,0.862
		c-0.897,0.438-1.646,1.035-2.243,1.794s-0.896,1.76-0.896,3.002c0,2.301,0.735,3.898,2.208,4.795
		C1435.335,358.744,1437.336,359.192,1439.866,359.192z"/>
	<path fill="#8C9399" d="M1490.719,327.936c-1.794,6.717-3.898,13.156-6.313,19.32s-4.75,11.685-7.004,16.56h-5.796
		c-2.254-4.875-4.589-10.396-7.003-16.56c-2.415-6.164-4.52-12.604-6.314-19.32h6.9c0.552,2.254,1.208,4.657,1.967,7.21
		c0.759,2.554,1.563,5.084,2.415,7.591c0.851,2.507,1.713,4.933,2.587,7.279c0.874,2.346,1.701,4.439,2.484,6.278
		c0.781-1.839,1.609-3.933,2.484-6.278c0.873-2.347,1.735-4.772,2.587-7.279c0.851-2.507,1.656-5.037,2.415-7.591
		c0.759-2.553,1.415-4.956,1.967-7.21H1490.719z"/>
	<path fill="#8C9399" d="M1528.049,345.875c0,2.854-0.414,5.429-1.242,7.729c-0.828,2.301-1.99,4.278-3.484,5.934
		c-1.496,1.656-3.278,2.933-5.348,3.83c-2.07,0.896-4.324,1.346-6.762,1.346c-2.439,0-4.692-0.449-6.763-1.346
		c-2.069-0.897-3.853-2.174-5.348-3.83c-1.495-1.655-2.656-3.633-3.484-5.934c-0.828-2.3-1.242-4.875-1.242-7.729
		c0-2.805,0.414-5.37,1.242-7.693c0.828-2.322,1.989-4.313,3.484-5.968c1.495-1.656,3.278-2.933,5.348-3.83
		c2.07-0.896,4.323-1.346,6.763-1.346c2.438,0,4.691,0.449,6.762,1.346c2.069,0.897,3.852,2.174,5.348,3.83
		c1.494,1.655,2.656,3.646,3.484,5.968C1527.635,340.505,1528.049,343.07,1528.049,345.875z M1521.355,345.875
		c0-4.047-0.909-7.255-2.726-9.625c-1.817-2.369-4.29-3.554-7.417-3.554c-3.129,0-5.602,1.185-7.418,3.554
		c-1.817,2.37-2.726,5.578-2.726,9.625c0,4.049,0.908,7.257,2.726,9.626c1.816,2.37,4.289,3.554,7.418,3.554
		c3.127,0,5.6-1.184,7.417-3.554C1520.446,353.132,1521.355,349.924,1521.355,345.875z"/>
	<path fill="#8C9399" d="M1550.334,327.177c0.553,0,1.185,0.034,1.897,0.104c0.713,0.068,1.415,0.161,2.104,0.275
		c0.69,0.115,1.322,0.231,1.898,0.346c0.574,0.115,1,0.219,1.276,0.311l-1.104,5.589c-0.507-0.184-1.346-0.402-2.519-0.656
		c-1.173-0.252-2.68-0.379-4.52-0.379c-1.196,0-2.38,0.127-3.554,0.379c-1.173,0.254-1.943,0.426-2.312,0.518v30.153h-6.417v-34.362
		c1.519-0.552,3.404-1.069,5.658-1.552C1544.998,327.418,1547.528,327.177,1550.334,327.177z"/>
	<path fill="#8C9399" d="M1566.894,321.449c-1.15,0-2.129-0.379-2.933-1.139c-0.806-0.759-1.208-1.782-1.208-3.07
		c0-1.287,0.402-2.312,1.208-3.07c0.804-0.759,1.782-1.139,2.933-1.139c1.149,0,2.127,0.38,2.933,1.139
		c0.804,0.759,1.207,1.783,1.207,3.07c0,1.288-0.403,2.312-1.207,3.07C1569.021,321.07,1568.043,321.449,1566.894,321.449z
		 M1570.136,363.815h-6.417v-35.88h6.417V363.815z"/>
	<path fill="#8C9399" d="M1587.18,327.936h13.593v5.382h-13.593v16.56c0,1.795,0.138,3.278,0.413,4.451
		c0.276,1.173,0.69,2.094,1.242,2.76c0.553,0.667,1.242,1.139,2.07,1.414c0.828,0.276,1.794,0.414,2.898,0.414
		c1.932,0,3.484-0.218,4.657-0.655c1.173-0.437,1.989-0.747,2.449-0.932l1.242,5.313c-0.645,0.322-1.771,0.725-3.381,1.207
		c-1.611,0.483-3.45,0.725-5.521,0.725c-2.438,0-4.45-0.311-6.037-0.932s-2.863-1.552-3.83-2.794
		c-0.966-1.242-1.645-2.771-2.035-4.589c-0.392-1.816-0.586-3.921-0.586-6.313v-32.016l6.417-1.104V327.936z"/>
	<path fill="#8C9399" d="M1606.223,345.944c0-3.174,0.46-5.944,1.381-8.314c0.919-2.368,2.139-4.335,3.656-5.899
		c1.519-1.563,3.266-2.736,5.244-3.519c1.978-0.782,4.002-1.174,6.072-1.174c4.83,0,8.532,1.508,11.109,4.52
		c2.575,3.014,3.863,7.603,3.863,13.766c0,0.276,0,0.633,0,1.069c0,0.438-0.023,0.84-0.068,1.208h-24.564
		c0.276,3.726,1.356,6.555,3.243,8.487c1.886,1.932,4.83,2.897,8.832,2.897c2.253,0,4.15-0.195,5.692-0.586
		c1.541-0.391,2.702-0.771,3.484-1.139l0.897,5.382c-0.783,0.414-2.151,0.852-4.105,1.311c-1.956,0.46-4.175,0.69-6.659,0.69
		c-3.128,0-5.83-0.473-8.107-1.415c-2.276-0.941-4.151-2.242-5.623-3.898c-1.473-1.655-2.565-3.622-3.277-5.899
		C1606.579,351.154,1606.223,348.659,1606.223,345.944z M1630.856,342.426c0.045-2.898-0.68-5.279-2.174-7.142
		c-1.495-1.863-3.554-2.795-6.176-2.795c-1.473,0-2.771,0.288-3.898,0.862c-1.128,0.576-2.082,1.323-2.863,2.243
		c-0.783,0.921-1.392,1.979-1.828,3.174c-0.438,1.196-0.725,2.415-0.863,3.657H1630.856z"/>
	<path fill="#8C9399" d="M1662.732,328.971c1.472-0.368,3.416-0.759,5.831-1.173s5.209-0.621,8.384-0.621
		c2.299,0,4.231,0.311,5.796,0.932c1.563,0.62,2.874,1.529,3.933,2.725c0.321-0.229,0.828-0.552,1.519-0.966
		c0.689-0.414,1.54-0.815,2.553-1.207c1.011-0.391,2.139-0.735,3.381-1.035c1.242-0.299,2.575-0.448,4.002-0.448
		c2.76,0,5.014,0.403,6.762,1.207c1.748,0.806,3.116,1.944,4.105,3.416c0.989,1.473,1.656,3.22,2.001,5.243
		c0.346,2.025,0.518,4.233,0.518,6.624v20.148h-6.417v-18.768c0-2.115-0.104-3.934-0.311-5.451
		c-0.207-1.519-0.598-2.783-1.173-3.795s-1.357-1.76-2.346-2.243c-0.99-0.482-2.267-0.725-3.83-0.725
		c-2.162,0-3.944,0.288-5.347,0.863c-1.404,0.575-2.358,1.093-2.864,1.552c0.368,1.197,0.644,2.508,0.828,3.934
		c0.184,1.426,0.276,2.922,0.276,4.484v20.148h-6.417v-18.768c0-2.115-0.115-3.934-0.345-5.451
		c-0.231-1.519-0.633-2.783-1.208-3.795s-1.357-1.76-2.346-2.243c-0.99-0.482-2.243-0.725-3.761-0.725
		c-0.645,0-1.335,0.024-2.07,0.069c-0.736,0.047-1.438,0.104-2.104,0.173c-0.667,0.068-1.276,0.149-1.828,0.241
		c-0.552,0.093-0.921,0.162-1.104,0.207v30.291h-6.417V328.971z"/>
	<path fill="#8C9399" d="M1753.813,345.875c0,2.854-0.414,5.429-1.242,7.729c-0.828,2.301-1.99,4.278-3.484,5.934
		c-1.496,1.656-3.278,2.933-5.348,3.83c-2.07,0.896-4.324,1.346-6.762,1.346c-2.439,0-4.692-0.449-6.763-1.346
		c-2.069-0.897-3.853-2.174-5.348-3.83c-1.495-1.655-2.656-3.633-3.484-5.934c-0.828-2.3-1.242-4.875-1.242-7.729
		c0-2.805,0.414-5.37,1.242-7.693c0.828-2.322,1.989-4.313,3.484-5.968c1.495-1.656,3.278-2.933,5.348-3.83
		c2.07-0.896,4.323-1.346,6.763-1.346c2.438,0,4.691,0.449,6.762,1.346c2.069,0.897,3.852,2.174,5.348,3.83
		c1.494,1.655,2.656,3.646,3.484,5.968C1753.398,340.505,1753.813,343.07,1753.813,345.875z M1747.119,345.875
		c0-4.047-0.909-7.255-2.726-9.625c-1.817-2.369-4.29-3.554-7.417-3.554c-3.129,0-5.602,1.185-7.418,3.554
		c-1.817,2.37-2.726,5.578-2.726,9.625c0,4.049,0.908,7.257,2.726,9.626c1.816,2.37,4.289,3.554,7.418,3.554
		c3.127,0,5.6-1.184,7.417-3.554C1746.21,353.132,1747.119,349.924,1747.119,345.875z"/>
	<path fill="#8C9399" d="M1789.899,327.936c-1.794,6.717-3.898,13.156-6.313,19.32s-4.75,11.685-7.004,16.56h-5.796
		c-2.254-4.875-4.589-10.396-7.003-16.56c-2.415-6.164-4.52-12.604-6.314-19.32h6.9c0.552,2.254,1.208,4.657,1.967,7.21
		c0.759,2.554,1.563,5.084,2.415,7.591c0.851,2.507,1.713,4.933,2.587,7.279c0.874,2.346,1.701,4.439,2.484,6.278
		c0.781-1.839,1.609-3.933,2.484-6.278c0.873-2.347,1.735-4.772,2.587-7.279c0.851-2.507,1.656-5.037,2.415-7.591
		c0.759-2.553,1.415-4.956,1.967-7.21H1789.899z"/>
	<path fill="#8C9399" d="M1799.697,321.449c-1.15,0-2.129-0.379-2.933-1.139c-0.806-0.759-1.208-1.782-1.208-3.07
		c0-1.287,0.402-2.312,1.208-3.07c0.804-0.759,1.782-1.139,2.933-1.139c1.149,0,2.127,0.38,2.933,1.139
		c0.804,0.759,1.207,1.783,1.207,3.07c0,1.288-0.403,2.312-1.207,3.07C1801.824,321.07,1800.847,321.449,1799.697,321.449z
		 M1802.939,363.815h-6.417v-35.88h6.417V363.815z"/>
	<path fill="#8C9399" d="M1811.978,345.944c0-3.174,0.46-5.944,1.381-8.314c0.919-2.368,2.139-4.335,3.656-5.899
		c1.519-1.563,3.266-2.736,5.244-3.519c1.978-0.782,4.002-1.174,6.072-1.174c4.83,0,8.532,1.508,11.109,4.52
		c2.575,3.014,3.863,7.603,3.863,13.766c0,0.276,0,0.633,0,1.069c0,0.438-0.023,0.84-0.068,1.208h-24.564
		c0.276,3.726,1.356,6.555,3.243,8.487c1.886,1.932,4.83,2.897,8.832,2.897c2.253,0,4.15-0.195,5.692-0.586
		c1.541-0.391,2.702-0.771,3.484-1.139l0.897,5.382c-0.783,0.414-2.151,0.852-4.105,1.311c-1.956,0.46-4.175,0.69-6.659,0.69
		c-3.128,0-5.83-0.473-8.107-1.415c-2.276-0.941-4.151-2.242-5.623-3.898c-1.473-1.655-2.565-3.622-3.277-5.899
		C1812.334,351.154,1811.978,348.659,1811.978,345.944z M1836.611,342.426c0.045-2.898-0.68-5.279-2.174-7.142
		c-1.495-1.863-3.554-2.795-6.176-2.795c-1.473,0-2.771,0.288-3.898,0.862c-1.128,0.576-2.082,1.323-2.863,2.243
		c-0.783,0.921-1.392,1.979-1.828,3.174c-0.438,1.196-0.725,2.415-0.863,3.657H1836.611z"/>
	<path fill="#8C9399" d="M1860.898,359.192c2.622,0,4.564-0.345,5.83-1.035c1.265-0.689,1.897-1.794,1.897-3.312
		c0-1.563-0.621-2.806-1.862-3.727c-1.242-0.919-3.29-1.954-6.142-3.104c-1.38-0.552-2.702-1.115-3.967-1.69
		c-1.267-0.575-2.358-1.253-3.278-2.036c-0.92-0.781-1.655-1.725-2.208-2.829c-0.552-1.104-0.828-2.46-0.828-4.07
		c0-3.174,1.174-5.692,3.52-7.556s5.543-2.795,9.591-2.795c1.012,0,2.023,0.059,3.036,0.173c1.012,0.115,1.955,0.253,2.829,0.414
		c0.873,0.162,1.644,0.334,2.312,0.518c0.666,0.185,1.184,0.345,1.553,0.482l-1.174,5.521c-0.689-0.368-1.771-0.747-3.242-1.139
		c-1.473-0.391-3.243-0.586-5.313-0.586c-1.794,0-3.358,0.356-4.691,1.069c-1.335,0.714-2.002,1.828-2.002,3.347
		c0,0.782,0.149,1.473,0.449,2.069c0.299,0.599,0.759,1.139,1.38,1.622c0.621,0.482,1.391,0.931,2.312,1.345
		c0.92,0.414,2.023,0.853,3.312,1.312c1.701,0.645,3.22,1.276,4.555,1.897c1.333,0.621,2.472,1.346,3.415,2.174
		c0.942,0.827,1.667,1.828,2.174,3.001c0.506,1.173,0.759,2.611,0.759,4.313c0,3.313-1.231,5.819-3.691,7.521
		c-2.462,1.702-5.969,2.553-10.522,2.553c-3.174,0-5.658-0.266-7.452-0.794s-3.014-0.932-3.657-1.207l1.173-5.521
		c0.735,0.276,1.908,0.69,3.52,1.242C1856.091,358.916,1858.229,359.192,1860.898,359.192z"/>
</g>
</svg>
