<?xml version="1.0" encoding="utf-8"?>
<!-- Generator: Adobe Illustrator 16.0.0, SVG Export Plug-In . SVG Version: 6.00 Build 0)  -->
<!DOCTYPE svg PUBLIC "-//W3C//DTD SVG 1.1//EN" "http://www.w3.org/Graphics/SVG/1.1/DTD/svg11.dtd">
<svg version="1.1" id="Layer_1" xmlns="http://www.w3.org/2000/svg" xmlns:xlink="http://www.w3.org/1999/xlink" x="0px" y="0px"
	 width="2427.998px" height="576.837px" viewBox="0 0 2427.998 576.837" enable-background="new 0 0 2427.998 576.837"
	 xml:space="preserve">
<g>
	<g>
		<defs>
			<rect id="SVGID_1_" x="37.077" y="0" width="502.153" height="576.836"/>
		</defs>
		<clipPath id="SVGID_2_">
			<use xlink:href="#SVGID_1_"  overflow="visible"/>
		</clipPath>
		<g clip-path="url(#SVGID_2_)">
			<defs>
				<path id="SVGID_3_" d="M212.962,23.206C202.586,48.176,179.538,266.79,225.818,419.9c134.556,93.751,233.975,0,233.975,0
					c17.143-23.488,45.424-321.92,15.428-396.695C444.929,6.551,388.326,0,335.426,0.001
					C270.229,0.002,210.659,9.955,212.962,23.206"/>
			</defs>
			<clipPath id="SVGID_4_">
				<use xlink:href="#SVGID_3_"  overflow="visible"/>
			</clipPath>
			<path clip-path="url(#SVGID_4_)" fill="#9D5614" d="M209.105,29.842c-4.172-23.647,194.632-36.629,262.259,0
				c40.281,73.706,1.715,367.676-15.428,390.815c0,0-100.273,102.848-233.975,0C175.681,269.818,191.967,52.982,209.105,29.842"/>
			<rect x="315.698" y="73.965" clip-path="url(#SVGID_4_)" fill="#BA5D11" width="40.624" height="375.768"/>
			<rect x="349.551" y="73.965" clip-path="url(#SVGID_4_)" fill="#D16718" width="36.11" height="380.282"/>
			<rect x="286.359" y="66.066" clip-path="url(#SVGID_4_)" fill="#AA5013" width="38.367" height="388.181"/>
			<rect x="382.275" y="66.066" clip-path="url(#SVGID_4_)" fill="#AA5013" width="31.596" height="379.153"/>
			<rect x="260.405" y="66.066" clip-path="url(#SVGID_4_)" fill="#BA5D11" width="32.725" height="374.64"/>
			<rect x="407.101" y="62.681" clip-path="url(#SVGID_4_)" fill="#BA5D11" width="32.725" height="371.254"/>
			<rect x="234.451" y="57.039" clip-path="url(#SVGID_4_)" fill="#D16718" width="36.11" height="376.896"/>
			<rect x="214.139" y="51.397" clip-path="url(#SVGID_4_)" fill="#AA5013" width="29.339" height="372.382"/>
			<rect x="436.44" y="57.039" clip-path="url(#SVGID_4_)" fill="#AA5013" width="29.339" height="366.74"/>
			<rect x="192.699" y="51.397" clip-path="url(#SVGID_4_)" fill="#D16718" width="25.954" height="348.686"/>
			<rect x="460.137" y="51.397" clip-path="url(#SVGID_4_)" fill="#D16718" width="41.752" height="357.712"/>
			<path clip-path="url(#SVGID_4_)" fill="#060002" d="M465.792,397.948c28.068-1.5-128.987,99.633-258.402-7.071
				c-1.929,3.428,6.428,29.354,6.428,29.354s143.986,110.989,258.401-1.713C475.22,411.232,465.792,397.948,465.792,397.948"/>
			<path clip-path="url(#SVGID_4_)" fill="#060002" d="M492.146,342.668c2.142-0.43-142.93,108.205-296.556-2.57
				c-1.929,3.428,7.943,32.566,7.943,32.566s143.525,95.348,293.055-12.469C499.586,352.91,492.146,342.668,492.146,342.668"/>
			<path clip-path="url(#SVGID_4_)" fill="#060002" d="M509.503,283.961c2.142-0.43-178.375,85.705-321.075-4.929
				c-1.929,3.428-4.177,24.426-4.177,24.426s148.485,96.419,315.288,6.106C502.538,302.279,509.503,283.961,509.503,283.961"/>
			<path clip-path="url(#SVGID_4_)" fill="#060002" d="M495.361,161.723c2.141-0.43-141.736,80.67-309.826-8.356
				c-1.927,3.428-2.57,23.14-2.57,23.14s181.267,94.49,318.824,1.607C504.788,170.828,495.361,161.723,495.361,161.723"/>
			<path clip-path="url(#SVGID_4_)" fill="#060002" d="M493.646,88.558c2.142-0.43-170.555,69.511-304.253-12.428
				c-1.929,3.428-5.144,24.426-5.144,24.426s146.128,80.135,312.826,9.856C500.075,103.127,493.646,88.558,493.646,88.558"/>
			<path clip-path="url(#SVGID_4_)" fill="#060002" d="M489.099,29.416c-3.264,1.336-163.665,68.333-297.366-13.606
				c-1.927,3.429-8.769,30.753-8.769,30.753s146.129,80.133,312.827,9.856C498.79,49.133,489.099,29.416,489.099,29.416"/>
			<path clip-path="url(#SVGID_4_)" fill="none" stroke="#060002" stroke-width="6.836" stroke-miterlimit="10" d="M474.792,33.839
				c0-8.757-59.623-29.428-133.7-29.428c-74.077,0-127.878,14.455-127.878,23.212c0,8.756,58.515,35.645,132.591,35.645
				C429.214,63.268,474.792,41.402,474.792,33.839z"/>
		</g>
		<g clip-path="url(#SVGID_2_)">
			<defs>
				<rect id="SVGID_5_" x="37.077" y="0" width="502.153" height="576.836"/>
			</defs>
			<clipPath id="SVGID_6_">
				<use xlink:href="#SVGID_5_"  overflow="visible"/>
			</clipPath>
			<path clip-path="url(#SVGID_6_)" fill="#DB833A" d="M332.702,257.82c0,6.746-5.027,12.213-11.232,12.213
				c-6.203,0-11.233-5.467-11.233-12.213c0-6.746,5.03-12.213,11.233-12.213C327.674,245.607,332.702,251.074,332.702,257.82"/>
			
				<ellipse clip-path="url(#SVGID_6_)" fill="none" stroke="#773D15" stroke-width="1.139" stroke-miterlimit="10" cx="321.469" cy="257.82" rx="11.233" ry="12.213"/>
			<path clip-path="url(#SVGID_6_)" fill="#F7D134" d="M532.567,308.411c5.209-7.07-5.581-12.65-11.534-9.302
				c4.092-1.861,13.394-5.954,8.557-11.162c-5.208-5.209-15.625-1.488-14.51,5.582c0-4.466-7.07-5.21-10.417-5.582
				c2.977-1.86,6.326-11.906,0-10.046c1.86-7.813-5.581-10.045-9.674-3.72c-2.975-5.209-13.766-13.022-14.51-2.604
				c-2.977-0.743-6.697-1.859-9.673,0c5.208-9.674-8.931-17.859-13.396-9.301c-1.859-7.069-9.302-5.581-14.138-4.093
				c-10.417,3.35-0.744,2.977-2.232,10.047c-1.118,5.208-8.557-5.954-13.394-5.21c-6.699,1.118-5.954,7.07-5.582,11.907
				c0.372-8.93-9.302,1.116-10.046,5.208c-1.487-4.464-0.371-5.58,1.86-8.93c1.49-2.232,6.698-4.093,3.349-8.186
				c-5.952-7.068-12.649,2.233-13.022,7.442c-10.789-1.489-10.789,5.58-10.417,13.766c-2.604-2.603-7.069-4.464-10.79-1.488
				c-1.487,1.116-0.744,4.093-2.605,5.209c-1.859,1.489-4.091,0.372-5.581,1.489c-8.557,4.464-3.721,15.254,4.837,15.625
				c-6.697-8.929-13.394,1.116-12.651,8.558c-7.812,1.488-11.161,3.72-10.789,12.65l4.465,15.999l162.963-20.091L532.567,308.411z"
				/>
			<path clip-path="url(#SVGID_6_)" fill="#DDB536" d="M534.013,309.256c5.608-9.014-6.212-15.104-13.824-11.592
				c-1.962,0.905-0.257,3.777,1.69,2.891c4.797-2.184,16.679-9.301,7.587-14.881c-6.452-3.961-16.631-0.731-16.061,7.854
				c1.096-0.148,2.193-0.296,3.289-0.445c-0.756-5.582-7.504-6.299-12.031-6.811c0.395,0.954,0.789,1.906,1.184,2.859
				c4.254-3.341,6.771-14.519-1.629-12.845l2.06,2.059c1.596-9.43-7.264-12.344-12.734-5.01h2.891
				c-4.126-6.553-16.069-13.829-17.629-1.759c0.707-0.538,1.413-1.076,2.119-1.613c-3.964-0.996-7.174-1.544-10.964,0.168
				l2.292,2.291c2.173-4.758,1.542-10.45-3.23-13.48c-4.703-2.988-10.027-2.391-13.057,2.488c1.02,0.133,2.04,0.267,3.06,0.4
				c-2.259-6.512-7.874-7.222-13.99-5.875c-3.104,0.683-11.052,2.752-7.237,7.257c1.029,1.215,1.656,2.183,1.721,3.843
				c0.054,1.372-3.909-1.975-4.39-2.349c-1.757-1.373-4.247-3.434-6.653-3.381c-7.896,0.177-8.568,7.411-8.084,13.599
				c0.165,2.124,3.386,2.183,3.347,0c-0.195-11.278-11.843-0.698-13.333,4.764h3.228c-1.79-6.397,3.559-7.718,5.992-12.38
				c1.609-3.081-1.557-6.098-3.805-7.659c-6.308-4.38-12.522,5.301-13.228,10.366c0.538-0.41,1.076-0.819,1.614-1.23
				c-10.767-1.099-12.478,6.308-12.092,15.44c0.952-0.394,1.905-0.789,2.857-1.184c-3.859-3.404-8.28-4.606-12.818-1.75
				c-1.405,0.885-1.733,2.746-2.082,4.216c-0.339,1.429-6.268,2.332-7.684,3.499c-8.024,6.605-1.532,16.776,7.263,17.729
				c1.595,0.172,2.021-1.877,1.184-2.859c-7.796-9.135-15.891,0.561-15.508,9.742c0.409-0.537,0.818-1.077,1.229-1.614
				c-6.968,1.425-14.343,6.166-11.959,14.709c1.488,5.331,2.977,10.666,4.465,15.997c0.182,0.652,0.886,1.319,1.615,1.229
				l159.495-19.663c1.133-0.141,3.753-0.021,4.65-0.919C528.555,319.627,531.134,313.693,534.013,309.256
				c1.179-1.818-1.721-3.495-2.892-1.69c-1.69,2.607-3.381,5.212-5.071,7.82c-1.026,1.582-2.053,3.163-3.08,4.746
				c-1.166,1.796-0.202,0.478,0.507,0.39c-2.553,0.315-5.103,0.63-7.655,0.943c-13.5,1.666-27.001,3.33-40.502,4.994
				c-33.44,4.123-66.881,8.246-100.321,12.369c-4.774,0.589-9.549,1.177-14.323,1.766c0.538,0.41,1.076,0.819,1.613,1.229
				c-1.157-4.15-2.316-8.303-3.475-12.455c-0.624-2.23-0.995-3.796-0.894-6.144c0.243-5.644,4.839-7.031,9.525-7.99
				c0.701-0.143,1.258-0.912,1.229-1.614c-0.227-5.446,3.616-14.613,9.792-7.374c0.395-0.954,0.789-1.906,1.184-2.859
				c-3.471-0.376-6.18-2.257-7.396-5.575c-1.88-5.134,3.567-6.565,7.138-7.548c1.226-0.336,2.627-1.203,3.291-2.335
				c0.488-0.832,0.688-1.83,0.906-2.751c1.149-4.853,7.326-1.256,9.017,0.234c1.03,0.908,2.922,0.366,2.857-1.185
				c-0.109-2.598-0.232-5.198,0.202-7.775c0.76-4.512,4.798-4.699,8.542-4.316c0.662,0.068,1.52-0.556,1.614-1.229
				c0.361-2.583,1.417-4.742,3.099-6.736c0.502-0.432,1.005-0.865,1.507-1.298c3.278-1.689,5.072-0.301,5.381,4.163
				c-0.704,0.833-1.691,1.513-2.494,2.251c-3.384,3.11-4.081,7.1-2.908,11.292c0.445,1.592,2.791,1.605,3.228,0
				c0.449-1.646,6.687-9.76,6.759-5.654h3.347c-0.245-3.151-1.034-7.327,1.988-9.527c3.305-2.408,7.339,1.934,9.676,3.74
				c1.823,1.408,4.699,3.39,6.578,0.995c1.863-2.375,0.746-6.181-0.978-8.284c-1.566-1.914,1.461-1.684,3.789-2.368
				c4.19-1.233,9.248-1.828,11.005,3.239c0.472,1.361,2.265,1.681,3.06,0.4c4.48-7.215,13.568,0.905,10.503,7.611
				c-0.719,1.574,0.722,3.001,2.291,2.292c3-1.356,5.577-0.536,8.383,0.168c1.158,0.291,1.98-0.537,2.119-1.615
				c1.038-8.03,9.54,0.511,11.39,3.45c0.721,1.146,2.143,1.002,2.891,0c2.991-4.007,7.557-3.134,6.615,2.429
				c-0.22,1.294,0.733,2.324,2.06,2.061c3.5-0.699-0.722,6.535-1.629,7.247c-1.295,1.018-0.062,2.717,1.184,2.858
				c2.967,0.335,8.292,0.575,8.803,4.353c0.254,1.873,3.412,1.422,3.288-0.446c-0.434-6.522,8.571-8.426,12.176-3.709
				c2.466,3.225-6.782,6.953-8.741,7.845c0.563,0.963,1.127,1.927,1.69,2.891c4.565-2.106,12.98,1.002,9.242,7.011
				C529.978,309.405,532.875,311.084,534.013,309.256"/>
			<path clip-path="url(#SVGID_6_)" fill="#D30F0F" d="M377.231,337.618l-6.511-7.628l-9.302,3.721l-4.836-13.767l-10.045,1.303
				c0,0,35.345,87.994,34.601,157.568c6.604,5.395,16.394,8.999,16.394,8.999L377.231,337.618c0,0-0.992-1.367,12.465-5.023
				c2.804-0.763,9.705-5.859,13.021-6.698c4.762-1.203,8.663,7.429,14.418,6.14c2.876-0.646,8.05-7.721,11.163-8.371
				c2.431-0.509,4.962,7.064,7.535,6.556c3.601-0.709,9.979-9.56,13.842-10.254c3.631-0.652,6.722,5.162,10.573,4.534
				c4.661-0.758,11.228-8.32,16.195-9.022c3.785-0.536,11.243,7.002,15.199,6.51c4.714-0.585,5.961-9.192,10.904-9.702
				c3.362-0.349,12.422,7.219,15.884,6.913c7.078-0.627,8.715-9.062,16.185-9.488c-15.626,39.625-17.858,167.986-17.858,167.986
				l-116.457,11.905"/>
			<path clip-path="url(#SVGID_6_)" fill="none" stroke="#470205" stroke-width="5.44" stroke-miterlimit="10" d="M377.231,337.618
				l-6.511-7.628l-9.302,3.721l-4.836-13.767l-10.045,1.303c0,0,35.345,87.994,34.601,157.568
				c6.604,5.395,16.394,8.999,16.394,8.999L377.231,337.618c0,0-0.992-1.367,12.465-5.023c2.804-0.763,9.705-5.859,13.021-6.698
				c4.762-1.203,8.663,7.429,14.418,6.14c2.876-0.646,8.05-7.721,11.163-8.371c2.431-0.509,4.962,7.064,7.535,6.556
				c3.601-0.709,9.979-9.56,13.842-10.254c3.631-0.652,6.722,5.162,10.573,4.534c4.661-0.758,11.228-8.32,16.195-9.022
				c3.785-0.536,11.243,7.002,15.199,6.51c4.714-0.585,5.961-9.192,10.904-9.702c3.362-0.349,12.422,7.219,15.884,6.913
				c7.078-0.627,8.715-9.062,16.185-9.488c-15.626,39.625-17.858,167.986-17.858,167.986l-116.457,11.905"/>
			<path clip-path="url(#SVGID_6_)" fill="#DDB536" d="M379.345,322.617c1.796-1.528,3.637-3.173,5.882-4.001
				c2.626-0.969,4.678,1.074,6.261,2.886c1.421,1.629,3.78-0.748,2.366-2.368c-2.095-2.401-4.853-4.588-8.248-4.024
				c-3.396,0.564-6.094,2.98-8.629,5.14C375.33,321.652,377.713,324.008,379.345,322.617"/>
			<path clip-path="url(#SVGID_6_)" fill="#DDB536" d="M408.671,305.62c2.328-0.165,5.791,0.181,6.794,2.723
				c1.277,3.243-4.761,3.29-6.495,3.663c-1.354,0.291-1.714,2.454-0.401,3.06c1.719,0.792,5.434,3.636,3.382,5.928
				c-1.436,1.601,0.924,3.979,2.367,2.366c3.559-3.971,0.087-9.277-4.059-11.186c-0.133,1.02-0.267,2.041-0.399,3.06
				c3.835-0.824,10.045-1.369,8.98-7.006c-0.876-4.63-5.978-6.251-10.169-5.957C406.531,302.422,406.515,305.773,408.671,305.62"/>
			<path clip-path="url(#SVGID_6_)" fill="#DDB536" d="M424.737,302.526c4.493-5.273,11.072,2.006,11.281,7.002
				c0.089,2.151,3.438,2.16,3.348,0c-0.323-7.739-10.417-17.091-16.997-9.371C420.977,301.792,423.334,304.171,424.737,302.526"/>
			<path clip-path="url(#SVGID_6_)" fill="#DDB536" d="M459.716,307.42c1.958-0.81,4.238-1.512,6.378-1.142
				c2.513,0.435,1.893,2.831,1.236,4.664c-0.729,2.039,2.506,2.908,3.228,0.89c1.086-3.033,1.167-6.831-2.236-8.339
				c-2.965-1.317-6.628-0.489-9.496,0.699C456.86,305.005,457.72,308.246,459.716,307.42"/>
			<path clip-path="url(#SVGID_6_)" fill="#DDB536" d="M484.673,287.533c3.668-1.825,8.748,5.245,2.875,5.438
				c-1.506,0.049-2.154,1.765-1.184,2.858c1.998,2.251,5.815,7.022,0.586,7.516c-4.128,0.391-8.785-1.411-11.985-3.931
				c-1.675-1.321-4.063,1.031-2.366,2.368c4.412,3.477,10.856,5.985,16.516,4.565c7.219-1.81,2.611-9.51-0.382-12.887
				c-0.395,0.954-0.79,1.906-1.184,2.86c4.332-0.143,7.635-3.258,5.494-7.669c-1.843-3.793-6.114-5.973-10.059-4.01
				C481.048,285.604,482.746,288.491,484.673,287.533"/>
			<path clip-path="url(#SVGID_6_)" fill="#DDB536" d="M500.265,299.922c1.569-1.899,4.502-2.106,6.788-1.786
				c1.886,0.265,4.431,0.983,2.861,3.104c-1.286,1.739,1.622,3.407,2.891,1.692c5.748-7.768-10.612-10.575-14.907-5.378
				C496.533,299.205,498.888,301.587,500.265,299.922"/>
			<path clip-path="url(#SVGID_6_)" fill="#DDB536" d="M443.687,273.91c3.193,6.488,10.207,14.369,18.189,13.48
				c2.122-0.237,2.145-3.587,0-3.35c-6.811,0.759-12.6-6.341-15.297-11.821C445.624,270.282,442.737,271.98,443.687,273.91"/>
			<path clip-path="url(#SVGID_6_)" fill="#DDB536" d="M401.974,287.762c2.656-0.017,5.37-0.285,8.01,0.116
				c3.608,0.546,4.631,2.965,4.455,6.395c-0.112,2.159,3.238,2.148,3.348,0c0.193-3.746-0.868-7.332-4.538-8.923
				c-3.491-1.514-7.58-0.959-11.274-0.937C399.814,284.426,399.813,287.775,401.974,287.762"/>
			<path clip-path="url(#SVGID_6_)" fill="#DDB536" d="M433.227,287.762c4.244,0.363,9.676,2.253,9.86,7.255
				c0.08,2.152,3.428,2.161,3.348,0c-0.258-7.036-7.024-10.074-13.208-10.604C431.075,284.229,431.092,287.578,433.227,287.762"/>
			<polygon clip-path="url(#SVGID_6_)" fill="#FFFFFF" points="530.148,316.224 379.29,352.835 354.137,342.269 360.662,362.25 
				382.087,373.545 528.208,340.862 			"/>
			<polygon clip-path="url(#SVGID_6_)" fill="#FFFFFF" points="521.778,402.729 390.229,433.774 376.036,424.78 378.161,438.458 
				392.67,451.841 519.837,427.366 			"/>
			<polygon clip-path="url(#SVGID_6_)" fill="#FFFFFF" points="526.801,358.082 385.417,393.241 366.971,384.312 371.496,402.729 
				385.975,410.542 524.859,382.719 			"/>
			<polygon clip-path="url(#SVGID_6_)" fill="#FFFFFF" points="518.988,451.841 395.726,474.439 380.825,464.674 381.138,478.814 
				400.299,489.604 517.046,476.479 			"/>
			<path clip-path="url(#SVGID_6_)" fill="none" stroke="#470205" stroke-width="5.44" stroke-miterlimit="10" d="M377.231,337.618
				l-6.511-7.628l-9.302,3.721l-4.836-13.767l-10.045,1.303c0,0,35.345,87.994,34.601,157.568
				c6.604,5.395,16.394,8.999,16.394,8.999L377.231,337.618c0,0-0.992-1.367,12.465-5.023c2.804-0.763,9.705-5.859,13.021-6.698
				c4.762-1.203,8.663,7.429,14.418,6.14c2.876-0.646,8.051-7.721,11.163-8.371c2.431-0.509,4.962,7.064,7.535,6.556
				c3.601-0.709,9.979-9.56,13.842-10.254c3.631-0.652,6.722,5.162,10.573,4.534c4.661-0.758,11.228-8.32,16.195-9.022
				c3.785-0.536,11.243,7.002,15.199,6.51c4.714-0.585,5.961-9.192,10.904-9.702c3.362-0.349,12.422,7.219,15.884,6.913
				c7.078-0.627,8.715-9.062,16.185-9.488c-15.626,39.625-17.858,167.986-17.858,167.986l-116.457,11.905"/>
			<path clip-path="url(#SVGID_6_)" fill="#303843" d="M228.245,250.001c132.026,0,47.958,378.589-138.233,253.969L228.245,250.001z
				"/>
			<path clip-path="url(#SVGID_6_)" fill="none" stroke="#8C9399" stroke-width="10" stroke-miterlimit="10" d="M228.245,250.001
				c132.026,0,47.958,378.589-138.233,253.969L228.245,250.001z"/>
			<path clip-path="url(#SVGID_6_)" fill="#303843" d="M195.644,236.836c98.526,5.267,57.873,298.507-116.739,261.269
				C12.997,473.148,40.553,239.281,195.644,236.836"/>
			<path clip-path="url(#SVGID_6_)" fill="none" stroke="#8C9399" stroke-width="14.774" stroke-miterlimit="10" d="
				M195.644,236.836c98.526,5.267,57.873,298.507-116.739,261.269C12.997,473.148,40.553,239.281,195.644,236.836z"/>
			<polygon clip-path="url(#SVGID_6_)" fill="#8C9399" points="156.025,248.873 150.383,317.708 160.539,321.093 207.933,257.336 
				220.346,284.418 163.359,339.712 163.359,358.331 212.446,369.333 196.366,408.546 157.929,392.184 142.797,402.34 
				139.416,475.124 107.943,486.408 115.908,415.881 104.653,413.624 57.851,476.816 47.131,444.656 100.167,391.056 
				100.731,375.13 55.594,364.466 70.264,328.992 110.888,344.79 122.172,332.941 128.524,257.374 			"/>
			<path clip-path="url(#SVGID_6_)" fill="#303843" d="M141.545,344.79c14.452-3.547,4.138,46.266-15.045,39.495
				C107.316,377.514,133.27,338.019,141.545,344.79"/>
			<path clip-path="url(#SVGID_6_)" fill="none" stroke="#8C9399" stroke-width="4" stroke-miterlimit="10" d="M141.545,344.79
				c14.452-3.547,4.138,46.266-15.045,39.495C107.316,377.514,133.27,338.019,141.545,344.79z"/>
			<path clip-path="url(#SVGID_6_)" fill="#8C9399" d="M60.298,476.44c4.415,4.905-0.606,13.001,3.76,16.738
				c190.316,71.091,253.219-325.42,98.174-251.997c7.494-2.031,2.537,4.316,8.463,7.127
				C261.533,232.885,219.54,520.352,60.298,476.44"/>
			<path clip-path="url(#SVGID_6_)" fill="none" stroke="#8C9399" stroke-width="2" stroke-miterlimit="10" d="M60.298,476.44
				c4.415,4.905-0.606,13.001,3.76,16.738c190.316,71.091,253.219-325.42,98.174-251.997c7.494-2.031,2.537,4.316,8.463,7.127
				C261.533,232.885,219.54,520.352,60.298,476.44z"/>
			<path clip-path="url(#SVGID_6_)" fill="#2F3742" d="M220.346,463.84c0,0,61.085-52.46-10.156,95.885l40.581,11.722
				c35.621-74.172,37.649-99.76,30.773-106.805c-6.875-7.046-38.438-11.329-38.438-11.329"/>
			<path clip-path="url(#SVGID_6_)" fill="none" stroke="#303843" stroke-width="7.992" stroke-miterlimit="10" d="M220.346,463.84
				c0,0,61.085-52.46-10.156,95.885l40.581,11.722c35.621-74.172,37.649-99.76,30.773-106.805
				c-6.875-7.046-38.438-11.329-38.438-11.329"/>
			<path clip-path="url(#SVGID_6_)" fill="#626A72" d="M278.18,498.896c-2.433,7.304-9.786,11.436-16.413,9.226l-10.997-3.667
				c-6.629-2.21-10.026-9.918-7.591-17.227l1.837-5.515c2.436-7.305,9.781-11.434,16.409-9.225l11.001,3.669
				c6.627,2.208,10.024,9.921,7.586,17.227L278.18,498.896z"/>
			<path clip-path="url(#SVGID_6_)" fill="#626A72" d="M263.51,541.776c-2.433,7.303-9.786,11.435-16.413,9.226l-10.997-3.667
				c-6.629-2.21-10.026-9.919-7.591-17.227l1.837-5.515c2.435-7.305,9.781-11.435,16.408-9.225l11.001,3.668
				c6.627,2.209,10.024,9.921,7.586,17.227L263.51,541.776z"/>
		</g>
	</g>
</g>
<g>
	<path fill="#C8552F" d="M611.544,127.013h115.625v45.675h-21.826v-27.256h-57.6v51.85h55.47v17.887h-55.47v54.938h16.184v18.313
		h-52.382v-18.313h15.331V145.432h-15.331V127.013z"/>
	<path fill="#C8552F" d="M738.454,122.754h35.773v147.352h16.609v18.313h-52.383v-18.313h15.971v-129.04h-15.971V122.754z"/>
	<path fill="#C8552F" d="M809.362,178.118h35.986v91.988h16.609v18.313h-52.383v-18.313h15.758V196.43h-15.971V178.118z
		 M821.606,139.044c0-1.845,0.372-3.602,1.118-5.271c0.745-1.667,1.738-3.123,2.98-4.365c1.241-1.241,2.715-2.236,4.419-2.981
		c1.703-0.745,3.513-1.118,5.43-1.118c1.845,0,3.602,0.373,5.271,1.118c1.666,0.745,3.122,1.74,4.364,2.981
		c1.241,1.243,2.236,2.698,2.981,4.365c0.745,1.668,1.118,3.425,1.118,5.271c0,1.916-0.373,3.726-1.118,5.43
		s-1.74,3.212-2.981,4.525c-1.242,1.314-2.698,2.342-4.364,3.087c-1.669,0.746-3.426,1.118-5.271,1.118
		c-1.917,0-3.727-0.373-5.43-1.118c-1.704-0.745-3.178-1.773-4.419-3.087c-1.242-1.313-2.235-2.821-2.98-4.525
		C821.979,142.77,821.606,140.96,821.606,139.044z"/>
	<path fill="#C8552F" d="M943.405,270.106h6.282l-21.933-27.256l-21.4,27.256h5.43v18.313h-36.625v-18.313h8.943l33.538-39.074
		l-31.515-34.602h-11.18v-18.313h36.625v18.313h-4.152l20.336,26.191l20.548-26.191h-5.323v-18.313h36.625v18.313h-9.476
		l-31.195,35.986l33.005,37.69h8.092v18.313h-36.625V270.106z"/>
	<path fill="#C8552F" d="M1057.805,200.103c-1.384-2.093-3.177-3.796-5.376-5.11c-2.201-1.313-4.65-2.271-7.347-2.875
		c-2.698-0.603-5.323-0.905-7.879-0.905c-2.84,0-5.448,0.32-7.825,0.958c-2.379,0.639-4.418,1.562-6.122,2.768
		c-1.703,1.208-3.034,2.68-3.992,4.418c-0.958,1.74-1.438,3.673-1.438,5.803c0,3.691,1.118,6.619,3.354,8.783
		c2.236,2.166,5.979,4.171,11.232,6.016l21.188,7.453c9.085,3.053,15.721,7.205,19.909,12.457
		c4.188,5.253,6.282,11.535,6.282,18.845c0,4.897-0.977,9.388-2.928,13.468c-1.953,4.083-4.722,7.559-8.305,10.434
		c-3.585,2.875-7.897,5.111-12.937,6.708c-5.04,1.597-10.646,2.396-16.821,2.396c-8.589,0-15.581-1.384-20.975-4.152
		c-5.395-2.769-9.547-6.423-12.457-10.966h-11.072v-18.313h22.039c0,3.053,0.655,5.661,1.97,7.825
		c1.313,2.166,3.051,3.923,5.217,5.271c2.164,1.349,4.613,2.342,7.346,2.981s5.519,0.958,8.358,0.958
		c2.768,0,5.43-0.336,7.985-1.011c2.555-0.674,4.808-1.667,6.76-2.981c1.952-1.313,3.496-2.892,4.632-4.738
		c1.135-1.845,1.703-3.939,1.703-6.281c0-3.548-1.154-6.564-3.46-9.05c-2.308-2.484-6.229-4.72-11.765-6.708l-21.081-7.879
		c-8.589-3.051-14.958-6.937-19.11-11.658c-4.152-4.719-6.229-10.628-6.229-17.727c0-4.685,0.868-9.013,2.608-12.989
		c1.738-3.975,4.259-7.399,7.56-10.274c3.3-2.875,7.327-5.127,12.084-6.761c4.754-1.632,10.185-2.449,16.289-2.449
		c7.879,0,14.479,1.102,19.804,3.301c5.323,2.201,10.114,5.962,14.373,11.286h10.327v18.313h-21.826
		C1059.881,204.734,1059.189,202.198,1057.805,200.103z"/>
	<path fill="#C8552F" d="M1133.876,178.118h25.872v16.077h-26.085l-0.319,63.668c0,4.33,0.496,7.844,1.491,10.54
		c0.993,2.698,2.59,4.562,4.791,5.59c2.199,1.03,4.685,1.543,7.452,1.543c2.981,0,5.606-0.266,7.879-0.798
		c2.271-0.532,4.755-1.438,7.453-2.715l4.578,13.309c-3.407,1.775-6.992,3.176-10.754,4.205c-3.763,1.028-8.198,1.544-13.309,1.544
		c-4.827,0-9.033-0.585-12.616-1.757c-3.585-1.171-6.601-3.141-9.05-5.909c-2.448-2.768-4.277-6.477-5.483-11.126
		c-1.207-4.648-1.81-10.451-1.81-17.408l0.319-60.687h-17.567v-16.077h17.78v-26.404l19.377-9.156V178.118z"/>
	<path fill="#C8552F" d="M1182.213,178.118h35.986v91.988h16.609v18.313h-52.383v-18.313h15.758V196.43h-15.971V178.118z
		 M1194.457,139.044c0-1.845,0.372-3.602,1.118-5.271c0.745-1.667,1.738-3.123,2.98-4.365c1.241-1.241,2.715-2.236,4.419-2.981
		c1.703-0.745,3.513-1.118,5.43-1.118c1.845,0,3.602,0.373,5.271,1.118c1.666,0.745,3.122,1.74,4.364,2.981
		c1.241,1.243,2.236,2.698,2.981,4.365c0.745,1.668,1.118,3.425,1.118,5.271c0,1.916-0.373,3.726-1.118,5.43
		s-1.74,3.212-2.981,4.525c-1.242,1.314-2.698,2.342-4.364,3.087c-1.669,0.746-3.426,1.118-5.271,1.118
		c-1.917,0-3.727-0.373-5.43-1.118c-1.704-0.745-3.178-1.773-4.419-3.087c-1.242-1.313-2.235-2.821-2.98-4.525
		C1194.829,142.77,1194.457,140.96,1194.457,139.044z"/>
	<path fill="#C8552F" d="M1252.163,122.754h35.773v147.352h16.609v18.313h-52.383v-18.313h15.971v-129.04h-15.971V122.754z"/>
	<path fill="#C8552F" d="M1323.07,122.754h35.773v147.352h16.609v18.313h-52.383v-18.313h15.971v-129.04h-15.971V122.754z"/>
	<path fill="#C8552F" d="M1413.568,235.823c0,3.124,0.23,5.98,0.692,8.571c0.461,2.592,1.118,5.057,1.97,7.399
		c2.625,7.099,6.831,12.44,12.616,16.023c5.784,3.585,12.332,5.376,19.644,5.376c5.749,0,11.339-0.798,16.769-2.396
		c5.43-1.597,11.126-4.099,17.089-7.506l7.984,13.521c-7.239,4.969-14.516,8.661-21.826,11.073s-14.905,3.62-22.784,3.62
		c-7.452,0-14.356-1.243-20.708-3.726c-6.353-2.484-11.817-6.175-16.396-11.073s-8.163-11.001-10.754-18.313
		c-2.592-7.31-3.886-15.827-3.886-25.552c0-7.879,1.1-15.313,3.301-22.305c2.199-6.99,5.483-13.096,9.849-18.313
		c4.364-5.217,9.776-9.351,16.236-12.404c6.458-3.051,13.981-4.578,22.571-4.578c8.304,0,15.241,1.261,20.814,3.78
		c5.571,2.521,10.114,5.856,13.628,10.008c3.513,4.152,6.175,8.89,7.984,14.214c1.811,5.323,3.069,10.753,3.78,16.29
		c0.354,2.698,0.585,5.43,0.691,8.198c0.106,2.769,0.16,5.467,0.16,8.092H1413.568z M1444.551,191.852
		c-4.614,0-8.642,0.657-12.084,1.97c-3.443,1.314-6.371,3.194-8.783,5.643c-2.414,2.449-4.349,5.448-5.803,8.997
		c-1.456,3.55-2.539,7.524-3.247,11.924h57.173c-0.284-4.116-0.941-7.914-1.97-11.392c-1.029-3.477-2.608-6.495-4.737-9.05
		c-2.13-2.555-4.863-4.542-8.198-5.962C1453.564,192.562,1449.448,191.852,1444.551,191.852z"/>
	<path fill="#C8552F" d="M1599.249,201.434h-20.229v-6.814c-2.342,0-4.737,0.444-7.187,1.331c-2.448,0.889-4.737,2.236-6.867,4.046
		c-2.129,1.81-3.992,4.118-5.59,6.92c-1.597,2.805-2.751,6.122-3.46,9.955v53.234h18.738v18.313h-54.725v-18.313h15.226
		l0.106-73.676h-15.332v-18.313h35.241v15.225c1.277-2.271,2.715-4.382,4.312-6.334c1.598-1.952,3.371-3.655,5.324-5.111
		c1.951-1.454,4.115-2.59,6.494-3.407c2.377-0.815,4.951-1.225,7.719-1.225c3.69,0,7.169,0,10.435,0
		c3.264,0,6.529,0.072,9.795,0.213V201.434z"/>
	<path fill="#C8552F" d="M1614.793,178.118h41.842v18.313h-13.096l25.872,70.375l27.043-70.375h-12.989v-18.313h41.842v18.313
		h-11.393l-49.081,123.822h15.118v18.313h-44.504v-18.313h13.415l11.712-30.343l-36.838-93.479h-8.943V178.118z"/>
</g>
<g>
	<path fill="#8C9399" d="M644.136,423.969c-0.988-2.613-1.916-5.183-2.787-7.708c-0.871-2.526-1.772-5.096-2.7-7.708H611.3
		l-5.487,15.416h-8.797c2.322-6.387,4.499-12.294,6.532-17.725c2.032-5.428,4.02-10.582,5.966-15.459
		c1.945-4.877,3.876-9.537,5.792-13.979c1.916-4.442,3.919-8.841,6.01-13.195h7.751c2.09,4.354,4.094,8.753,6.01,13.195
		c1.916,4.442,3.846,9.102,5.792,13.979c1.945,4.877,3.933,10.031,5.966,15.459c2.032,5.431,4.209,11.338,6.532,17.725H644.136z
		 M636.21,401.584c-1.859-5.051-3.702-9.942-5.531-14.675c-1.829-4.732-3.731-9.276-5.705-13.631
		c-2.033,4.355-3.963,8.899-5.792,13.631c-1.829,4.733-3.645,9.625-5.444,14.675H636.21z"/>
	<path fill="#8C9399" d="M700.834,425.014c-3.657,0-6.866-0.581-9.624-1.742c-2.759-1.16-5.081-2.787-6.968-4.877
		c-1.888-2.091-3.296-4.572-4.224-7.447c-0.93-2.874-1.394-6.053-1.394-9.537c0-3.483,0.507-6.676,1.523-9.581
		c1.016-2.903,2.453-5.414,4.312-7.534c1.857-2.119,4.138-3.774,6.837-4.965c2.7-1.189,5.705-1.785,9.015-1.785
		c2.032,0,4.064,0.174,6.098,0.522c2.031,0.348,3.977,0.901,5.835,1.655l-1.829,6.881c-1.219-0.58-2.628-1.045-4.224-1.394
		c-1.598-0.349-3.297-0.522-5.096-0.522c-4.529,0-7.999,1.423-10.408,4.268c-2.41,2.846-3.614,6.998-3.614,12.455
		c0,2.439,0.274,4.675,0.827,6.707c0.551,2.033,1.422,3.775,2.613,5.226c1.189,1.452,2.713,2.569,4.572,3.354
		c1.857,0.784,4.122,1.176,6.794,1.176c2.147,0,4.094-0.203,5.835-0.609c1.742-0.406,3.105-0.842,4.094-1.307l1.133,6.793
		c-0.466,0.292-1.133,0.566-2.004,0.828c-0.871,0.261-1.858,0.492-2.961,0.696c-1.104,0.203-2.279,0.377-3.527,0.522
		C703.2,424.94,701.995,425.014,700.834,425.014z"/>
	<path fill="#8C9399" d="M760.497,401.323c0,3.601-0.522,6.853-1.567,9.755c-1.045,2.904-2.513,5.4-4.398,7.49
		c-1.888,2.091-4.138,3.702-6.75,4.834c-2.613,1.133-5.459,1.698-8.536,1.698c-3.078,0-5.922-0.565-8.535-1.698
		c-2.613-1.132-4.864-2.743-6.75-4.834c-1.888-2.09-3.354-4.586-4.398-7.49c-1.045-2.902-1.567-6.154-1.567-9.755
		c0-3.541,0.522-6.778,1.567-9.711c1.045-2.931,2.511-5.443,4.398-7.534c1.886-2.09,4.137-3.702,6.75-4.834s5.457-1.698,8.535-1.698
		c3.077,0,5.923,0.566,8.536,1.698c2.612,1.132,4.862,2.744,6.75,4.834c1.886,2.09,3.354,4.603,4.398,7.534
		C759.975,394.545,760.497,397.782,760.497,401.323z M752.049,401.323c0-5.109-1.147-9.159-3.44-12.15
		c-2.294-2.99-5.415-4.485-9.363-4.485c-3.949,0-7.069,1.496-9.362,4.485c-2.295,2.991-3.44,7.041-3.44,12.15
		c0,5.11,1.146,9.16,3.44,12.15c2.293,2.991,5.413,4.485,9.362,4.485c3.948,0,7.069-1.494,9.363-4.485
		C750.901,410.483,752.049,406.434,752.049,401.323z"/>
	<path fill="#8C9399" d="M771.907,379.984c1.857-0.464,4.312-0.958,7.359-1.48c3.049-0.522,6.576-0.784,10.583-0.784
		c2.902,0,5.341,0.392,7.316,1.176c1.973,0.784,3.628,1.931,4.964,3.44c0.406-0.29,1.045-0.697,1.916-1.219s1.945-1.03,3.223-1.524
		c1.276-0.493,2.7-0.928,4.269-1.307c1.567-0.377,3.251-0.566,5.051-0.566c3.484,0,6.328,0.509,8.536,1.524
		c2.206,1.017,3.933,2.454,5.183,4.312c1.247,1.859,2.09,4.065,2.525,6.619c0.436,2.556,0.653,5.343,0.653,8.361v25.433h-8.101
		v-23.69c0-2.67-0.13-4.965-0.392-6.881s-0.755-3.512-1.48-4.791c-0.727-1.276-1.714-2.221-2.962-2.831
		c-1.249-0.609-2.86-0.915-4.833-0.915c-2.73,0-4.98,0.363-6.751,1.089c-1.771,0.727-2.976,1.38-3.614,1.959
		c0.464,1.511,0.813,3.166,1.045,4.965c0.231,1.8,0.349,3.688,0.349,5.661v25.433h-8.1v-23.69c0-2.67-0.146-4.965-0.436-6.881
		c-0.291-1.916-0.799-3.512-1.524-4.791c-0.727-1.276-1.714-2.221-2.961-2.831c-1.25-0.609-2.831-0.915-4.747-0.915
		c-0.813,0-1.685,0.03-2.613,0.087c-0.93,0.059-1.815,0.13-2.656,0.218c-0.843,0.087-1.611,0.189-2.308,0.305
		c-0.697,0.117-1.163,0.204-1.394,0.261v38.236h-8.101V379.984z"/>
	<path fill="#8C9399" d="M846.897,379.984c1.857-0.464,4.312-0.958,7.359-1.48c3.049-0.522,6.576-0.784,10.583-0.784
		c2.902,0,5.341,0.392,7.316,1.176c1.973,0.784,3.628,1.931,4.964,3.44c0.406-0.29,1.045-0.697,1.916-1.219s1.945-1.03,3.223-1.524
		c1.276-0.493,2.7-0.928,4.269-1.307c1.567-0.377,3.251-0.566,5.051-0.566c3.484,0,6.328,0.509,8.536,1.524
		c2.206,1.017,3.933,2.454,5.183,4.312c1.247,1.859,2.09,4.065,2.525,6.619c0.436,2.556,0.653,5.343,0.653,8.361v25.433h-8.101
		v-23.69c0-2.67-0.13-4.965-0.392-6.881s-0.755-3.512-1.48-4.791c-0.727-1.276-1.714-2.221-2.962-2.831
		c-1.249-0.609-2.86-0.915-4.833-0.915c-2.73,0-4.98,0.363-6.751,1.089c-1.771,0.727-2.976,1.38-3.614,1.959
		c0.464,1.511,0.813,3.166,1.045,4.965c0.231,1.8,0.349,3.688,0.349,5.661v25.433h-8.1v-23.69c0-2.67-0.146-4.965-0.436-6.881
		c-0.291-1.916-0.799-3.512-1.524-4.791c-0.727-1.276-1.714-2.221-2.961-2.831c-1.25-0.609-2.831-0.915-4.747-0.915
		c-0.813,0-1.685,0.03-2.613,0.087c-0.93,0.059-1.815,0.13-2.656,0.218c-0.843,0.087-1.611,0.189-2.308,0.305
		c-0.697,0.117-1.163,0.204-1.394,0.261v38.236h-8.101V379.984z"/>
	<path fill="#8C9399" d="M957.946,422.662c-1.859,0.466-4.312,0.958-7.36,1.48c-3.048,0.523-6.575,0.784-10.582,0.784
		c-3.483,0-6.417-0.509-8.797-1.524c-2.382-1.015-4.298-2.452-5.748-4.312c-1.452-1.857-2.497-4.05-3.136-6.575
		c-0.64-2.526-0.958-5.326-0.958-8.405v-25.432h8.1v23.691c0,5.517,0.871,9.465,2.613,11.845c1.742,2.382,4.674,3.571,8.797,3.571
		c0.871,0,1.771-0.029,2.7-0.088c0.928-0.057,1.799-0.13,2.612-0.217c0.813-0.088,1.554-0.175,2.222-0.262
		c0.667-0.087,1.146-0.188,1.437-0.305v-38.236h8.101V422.662z"/>
	<path fill="#8C9399" d="M971.881,379.984c1.857-0.464,4.325-0.958,7.403-1.48c3.077-0.522,6.619-0.784,10.626-0.784
		c3.6,0,6.59,0.509,8.971,1.524c2.381,1.017,4.281,2.439,5.705,4.268c1.422,1.829,2.424,4.021,3.005,6.576
		c0.58,2.556,0.871,5.372,0.871,8.448v25.433h-8.101v-23.69c0-2.787-0.188-5.167-0.565-7.142c-0.379-1.973-1.002-3.571-1.873-4.791
		c-0.871-1.219-2.033-2.104-3.483-2.656c-1.452-0.551-3.253-0.828-5.4-0.828c-0.871,0-1.771,0.03-2.7,0.087
		c-0.93,0.059-1.815,0.13-2.656,0.218c-0.843,0.087-1.598,0.189-2.265,0.305c-0.668,0.117-1.147,0.204-1.437,0.261v38.236h-8.101
		V379.984z"/>
	<path fill="#8C9399" d="M1025.881,370.491c-1.452,0-2.687-0.479-3.702-1.437c-1.017-0.958-1.524-2.25-1.524-3.876
		c0-1.625,0.508-2.917,1.524-3.875c1.016-0.958,2.25-1.438,3.702-1.438c1.45,0,2.685,0.479,3.701,1.438
		c1.016,0.958,1.524,2.251,1.524,3.875c0,1.626-0.509,2.918-1.524,3.876C1028.565,370.012,1027.331,370.491,1025.881,370.491z
		 M1029.975,423.969h-8.101v-45.291h8.101V423.969z"/>
	<path fill="#8C9399" d="M1051.486,378.678h17.158v6.793h-17.158v20.903c0,2.265,0.175,4.137,0.523,5.618
		c0.348,1.48,0.87,2.643,1.567,3.483c0.696,0.843,1.567,1.438,2.613,1.786c1.045,0.348,2.264,0.522,3.657,0.522
		c2.439,0,4.398-0.275,5.88-0.828c1.48-0.551,2.511-0.942,3.092-1.176l1.567,6.707c-0.813,0.406-2.235,0.914-4.268,1.524
		c-2.033,0.609-4.354,0.914-6.968,0.914c-3.078,0-5.618-0.392-7.621-1.176s-3.614-1.96-4.834-3.527s-2.077-3.498-2.569-5.792
		c-0.494-2.293-0.74-4.949-0.74-7.97v-40.413l8.1-1.394V378.678z"/>
	<path fill="#8C9399" d="M1073.608,432.417c0.638,0.29,1.465,0.566,2.481,0.828c1.016,0.261,2.018,0.392,3.005,0.392
		c3.193,0,5.69-0.712,7.491-2.134c1.799-1.424,3.425-3.731,4.877-6.925c-3.658-6.968-7.069-14.355-10.233-22.166
		c-3.166-7.809-5.792-15.721-7.883-23.734h8.71c0.638,2.613,1.407,5.43,2.308,8.448c0.899,3.02,1.901,6.127,3.005,9.319
		c1.103,3.194,2.293,6.388,3.571,9.582c1.276,3.193,2.613,6.271,4.007,9.231c2.206-6.097,4.122-12.135,5.748-18.116
		c1.625-5.979,3.164-12.135,4.616-18.464h8.361c-2.091,8.535-4.413,16.737-6.968,24.605c-2.556,7.868-5.313,15.229-8.274,22.079
		c-1.162,2.613-2.366,4.862-3.614,6.75c-1.249,1.887-2.628,3.44-4.138,4.66c-1.51,1.219-3.209,2.118-5.095,2.699
		c-1.888,0.58-4.021,0.871-6.401,0.871c-0.64,0-1.307-0.043-2.004-0.13c-0.696-0.088-1.38-0.204-2.047-0.349
		c-0.668-0.146-1.277-0.305-1.829-0.479c-0.552-0.174-0.944-0.319-1.176-0.436L1073.608,432.417z"/>
	<path fill="#8C9399" d="M1171.592,357.774l8.101-1.394v66.281c-1.859,0.522-4.239,1.045-7.143,1.568
		c-2.904,0.522-6.242,0.783-10.016,0.783c-3.484,0-6.62-0.553-9.407-1.654c-2.787-1.103-5.168-2.67-7.142-4.703
		c-1.975-2.032-3.499-4.515-4.572-7.447c-1.075-2.932-1.611-6.228-1.611-9.886c0-3.484,0.448-6.676,1.35-9.581
		c0.899-2.903,2.221-5.4,3.963-7.49s3.876-3.715,6.401-4.877c2.526-1.161,5.414-1.742,8.667-1.742c2.612,0,4.921,0.349,6.924,1.045
		s3.497,1.365,4.485,2.003V357.774z M1171.592,388.259c-0.988-0.813-2.41-1.596-4.268-2.352c-1.859-0.754-3.891-1.132-6.097-1.132
		c-2.323,0-4.312,0.422-5.967,1.263c-1.654,0.843-3.005,2.003-4.05,3.484c-1.045,1.481-1.8,3.238-2.265,5.27
		c-0.465,2.033-0.696,4.21-0.696,6.532c0,5.284,1.307,9.363,3.919,12.237c2.613,2.874,6.097,4.312,10.452,4.312
		c2.206,0,4.05-0.101,5.53-0.305c1.48-0.203,2.627-0.421,3.44-0.653V388.259z"/>
	<path fill="#8C9399" d="M1210.349,377.72c0.697,0,1.494,0.044,2.396,0.131c0.899,0.087,1.785,0.204,2.656,0.349
		c0.871,0.146,1.669,0.291,2.396,0.435c0.725,0.146,1.263,0.276,1.611,0.392l-1.394,7.055c-0.64-0.231-1.699-0.508-3.18-0.828
		c-1.48-0.318-3.383-0.479-5.705-0.479c-1.51,0-3.005,0.161-4.485,0.479c-1.48,0.32-2.453,0.538-2.917,0.653v38.062h-8.101v-43.375
		c1.916-0.697,4.297-1.35,7.142-1.96C1203.612,378.025,1206.807,377.72,1210.349,377.72z"/>
	<path fill="#8C9399" d="M1231.252,370.491c-1.452,0-2.687-0.479-3.702-1.437c-1.017-0.958-1.524-2.25-1.524-3.876
		c0-1.625,0.508-2.917,1.524-3.875c1.016-0.958,2.25-1.438,3.702-1.438c1.45,0,2.685,0.479,3.701,1.438
		c1.016,0.958,1.524,2.251,1.524,3.875c0,1.626-0.509,2.918-1.524,3.876C1233.937,370.012,1232.702,370.491,1231.252,370.491z
		 M1235.346,423.969h-8.101v-45.291h8.101V423.969z"/>
	<path fill="#8C9399" d="M1284.641,378.678c-2.265,8.478-4.921,16.607-7.969,24.387c-3.049,7.781-5.996,14.749-8.841,20.903h-7.316
		c-2.846-6.154-5.792-13.122-8.84-20.903c-3.049-7.78-5.705-15.909-7.97-24.387h8.71c0.696,2.845,1.524,5.879,2.482,9.102
		s1.973,6.417,3.048,9.581c1.074,3.166,2.163,6.228,3.267,9.188c1.103,2.962,2.147,5.604,3.136,7.927
		c0.986-2.322,2.031-4.965,3.135-7.927c1.103-2.961,2.191-6.023,3.267-9.188c1.073-3.164,2.09-6.358,3.048-9.581
		s1.786-6.256,2.482-9.102H1284.641z"/>
	<path fill="#8C9399" d="M1289.258,401.41c0-4.006,0.579-7.504,1.741-10.495c1.161-2.99,2.7-5.472,4.616-7.447
		c1.916-1.973,4.122-3.454,6.62-4.442c2.495-0.987,5.051-1.48,7.664-1.48c6.097,0,10.771,1.902,14.022,5.705
		c3.252,3.804,4.878,9.596,4.878,17.376c0,0.349,0,0.799,0,1.35c0,0.553-0.03,1.061-0.087,1.524h-31.007
		c0.349,4.703,1.712,8.274,4.094,10.713c2.38,2.438,6.097,3.658,11.148,3.658c2.844,0,5.239-0.246,7.186-0.74
		c1.944-0.493,3.41-0.972,4.398-1.438l1.132,6.794c-0.988,0.522-2.715,1.075-5.183,1.654c-2.468,0.58-5.269,0.871-8.404,0.871
		c-3.949,0-7.36-0.596-10.234-1.785s-5.24-2.831-7.099-4.921c-1.858-2.091-3.237-4.573-4.137-7.447
		C1289.706,407.986,1289.258,404.838,1289.258,401.41z M1320.352,396.969c0.057-3.658-0.857-6.663-2.744-9.015
		c-1.888-2.352-4.485-3.528-7.795-3.528c-1.859,0-3.499,0.364-4.921,1.089c-1.424,0.727-2.628,1.67-3.614,2.831
		c-0.988,1.163-1.758,2.498-2.309,4.007c-0.553,1.51-0.914,3.048-1.089,4.616H1320.352z"/>
	<path fill="#8C9399" d="M1340.471,379.984c1.857-0.464,4.325-0.958,7.403-1.48c3.077-0.522,6.619-0.784,10.626-0.784
		c3.6,0,6.59,0.509,8.971,1.524c2.381,1.017,4.281,2.439,5.705,4.268c1.422,1.829,2.424,4.021,3.005,6.576
		c0.58,2.556,0.871,5.372,0.871,8.448v25.433h-8.101v-23.69c0-2.787-0.188-5.167-0.565-7.142c-0.379-1.973-1.002-3.571-1.873-4.791
		c-0.871-1.219-2.033-2.104-3.483-2.656c-1.452-0.551-3.253-0.828-5.4-0.828c-0.871,0-1.771,0.03-2.7,0.087
		c-0.93,0.059-1.815,0.13-2.656,0.218c-0.843,0.087-1.598,0.189-2.265,0.305c-0.668,0.117-1.147,0.204-1.437,0.261v38.236h-8.101
		V379.984z"/>
	<path fill="#8C9399" d="M1425.215,377.546c3.251,0,5.994,0.422,8.23,1.263c2.234,0.842,4.035,2.033,5.399,3.571
		c1.364,1.539,2.337,3.368,2.918,5.487c0.58,2.121,0.871,4.457,0.871,7.011v28.307c-0.696,0.117-1.67,0.276-2.918,0.479
		c-1.249,0.204-2.656,0.392-4.224,0.566c-1.568,0.174-3.267,0.333-5.096,0.479c-1.829,0.145-3.645,0.218-5.443,0.218
		c-2.556,0-4.907-0.261-7.055-0.784c-2.149-0.522-4.007-1.35-5.574-2.481c-1.568-1.133-2.787-2.627-3.658-4.486
		c-0.871-1.857-1.307-4.093-1.307-6.706c0-2.496,0.508-4.645,1.524-6.445c1.015-1.799,2.396-3.251,4.137-4.355
		c1.742-1.102,3.774-1.916,6.097-2.438c2.322-0.523,4.761-0.784,7.316-0.784c0.813,0,1.655,0.043,2.526,0.131
		c0.871,0.087,1.698,0.204,2.482,0.348c0.783,0.146,1.465,0.276,2.046,0.392c0.58,0.117,0.987,0.204,1.22,0.261v-2.265
		c0-1.335-0.146-2.656-0.436-3.963c-0.291-1.306-0.813-2.467-1.567-3.484c-0.756-1.015-1.786-1.829-3.092-2.438
		c-1.307-0.61-3.005-0.915-5.096-0.915c-2.671,0-5.008,0.189-7.012,0.566c-2.003,0.378-3.498,0.771-4.485,1.176l-0.958-6.707
		c1.045-0.464,2.787-0.915,5.226-1.35C1419.728,377.764,1422.369,377.546,1425.215,377.546z M1425.911,418.133
		c1.916,0,3.614-0.043,5.096-0.13c1.48-0.088,2.713-0.247,3.701-0.479v-13.5c-0.581-0.29-1.524-0.536-2.831-0.74
		c-1.306-0.203-2.889-0.305-4.746-0.305c-1.22,0-2.513,0.087-3.876,0.262c-1.365,0.174-2.613,0.537-3.745,1.088
		c-1.133,0.553-2.077,1.307-2.831,2.265c-0.755,0.958-1.132,2.221-1.132,3.789c0,2.904,0.928,4.921,2.787,6.053
		C1420.191,417.567,1422.717,418.133,1425.911,418.133z"/>
	<path fill="#8C9399" d="M1495.937,401.41c0,3.428-0.45,6.591-1.35,9.494c-0.901,2.904-2.222,5.399-3.963,7.49
		c-1.742,2.09-3.876,3.717-6.402,4.877c-2.525,1.161-5.415,1.742-8.666,1.742c-2.613,0-4.921-0.348-6.924-1.045
		c-2.004-0.697-3.499-1.363-4.485-2.003v18.116h-8.101v-60.01c1.916-0.464,4.312-0.972,7.186-1.524
		c2.874-0.551,6.197-0.828,9.973-0.828c3.484,0,6.619,0.553,9.406,1.655c2.787,1.104,5.168,2.671,7.143,4.703
		c1.973,2.033,3.497,4.516,4.572,7.447C1495.399,394.458,1495.937,397.752,1495.937,401.41z M1487.488,401.41
		c0-5.283-1.307-9.348-3.92-12.193c-2.612-2.844-6.097-4.268-10.451-4.268c-2.438,0-4.342,0.087-5.705,0.261
		c-1.365,0.174-2.454,0.378-3.266,0.609v28.568c0.986,0.814,2.408,1.598,4.268,2.352c1.857,0.756,3.89,1.133,6.097,1.133
		c2.321,0,4.312-0.421,5.966-1.263c1.655-0.842,3.005-2.004,4.05-3.484c1.046-1.48,1.8-3.223,2.265-5.226
		S1487.488,403.733,1487.488,401.41z"/>
	<path fill="#8C9399" d="M1547.235,401.41c0,3.428-0.45,6.591-1.35,9.494c-0.901,2.904-2.222,5.399-3.963,7.49
		c-1.742,2.09-3.876,3.717-6.402,4.877c-2.525,1.161-5.415,1.742-8.666,1.742c-2.613,0-4.921-0.348-6.924-1.045
		c-2.004-0.697-3.499-1.363-4.485-2.003v18.116h-8.101v-60.01c1.916-0.464,4.312-0.972,7.186-1.524
		c2.874-0.551,6.197-0.828,9.973-0.828c3.484,0,6.619,0.553,9.406,1.655c2.787,1.104,5.168,2.671,7.143,4.703
		c1.973,2.033,3.497,4.516,4.572,7.447C1546.698,394.458,1547.235,397.752,1547.235,401.41z M1538.787,401.41
		c0-5.283-1.307-9.348-3.92-12.193c-2.612-2.844-6.097-4.268-10.451-4.268c-2.438,0-4.342,0.087-5.705,0.261
		c-1.365,0.174-2.454,0.378-3.266,0.609v28.568c0.986,0.814,2.408,1.598,4.268,2.352c1.857,0.756,3.89,1.133,6.097,1.133
		c2.321,0,4.312-0.421,5.966-1.263c1.655-0.842,3.005-2.004,4.05-3.484c1.046-1.48,1.8-3.223,2.265-5.226
		S1538.787,403.733,1538.787,401.41z"/>
	<path fill="#8C9399" d="M1575.367,377.72c0.697,0,1.494,0.044,2.396,0.131c0.899,0.087,1.785,0.204,2.656,0.349
		c0.871,0.146,1.669,0.291,2.396,0.435c0.725,0.146,1.263,0.276,1.611,0.392l-1.394,7.055c-0.64-0.231-1.699-0.508-3.18-0.828
		c-1.48-0.318-3.383-0.479-5.705-0.479c-1.51,0-3.005,0.161-4.485,0.479c-1.48,0.32-2.453,0.538-2.917,0.653v38.062h-8.101v-43.375
		c1.916-0.697,4.297-1.35,7.142-1.96C1568.631,378.025,1571.825,377.72,1575.367,377.72z"/>
	<path fill="#8C9399" d="M1632.24,401.323c0,3.601-0.522,6.853-1.567,9.755c-1.045,2.904-2.513,5.4-4.398,7.49
		c-1.888,2.091-4.138,3.702-6.75,4.834c-2.613,1.133-5.459,1.698-8.536,1.698c-3.078,0-5.922-0.565-8.535-1.698
		c-2.613-1.132-4.864-2.743-6.75-4.834c-1.888-2.09-3.354-4.586-4.398-7.49c-1.045-2.902-1.567-6.154-1.567-9.755
		c0-3.541,0.522-6.778,1.567-9.711c1.045-2.931,2.511-5.443,4.398-7.534c1.886-2.09,4.137-3.702,6.75-4.834s5.457-1.698,8.535-1.698
		c3.077,0,5.923,0.566,8.536,1.698c2.612,1.132,4.862,2.744,6.75,4.834c1.886,2.09,3.354,4.603,4.398,7.534
		C1631.718,394.545,1632.24,397.782,1632.24,401.323z M1623.792,401.323c0-5.109-1.147-9.159-3.44-12.15
		c-2.294-2.99-5.415-4.485-9.363-4.485c-3.949,0-7.069,1.496-9.362,4.485c-2.295,2.991-3.44,7.041-3.44,12.15
		c0,5.11,1.146,9.16,3.44,12.15c2.293,2.991,5.413,4.485,9.362,4.485c3.948,0,7.069-1.494,9.363-4.485
		C1622.645,410.483,1623.792,406.434,1623.792,401.323z"/>
	<path fill="#8C9399" d="M1658.283,377.546c3.251,0,5.994,0.422,8.23,1.263c2.234,0.842,4.035,2.033,5.399,3.571
		c1.364,1.539,2.337,3.368,2.918,5.487c0.58,2.121,0.871,4.457,0.871,7.011v28.307c-0.696,0.117-1.67,0.276-2.918,0.479
		c-1.249,0.204-2.656,0.392-4.224,0.566c-1.568,0.174-3.267,0.333-5.096,0.479c-1.829,0.145-3.645,0.218-5.443,0.218
		c-2.556,0-4.907-0.261-7.055-0.784c-2.149-0.522-4.007-1.35-5.574-2.481c-1.568-1.133-2.787-2.627-3.658-4.486
		c-0.871-1.857-1.307-4.093-1.307-6.706c0-2.496,0.508-4.645,1.524-6.445c1.015-1.799,2.396-3.251,4.137-4.355
		c1.742-1.102,3.774-1.916,6.097-2.438c2.322-0.523,4.761-0.784,7.316-0.784c0.813,0,1.655,0.043,2.526,0.131
		c0.871,0.087,1.698,0.204,2.482,0.348c0.783,0.146,1.465,0.276,2.046,0.392c0.58,0.117,0.987,0.204,1.22,0.261v-2.265
		c0-1.335-0.146-2.656-0.436-3.963c-0.291-1.306-0.813-2.467-1.567-3.484c-0.756-1.015-1.786-1.829-3.092-2.438
		c-1.307-0.61-3.005-0.915-5.096-0.915c-2.671,0-5.008,0.189-7.012,0.566c-2.003,0.378-3.498,0.771-4.485,1.176l-0.958-6.707
		c1.045-0.464,2.787-0.915,5.226-1.35C1652.796,377.764,1655.438,377.546,1658.283,377.546z M1658.979,418.133
		c1.916,0,3.614-0.043,5.096-0.13c1.48-0.088,2.713-0.247,3.701-0.479v-13.5c-0.581-0.29-1.524-0.536-2.831-0.74
		c-1.306-0.203-2.889-0.305-4.746-0.305c-1.22,0-2.513,0.087-3.876,0.262c-1.365,0.174-2.613,0.537-3.745,1.088
		c-1.133,0.553-2.077,1.307-2.831,2.265c-0.755,0.958-1.132,2.221-1.132,3.789c0,2.904,0.928,4.921,2.787,6.053
		C1653.26,417.567,1655.785,418.133,1658.979,418.133z"/>
	<path fill="#8C9399" d="M1708.798,425.014c-3.657,0-6.866-0.581-9.624-1.742c-2.759-1.16-5.081-2.787-6.968-4.877
		c-1.888-2.091-3.296-4.572-4.224-7.447c-0.93-2.874-1.394-6.053-1.394-9.537c0-3.483,0.507-6.676,1.523-9.581
		c1.016-2.903,2.453-5.414,4.312-7.534c1.857-2.119,4.138-3.774,6.837-4.965c2.7-1.189,5.705-1.785,9.015-1.785
		c2.032,0,4.064,0.174,6.098,0.522c2.031,0.348,3.977,0.901,5.835,1.655l-1.829,6.881c-1.219-0.58-2.628-1.045-4.224-1.394
		c-1.598-0.349-3.297-0.522-5.096-0.522c-4.529,0-7.999,1.423-10.408,4.268c-2.41,2.846-3.614,6.998-3.614,12.455
		c0,2.439,0.274,4.675,0.827,6.707c0.551,2.033,1.422,3.775,2.613,5.226c1.189,1.452,2.713,2.569,4.572,3.354
		c1.857,0.784,4.122,1.176,6.794,1.176c2.147,0,4.094-0.203,5.835-0.609c1.742-0.406,3.105-0.842,4.094-1.307l1.133,6.793
		c-0.466,0.292-1.133,0.566-2.004,0.828c-0.871,0.261-1.858,0.492-2.961,0.696c-1.104,0.203-2.279,0.377-3.527,0.522
		C1711.164,424.94,1709.959,425.014,1708.798,425.014z"/>
	<path fill="#8C9399" d="M1729.614,423.969v-66.194l8.101-1.394v23.168c1.509-0.58,3.12-1.03,4.833-1.35
		c1.713-0.319,3.411-0.479,5.096-0.479c3.6,0,6.59,0.509,8.971,1.524c2.381,1.017,4.281,2.439,5.705,4.268
		c1.422,1.829,2.424,4.021,3.005,6.576c0.58,2.556,0.871,5.372,0.871,8.448v25.433h-8.101v-23.69c0-2.787-0.188-5.167-0.565-7.142
		c-0.379-1.973-1.002-3.571-1.873-4.791c-0.871-1.219-2.033-2.104-3.483-2.656c-1.452-0.551-3.253-0.828-5.4-0.828
		c-0.871,0-1.771,0.059-2.7,0.174c-0.93,0.117-1.815,0.248-2.656,0.392c-0.843,0.146-1.598,0.305-2.265,0.479
		c-0.668,0.174-1.147,0.32-1.437,0.436v37.626H1729.614z"/>
	<path fill="#8C9399" d="M1807.043,378.678h17.158v6.793h-17.158v20.903c0,2.265,0.175,4.137,0.523,5.618
		c0.348,1.48,0.87,2.643,1.567,3.483c0.696,0.843,1.567,1.438,2.613,1.786c1.045,0.348,2.264,0.522,3.657,0.522
		c2.439,0,4.398-0.275,5.88-0.828c1.48-0.551,2.511-0.942,3.092-1.176l1.567,6.707c-0.813,0.406-2.235,0.914-4.268,1.524
		c-2.033,0.609-4.354,0.914-6.968,0.914c-3.078,0-5.618-0.392-7.621-1.176s-3.614-1.96-4.834-3.527s-2.077-3.498-2.569-5.792
		c-0.494-2.293-0.74-4.949-0.74-7.97v-40.413l8.1-1.394V378.678z"/>
	<path fill="#8C9399" d="M1873.236,401.323c0,3.601-0.522,6.853-1.567,9.755c-1.045,2.904-2.513,5.4-4.398,7.49
		c-1.888,2.091-4.138,3.702-6.75,4.834c-2.613,1.133-5.459,1.698-8.536,1.698c-3.078,0-5.922-0.565-8.535-1.698
		c-2.613-1.132-4.864-2.743-6.75-4.834c-1.888-2.09-3.354-4.586-4.398-7.49c-1.045-2.902-1.567-6.154-1.567-9.755
		c0-3.541,0.522-6.778,1.567-9.711c1.045-2.931,2.511-5.443,4.398-7.534c1.886-2.09,4.137-3.702,6.75-4.834s5.457-1.698,8.535-1.698
		c3.077,0,5.923,0.566,8.536,1.698c2.612,1.132,4.862,2.744,6.75,4.834c1.886,2.09,3.354,4.603,4.398,7.534
		C1872.714,394.545,1873.236,397.782,1873.236,401.323z M1864.788,401.323c0-5.109-1.147-9.159-3.44-12.15
		c-2.294-2.99-5.415-4.485-9.363-4.485c-3.949,0-7.069,1.496-9.362,4.485c-2.295,2.991-3.44,7.041-3.44,12.15
		c0,5.11,1.146,9.16,3.44,12.15c2.293,2.991,5.413,4.485,9.362,4.485c3.948,0,7.069-1.494,9.363-4.485
		C1863.641,410.483,1864.788,406.434,1864.788,401.323z"/>
	<path fill="#8C9399" d="M1924.448,425.014c-3.657,0-6.866-0.581-9.624-1.742c-2.759-1.16-5.081-2.787-6.968-4.877
		c-1.888-2.091-3.296-4.572-4.224-7.447c-0.93-2.874-1.394-6.053-1.394-9.537c0-3.483,0.507-6.676,1.523-9.581
		c1.016-2.903,2.453-5.414,4.312-7.534c1.857-2.119,4.138-3.774,6.837-4.965c2.7-1.189,5.705-1.785,9.015-1.785
		c2.032,0,4.064,0.174,6.098,0.522c2.031,0.348,3.977,0.901,5.835,1.655l-1.829,6.881c-1.219-0.58-2.628-1.045-4.224-1.394
		c-1.598-0.349-3.297-0.522-5.096-0.522c-4.529,0-7.999,1.423-10.408,4.268c-2.41,2.846-3.614,6.998-3.614,12.455
		c0,2.439,0.274,4.675,0.827,6.707c0.551,2.033,1.422,3.775,2.613,5.226c1.189,1.452,2.713,2.569,4.572,3.354
		c1.857,0.784,4.122,1.176,6.794,1.176c2.147,0,4.094-0.203,5.835-0.609c1.742-0.406,3.105-0.842,4.094-1.307l1.133,6.793
		c-0.466,0.292-1.133,0.566-2.004,0.828c-0.871,0.261-1.858,0.492-2.961,0.696c-1.104,0.203-2.279,0.377-3.527,0.522
		C1926.814,424.94,1925.609,425.014,1924.448,425.014z"/>
	<path fill="#8C9399" d="M1984.111,401.323c0,3.601-0.522,6.853-1.567,9.755c-1.045,2.904-2.513,5.4-4.398,7.49
		c-1.888,2.091-4.138,3.702-6.75,4.834c-2.613,1.133-5.459,1.698-8.536,1.698c-3.078,0-5.922-0.565-8.535-1.698
		c-2.613-1.132-4.864-2.743-6.75-4.834c-1.888-2.09-3.354-4.586-4.398-7.49c-1.045-2.902-1.567-6.154-1.567-9.755
		c0-3.541,0.522-6.778,1.567-9.711c1.045-2.931,2.511-5.443,4.398-7.534c1.886-2.09,4.137-3.702,6.75-4.834s5.457-1.698,8.535-1.698
		c3.077,0,5.923,0.566,8.536,1.698c2.612,1.132,4.862,2.744,6.75,4.834c1.886,2.09,3.354,4.603,4.398,7.534
		C1983.589,394.545,1984.111,397.782,1984.111,401.323z M1975.663,401.323c0-5.109-1.147-9.159-3.44-12.15
		c-2.294-2.99-5.415-4.485-9.363-4.485c-3.949,0-7.069,1.496-9.362,4.485c-2.295,2.991-3.44,7.041-3.44,12.15
		c0,5.11,1.146,9.16,3.44,12.15c2.293,2.991,5.413,4.485,9.362,4.485c3.948,0,7.069-1.494,9.363-4.485
		C1974.516,410.483,1975.663,406.434,1975.663,401.323z"/>
	<path fill="#8C9399" d="M1995.521,379.984c1.857-0.464,4.312-0.958,7.359-1.48c3.049-0.522,6.576-0.784,10.583-0.784
		c2.902,0,5.341,0.392,7.316,1.176c1.973,0.784,3.628,1.931,4.964,3.44c0.406-0.29,1.045-0.697,1.916-1.219s1.945-1.03,3.223-1.524
		c1.276-0.493,2.7-0.928,4.269-1.307c1.567-0.377,3.251-0.566,5.051-0.566c3.484,0,6.328,0.509,8.536,1.524
		c2.206,1.017,3.933,2.454,5.183,4.312c1.247,1.859,2.09,4.065,2.525,6.619c0.436,2.556,0.653,5.343,0.653,8.361v25.433h-8.101
		v-23.69c0-2.67-0.13-4.965-0.392-6.881s-0.755-3.512-1.48-4.791c-0.727-1.276-1.714-2.221-2.962-2.831
		c-1.249-0.609-2.86-0.915-4.833-0.915c-2.73,0-4.98,0.363-6.751,1.089c-1.771,0.727-2.976,1.38-3.614,1.959
		c0.464,1.511,0.813,3.166,1.045,4.965c0.231,1.8,0.349,3.688,0.349,5.661v25.433h-8.1v-23.69c0-2.67-0.146-4.965-0.436-6.881
		c-0.291-1.916-0.799-3.512-1.524-4.791c-0.727-1.276-1.714-2.221-2.961-2.831c-1.25-0.609-2.831-0.915-4.747-0.915
		c-0.813,0-1.685,0.03-2.613,0.087c-0.93,0.059-1.815,0.13-2.656,0.218c-0.843,0.087-1.611,0.189-2.308,0.305
		c-0.697,0.117-1.163,0.204-1.394,0.261v38.236h-8.101V379.984z"/>
	<path fill="#8C9399" d="M2070.512,379.984c1.857-0.464,4.312-0.958,7.359-1.48c3.049-0.522,6.576-0.784,10.583-0.784
		c2.902,0,5.341,0.392,7.316,1.176c1.973,0.784,3.628,1.931,4.964,3.44c0.406-0.29,1.045-0.697,1.916-1.219s1.945-1.03,3.223-1.524
		c1.276-0.493,2.7-0.928,4.269-1.307c1.567-0.377,3.251-0.566,5.051-0.566c3.484,0,6.328,0.509,8.536,1.524
		c2.206,1.017,3.933,2.454,5.183,4.312c1.247,1.859,2.09,4.065,2.525,6.619c0.436,2.556,0.653,5.343,0.653,8.361v25.433h-8.101
		v-23.69c0-2.67-0.13-4.965-0.392-6.881s-0.755-3.512-1.48-4.791c-0.727-1.276-1.714-2.221-2.962-2.831
		c-1.249-0.609-2.86-0.915-4.833-0.915c-2.73,0-4.98,0.363-6.751,1.089c-1.771,0.727-2.976,1.38-3.614,1.959
		c0.464,1.511,0.813,3.166,1.045,4.965c0.231,1.8,0.349,3.688,0.349,5.661v25.433h-8.1v-23.69c0-2.67-0.146-4.965-0.436-6.881
		c-0.291-1.916-0.799-3.512-1.524-4.791c-0.727-1.276-1.714-2.221-2.961-2.831c-1.25-0.609-2.831-0.915-4.747-0.915
		c-0.813,0-1.685,0.03-2.613,0.087c-0.93,0.059-1.815,0.13-2.656,0.218c-0.843,0.087-1.611,0.189-2.308,0.305
		c-0.697,0.117-1.163,0.204-1.394,0.261v38.236h-8.101V379.984z"/>
	<path fill="#8C9399" d="M2142.977,401.41c0-4.006,0.579-7.504,1.741-10.495c1.161-2.99,2.7-5.472,4.616-7.447
		c1.916-1.973,4.122-3.454,6.62-4.442c2.495-0.987,5.051-1.48,7.664-1.48c6.097,0,10.771,1.902,14.022,5.705
		c3.252,3.804,4.878,9.596,4.878,17.376c0,0.349,0,0.799,0,1.35c0,0.553-0.03,1.061-0.087,1.524h-31.007
		c0.349,4.703,1.712,8.274,4.094,10.713c2.38,2.438,6.097,3.658,11.148,3.658c2.844,0,5.239-0.246,7.186-0.74
		c1.944-0.493,3.41-0.972,4.398-1.438l1.132,6.794c-0.988,0.522-2.715,1.075-5.183,1.654c-2.468,0.58-5.269,0.871-8.404,0.871
		c-3.949,0-7.36-0.596-10.234-1.785s-5.24-2.831-7.099-4.921c-1.858-2.091-3.237-4.573-4.137-7.447
		C2143.425,407.986,2142.977,404.838,2142.977,401.41z M2174.07,396.969c0.057-3.658-0.857-6.663-2.744-9.015
		c-1.888-2.352-4.485-3.528-7.795-3.528c-1.859,0-3.499,0.364-4.921,1.089c-1.424,0.727-2.628,1.67-3.614,2.831
		c-0.988,1.163-1.758,2.498-2.309,4.007c-0.553,1.51-0.914,3.048-1.089,4.616H2174.07z"/>
	<path fill="#8C9399" d="M2194.188,379.984c1.857-0.464,4.325-0.958,7.403-1.48c3.077-0.522,6.619-0.784,10.626-0.784
		c3.6,0,6.59,0.509,8.971,1.524c2.381,1.017,4.281,2.439,5.705,4.268c1.422,1.829,2.424,4.021,3.005,6.576
		c0.58,2.556,0.871,5.372,0.871,8.448v25.433h-8.101v-23.69c0-2.787-0.188-5.167-0.565-7.142c-0.379-1.973-1.002-3.571-1.873-4.791
		c-0.871-1.219-2.033-2.104-3.483-2.656c-1.452-0.551-3.253-0.828-5.4-0.828c-0.871,0-1.771,0.03-2.7,0.087
		c-0.93,0.059-1.815,0.13-2.656,0.218c-0.843,0.087-1.598,0.189-2.265,0.305c-0.668,0.117-1.147,0.204-1.437,0.261v38.236h-8.101
		V379.984z"/>
	<path fill="#8C9399" d="M2251.759,378.678h17.158v6.793h-17.158v20.903c0,2.265,0.175,4.137,0.523,5.618
		c0.348,1.48,0.87,2.643,1.567,3.483c0.696,0.843,1.567,1.438,2.613,1.786c1.045,0.348,2.264,0.522,3.657,0.522
		c2.439,0,4.398-0.275,5.88-0.828c1.48-0.551,2.511-0.942,3.092-1.176l1.567,6.707c-0.813,0.406-2.235,0.914-4.268,1.524
		c-2.033,0.609-4.354,0.914-6.968,0.914c-3.078,0-5.618-0.392-7.621-1.176s-3.614-1.96-4.834-3.527s-2.077-3.498-2.569-5.792
		c-0.494-2.293-0.74-4.949-0.74-7.97v-40.413l8.1-1.394V378.678z"/>
	<path fill="#8C9399" d="M2293.827,377.546c3.251,0,5.994,0.422,8.23,1.263c2.234,0.842,4.035,2.033,5.399,3.571
		c1.364,1.539,2.337,3.368,2.918,5.487c0.58,2.121,0.871,4.457,0.871,7.011v28.307c-0.696,0.117-1.67,0.276-2.918,0.479
		c-1.249,0.204-2.656,0.392-4.224,0.566c-1.568,0.174-3.267,0.333-5.096,0.479c-1.829,0.145-3.645,0.218-5.443,0.218
		c-2.556,0-4.907-0.261-7.055-0.784c-2.149-0.522-4.007-1.35-5.574-2.481c-1.568-1.133-2.787-2.627-3.658-4.486
		c-0.871-1.857-1.307-4.093-1.307-6.706c0-2.496,0.508-4.645,1.524-6.445c1.015-1.799,2.396-3.251,4.137-4.355
		c1.742-1.102,3.774-1.916,6.097-2.438c2.322-0.523,4.761-0.784,7.316-0.784c0.813,0,1.655,0.043,2.526,0.131
		c0.871,0.087,1.698,0.204,2.482,0.348c0.783,0.146,1.465,0.276,2.046,0.392c0.58,0.117,0.987,0.204,1.22,0.261v-2.265
		c0-1.335-0.146-2.656-0.436-3.963c-0.291-1.306-0.813-2.467-1.567-3.484c-0.756-1.015-1.786-1.829-3.092-2.438
		c-1.307-0.61-3.005-0.915-5.096-0.915c-2.671,0-5.008,0.189-7.012,0.566c-2.003,0.378-3.498,0.771-4.485,1.176l-0.958-6.707
		c1.045-0.464,2.787-0.915,5.226-1.35C2288.34,377.764,2290.981,377.546,2293.827,377.546z M2294.523,418.133
		c1.916,0,3.614-0.043,5.096-0.13c1.48-0.088,2.713-0.247,3.701-0.479v-13.5c-0.581-0.29-1.524-0.536-2.831-0.74
		c-1.306-0.203-2.889-0.305-4.746-0.305c-1.22,0-2.513,0.087-3.876,0.262c-1.365,0.174-2.613,0.537-3.745,1.088
		c-1.133,0.553-2.077,1.307-2.831,2.265c-0.755,0.958-1.132,2.221-1.132,3.789c0,2.904,0.928,4.921,2.787,6.053
		C2288.804,417.567,2291.329,418.133,2294.523,418.133z"/>
	<path fill="#8C9399" d="M2341.381,377.72c0.697,0,1.494,0.044,2.396,0.131c0.899,0.087,1.785,0.204,2.656,0.349
		c0.871,0.146,1.669,0.291,2.396,0.435c0.725,0.146,1.263,0.276,1.611,0.392l-1.394,7.055c-0.64-0.231-1.699-0.508-3.18-0.828
		c-1.48-0.318-3.383-0.479-5.705-0.479c-1.51,0-3.005,0.161-4.485,0.479c-1.48,0.32-2.453,0.538-2.917,0.653v38.062h-8.101v-43.375
		c1.916-0.697,4.297-1.35,7.142-1.96C2334.645,378.025,2337.839,377.72,2341.381,377.72z"/>
	<path fill="#8C9399" d="M2354.793,432.417c0.638,0.29,1.465,0.566,2.481,0.828c1.016,0.261,2.018,0.392,3.005,0.392
		c3.193,0,5.69-0.712,7.491-2.134c1.799-1.424,3.425-3.731,4.877-6.925c-3.658-6.968-7.069-14.355-10.233-22.166
		c-3.166-7.809-5.792-15.721-7.883-23.734h8.71c0.638,2.613,1.407,5.43,2.308,8.448c0.899,3.02,1.901,6.127,3.005,9.319
		c1.103,3.194,2.293,6.388,3.571,9.582c1.276,3.193,2.613,6.271,4.007,9.231c2.206-6.097,4.122-12.135,5.748-18.116
		c1.625-5.979,3.164-12.135,4.616-18.464h8.361c-2.091,8.535-4.413,16.737-6.968,24.605c-2.556,7.868-5.313,15.229-8.274,22.079
		c-1.162,2.613-2.366,4.862-3.614,6.75c-1.249,1.887-2.628,3.44-4.138,4.66c-1.51,1.219-3.209,2.118-5.095,2.699
		c-1.888,0.58-4.021,0.871-6.401,0.871c-0.64,0-1.307-0.043-2.004-0.13c-0.696-0.088-1.38-0.204-2.047-0.349
		c-0.668-0.146-1.277-0.305-1.829-0.479c-0.552-0.174-0.944-0.319-1.176-0.436L2354.793,432.417z"/>
</g>
</svg>
