<?xml version="1.0" encoding="utf-8"?>
<!-- Generator: Adobe Illustrator 16.0.0, SVG Export Plug-In . SVG Version: 6.00 Build 0)  -->
<!DOCTYPE svg PUBLIC "-//W3C//DTD SVG 1.1//EN" "http://www.w3.org/Graphics/SVG/1.1/DTD/svg11.dtd">
<svg version="1.1" id="Layer_1" xmlns="http://www.w3.org/2000/svg" xmlns:xlink="http://www.w3.org/1999/xlink" x="0px" y="0px"
	 width="2428px" height="511.184px" viewBox="0 0 2428 511.184" enable-background="new 0 0 2428 511.184" xml:space="preserve">
<g>
	<g>
		<g>
			<defs>
				<path id="SVGID_1_" d="M161.648,20.563c-3.697-21.271,172.48-32.949,232.41,0c26.582,66.264,1.52,330.73-13.672,351.545
					c0,0-88.104,83.081-207.346,0C132.029,236.424,152.454,42.693,161.648,20.563z"/>
			</defs>
			<clipPath id="SVGID_2_">
				<use xlink:href="#SVGID_1_"  overflow="visible"/>
			</clipPath>
			<path clip-path="url(#SVGID_2_)" fill="#9D5614" d="M158.23,26.445c-3.697-20.956,172.48-32.46,232.41,0
				c35.697,65.317,1.52,325.829-13.672,346.335c0,0-88.861,91.142-207.346,0C128.611,239.107,143.042,46.952,158.23,26.445z"/>
			<rect x="252.691" y="65.547" clip-path="url(#SVGID_2_)" fill="#BA5D11" width="36" height="333"/>
			<rect x="282.691" y="65.547" clip-path="url(#SVGID_2_)" fill="#D16718" width="32" height="337"/>
			<rect x="226.691" y="58.547" clip-path="url(#SVGID_2_)" fill="#AA5013" width="34" height="344"/>
			<rect x="311.691" y="58.547" clip-path="url(#SVGID_2_)" fill="#AA5013" width="28" height="336"/>
			<rect x="203.691" y="58.547" clip-path="url(#SVGID_2_)" fill="#BA5D11" width="29" height="332"/>
			<rect x="333.691" y="55.547" clip-path="url(#SVGID_2_)" fill="#BA5D11" width="29" height="329"/>
			<rect x="180.691" y="50.547" clip-path="url(#SVGID_2_)" fill="#D16718" width="32" height="334"/>
			<rect x="162.691" y="45.547" clip-path="url(#SVGID_2_)" fill="#AA5013" width="26" height="330"/>
			<rect x="359.691" y="50.547" clip-path="url(#SVGID_2_)" fill="#AA5013" width="26" height="325"/>
			<rect x="143.691" y="45.547" clip-path="url(#SVGID_2_)" fill="#D16718" width="23" height="309"/>
			<rect x="380.691" y="45.547" clip-path="url(#SVGID_2_)" fill="#D16718" width="37" height="317"/>
			<path clip-path="url(#SVGID_2_)" fill="none" d="M159.37,24.167c-3.697-20.956,172.48-32.46,232.409,0
				c35.698,65.317,1.52,325.829-13.671,346.335c0,0-88.861,91.141-207.346,0C129.75,236.829,144.181,44.673,159.37,24.167z"/>
			<path clip-path="url(#SVGID_2_)" fill="#060002" d="M385.703,352.655c24.873-1.329-114.306,88.293-228.992-6.266
				c-1.709,3.038,5.696,26.013,5.696,26.013s127.598,98.356,228.992-1.519C394.057,364.428,385.703,352.655,385.703,352.655z"/>
			<path clip-path="url(#SVGID_2_)" fill="#060002" d="M409.058,303.667c1.898-0.381-126.662,95.889-262.804-2.278
				c-1.709,3.038,7.039,28.86,7.039,28.86s127.189,84.496,259.7-11.05C415.65,312.743,409.058,303.667,409.058,303.667z"/>
			<path clip-path="url(#SVGID_2_)" fill="#060002" d="M424.438,251.642c1.898-0.381-158.073,75.95-284.532-4.368
				c-1.709,3.039-3.703,21.646-3.703,21.646s131.585,85.445,279.404,5.412C418.267,267.875,424.438,251.642,424.438,251.642z"/>
			<path clip-path="url(#SVGID_2_)" fill="#060002" d="M411.906,143.316c1.897-0.381-125.604,71.489-274.563-7.405
				c-1.708,3.038-2.278,20.506-2.278,20.506s160.636,83.736,282.538,1.424C420.26,151.385,411.906,143.316,411.906,143.316z"/>
			<path clip-path="url(#SVGID_2_)" fill="#060002" d="M410.387,78.478c1.898-0.381-151.143,61.6-269.625-11.013
				c-1.709,3.038-4.557,21.646-4.557,21.646s129.497,71.014,277.222,8.734C416.084,91.389,410.387,78.478,410.387,78.478z"/>
			<path clip-path="url(#SVGID_2_)" fill="none" d="M158.23,26.445c-3.697-20.956,172.48-32.46,232.41,0
				c35.697,65.317,1.52,325.829-13.672,346.335c0,0-88.861,91.142-207.346,0C128.611,239.107,143.042,46.952,158.23,26.445z"/>
			<path clip-path="url(#SVGID_2_)" fill="#060002" d="M406.356,26.067c-2.892,1.184-145.037,60.556-263.521-12.058
				c-1.708,3.039-7.771,27.252-7.771,27.252s129.497,71.014,277.221,8.734C414.944,43.54,406.356,26.067,406.356,26.067z"/>
			<path clip-path="url(#SVGID_2_)" fill="none" stroke="#060002" stroke-width="6.8356" stroke-miterlimit="10" d="M393.678,29.987
				c0-7.76-52.837-26.079-118.483-26.079c-65.646,0-113.322,12.81-113.322,20.57c0,7.76,51.854,31.588,117.5,31.588
				C353.288,56.066,393.678,36.689,393.678,29.987z"/>
		</g>
		
			<ellipse fill="#DB833A" stroke="#773D15" stroke-width="1.1393" stroke-miterlimit="10" cx="257.806" cy="228.476" rx="9.954" ry="10.823"/>
	</g>
	<g>
		<g>
			<path fill="#F7D134" d="M444.878,273.309c4.616-6.265-4.946-11.21-10.221-8.243c3.626-1.648,11.869-5.275,7.583-9.892
				c-4.616-4.616-13.848-1.318-12.859,4.946c0-3.957-6.265-4.616-9.231-4.946c2.638-1.648,5.605-10.551,0-8.902
				c1.648-6.924-4.946-8.902-8.573-3.297c-2.637-4.616-12.199-11.54-12.858-2.308c-2.638-0.659-5.935-1.648-8.572,0
				c4.616-8.573-7.913-15.827-11.87-8.243c-1.648-6.265-8.243-4.945-12.529-3.627c-9.232,2.968-0.659,2.638-1.979,8.902
				c-0.989,4.616-7.583-5.275-11.869-4.616c-5.936,0.989-5.275,6.265-4.946,10.551c0.33-7.913-8.243,0.989-8.902,4.616
				c-1.318-3.956-0.329-4.945,1.648-7.913c1.319-1.979,5.936-3.627,2.968-7.254c-5.275-6.265-11.21,1.979-11.54,6.595
				c-9.562-1.319-9.562,4.945-9.232,12.199c-2.308-2.308-6.264-3.956-9.562-1.319c-1.318,0.989-0.659,3.627-2.308,4.616
				c-1.648,1.319-3.627,0.33-4.946,1.319c-7.583,3.956-3.297,13.519,4.287,13.848c-5.936-7.913-11.87,0.989-11.211,7.584
				c-6.924,1.318-9.892,3.297-9.562,11.21l3.957,14.178l144.415-17.805L444.878,273.309z"/>
			<g>
				<path fill="#DDB536" d="M446.159,274.058c4.969-7.988-5.505-13.385-12.251-10.273c-1.739,0.802-0.228,3.348,1.498,2.563
					c4.251-1.935,14.781-8.242,6.723-13.188c-5.718-3.509-14.738-0.647-14.232,6.961c0.972-0.131,1.943-0.263,2.915-0.395
					c-0.67-4.947-6.65-5.582-10.662-6.036c0.35,0.844,0.699,1.689,1.049,2.533c3.769-2.96,6-12.865-1.444-11.382
					c0.608,0.608,1.217,1.217,1.825,1.825c1.415-8.357-6.436-10.939-11.285-4.44c0.854,0,1.708,0,2.563,0
					c-3.657-5.807-14.24-12.255-15.624-1.559c0.626-0.477,1.252-0.954,1.878-1.431c-3.513-0.882-6.358-1.368-9.716,0.149
					c0.677,0.677,1.354,1.354,2.03,2.03c1.927-4.217,1.367-9.261-2.861-11.947c-4.168-2.647-8.887-2.119-11.572,2.206
					c0.904,0.118,1.808,0.236,2.712,0.354c-2.001-5.771-6.978-6.399-12.397-5.206c-2.75,0.605-9.793,2.439-6.413,6.431
					c0.912,1.078,1.467,1.936,1.524,3.406c0.048,1.217-3.464-1.75-3.89-2.082c-1.557-1.216-3.763-3.043-5.897-2.995
					c-6.997,0.157-7.593,6.567-7.165,12.051c0.147,1.882,3.001,1.935,2.968,0c-0.174-9.995-10.496-0.619-11.817,4.222
					c0.954,0,1.908,0,2.861,0c-1.586-5.669,3.152-6.84,5.31-10.971c1.426-2.73-1.38-5.404-3.372-6.788
					c-5.589-3.881-11.097,4.698-11.723,9.186c0.477-0.363,0.954-0.726,1.431-1.089c-9.542-0.975-11.057,5.589-10.716,13.683
					c0.844-0.35,1.689-0.699,2.533-1.049c-3.42-3.016-7.338-4.083-11.36-1.551c-1.245,0.784-1.537,2.433-1.845,3.736
					c-0.299,1.267-5.554,2.067-6.809,3.101c-7.111,5.854-1.358,14.868,6.436,15.711c1.413,0.153,1.791-1.664,1.049-2.533
					c-6.909-8.096-14.082,0.497-13.744,8.633c0.363-0.477,0.727-0.954,1.089-1.431c-6.175,1.264-12.71,5.465-10.598,13.035
					c1.319,4.726,2.638,9.452,3.957,14.178c0.161,0.577,0.785,1.169,1.431,1.089c47.114-5.809,94.229-11.617,141.343-17.426
					c1.003-0.124,3.326-0.018,4.122-0.813C441.322,283.249,443.608,277.989,446.159,274.058c1.045-1.611-1.525-3.097-2.563-1.498
					c-1.498,2.31-2.996,4.619-4.495,6.93c-0.91,1.402-1.819,2.804-2.729,4.206c-1.033,1.593-0.179,0.424,0.449,0.347
					c-2.261,0.278-4.522,0.558-6.784,0.836c-11.964,1.476-23.928,2.95-35.893,4.425c-29.634,3.654-59.269,7.308-88.903,10.961
					c-4.231,0.521-8.462,1.043-12.693,1.565c0.477,0.362,0.954,0.726,1.431,1.089c-1.027-3.679-2.054-7.358-3.081-11.037
					c-0.552-1.978-0.881-3.364-0.792-5.445c0.215-5.001,4.289-6.23,8.44-7.08c0.621-0.127,1.115-0.808,1.089-1.431
					c-0.201-4.826,3.204-12.95,8.678-6.535c0.35-0.844,0.7-1.689,1.049-2.533c-3.076-0.333-5.478-2-6.554-4.94
					c-1.666-4.551,3.161-5.818,6.325-6.689c1.085-0.298,2.328-1.067,2.916-2.07c0.432-0.737,0.61-1.621,0.804-2.438
					c1.018-4.3,6.492-1.113,7.989,0.207c0.914,0.806,2.591,0.325,2.533-1.049c-0.097-2.303-0.207-4.606,0.179-6.891
					c0.674-3.999,4.253-4.164,7.57-3.825c0.587,0.06,1.348-0.493,1.431-1.089c0.319-2.289,1.256-4.202,2.746-5.968
					c0.445-0.383,0.89-0.767,1.334-1.15c2.905-1.497,4.495-0.268,4.77,3.688c-0.625,0.738-1.499,1.341-2.21,1.995
					c-2.999,2.756-3.617,6.292-2.577,10.007c0.395,1.411,2.473,1.423,2.861,0c0.398-1.458,5.924-8.648,5.988-5.011
					c0.989,0,1.979,0,2.968,0c-0.219-2.792-0.916-6.493,1.761-8.442c2.929-2.133,6.504,1.713,8.576,3.314
					c1.614,1.248,4.164,3.003,5.828,0.882c1.651-2.104,0.661-5.478-0.867-7.341c-1.389-1.695,1.295-1.492,3.357-2.099
					c3.714-1.092,8.195-1.621,9.753,2.871c0.418,1.207,2.007,1.489,2.712,0.354c3.97-6.394,12.023,0.802,9.308,6.745
					c-0.637,1.395,0.64,2.658,2.03,2.03c2.658-1.201,4.941-0.475,7.429,0.149c1.026,0.258,1.755-0.476,1.878-1.431
					c0.92-7.116,8.454,0.453,10.093,3.057c0.639,1.015,1.9,0.888,2.563,0c2.649-3.551,6.696-2.778,5.861,2.153
					c-0.194,1.146,0.65,2.059,1.825,1.825c3.103-0.618-0.64,5.791-1.444,6.422c-1.148,0.902-0.054,2.408,1.049,2.533
					c2.629,0.297,7.347,0.51,7.801,3.857c0.225,1.66,3.024,1.261,2.915-0.395c-0.384-5.781,7.596-7.467,10.79-3.288
					c2.185,2.858-6.009,6.161-7.746,6.952c0.5,0.854,0.999,1.708,1.498,2.563c4.046-1.866,11.503,0.889,8.19,6.213
					C442.583,274.189,445.151,275.678,446.159,274.058z"/>
			</g>
		</g>
		<path fill="#D30F0F" stroke="#470205" stroke-width="5.4403" stroke-miterlimit="10" d="M307.222,299.191l-5.77-6.76l-8.243,3.298
			l-4.286-12.2l-8.902,1.154c0,0,31.322,77.979,30.663,139.635c5.853,4.78,14.528,7.975,14.528,7.975L307.222,299.191
			c0,0-0.879-1.211,11.046-4.451c2.485-0.676,8.6-5.191,11.539-5.936c4.22-1.066,7.677,6.584,12.777,5.44
			c2.549-0.571,7.134-6.842,9.892-7.418c2.154-0.451,4.398,6.26,6.677,5.811c3.191-0.629,8.844-8.473,12.268-9.087
			c3.217-0.578,5.957,4.573,9.369,4.018c4.131-0.672,9.949-7.373,14.352-7.995c3.354-0.475,9.964,6.205,13.469,5.77
			c4.179-0.52,5.283-8.146,9.663-8.599c2.979-0.309,11.008,6.398,14.076,6.126c6.272-0.556,7.723-8.029,14.343-8.407
			c-13.848,35.114-15.826,148.866-15.826,148.866L327.664,433.88"/>
		<g>
			<g>
				<path fill="#DDB536" d="M309.095,285.897c1.592-1.354,3.222-2.812,5.212-3.546c2.327-0.859,4.146,0.951,5.547,2.557
					c1.261,1.444,3.351-0.663,2.099-2.098c-1.858-2.128-4.302-4.066-7.311-3.566c-3.009,0.5-5.398,2.642-7.646,4.556
					C305.538,285.042,307.647,287.131,309.095,285.897L309.095,285.897z"/>
			</g>
		</g>
		<g>
			<g>
				<path fill="#DDB536" d="M335.083,270.835c2.064-0.146,5.132,0.16,6.02,2.413c1.133,2.874-4.218,2.915-5.755,3.246
					c-1.199,0.258-1.519,2.176-0.354,2.712c1.522,0.701,4.815,3.223,2.997,5.253c-1.272,1.42,0.819,3.526,2.099,2.098
					c3.153-3.52,0.076-8.221-3.597-9.913c-0.118,0.904-0.236,1.808-0.354,2.712c3.399-0.73,8.902-1.213,7.958-6.209
					c-0.775-4.103-5.297-5.541-9.012-5.279C333.186,268.001,333.172,270.97,335.083,270.835L335.083,270.835z"/>
			</g>
		</g>
		<g>
			<g>
				<path fill="#DDB536" d="M349.321,268.093c3.982-4.673,9.812,1.778,9.996,6.205c0.08,1.906,3.047,1.914,2.968,0
					c-0.287-6.858-9.231-15.146-15.063-8.303C345.989,267.442,348.078,269.552,349.321,268.093L349.321,268.093z"/>
			</g>
		</g>
		<g>
			<g>
				<path fill="#DDB536" d="M380.318,272.431c1.735-0.718,3.756-1.34,5.653-1.012c2.227,0.386,1.676,2.509,1.094,4.133
					c-0.647,1.807,2.221,2.577,2.861,0.789c0.963-2.688,1.033-6.053-1.983-7.391c-2.627-1.167-5.874-0.433-8.415,0.619
					C377.788,270.291,378.55,273.163,380.318,272.431L380.318,272.431z"/>
			</g>
		</g>
		<g>
			<g>
				<path fill="#DDB536" d="M402.435,254.807c3.25-1.617,7.752,4.648,2.548,4.819c-1.335,0.044-1.909,1.564-1.049,2.533
					c1.77,1.995,5.153,6.223,0.519,6.661c-3.656,0.346-7.784-1.25-10.619-3.484c-1.485-1.17-3.601,0.915-2.099,2.099
					c3.911,3.081,9.621,5.303,14.636,4.046c6.398-1.604,2.315-8.429-0.338-11.42c-0.35,0.844-0.7,1.689-1.049,2.533
					c3.839-0.126,6.767-2.886,4.868-6.795c-1.633-3.362-5.417-5.293-8.914-3.554C399.223,253.097,400.727,255.656,402.435,254.807
					L402.435,254.807z"/>
			</g>
		</g>
		<g>
			<g>
				<path fill="#DDB536" d="M416.252,265.786c1.39-1.683,3.99-1.867,6.014-1.583c1.673,0.235,3.927,0.871,2.536,2.751
					c-1.14,1.541,1.438,3.018,2.563,1.498c5.093-6.884-9.405-9.37-13.211-4.765C412.945,265.15,415.032,267.262,416.252,265.786
					L416.252,265.786z"/>
			</g>
		</g>
		<g>
			<g>
				<path fill="#DDB536" d="M366.113,242.734c2.831,5.75,9.045,12.734,16.119,11.946c1.88-0.209,1.9-3.179,0-2.968
					c-6.036,0.673-11.166-5.619-13.557-10.476C367.831,239.52,365.271,241.024,366.113,242.734L366.113,242.734z"/>
			</g>
		</g>
		<g>
			<g>
				<path fill="#DDB536" d="M329.147,255.009c2.354-0.015,4.758-0.252,7.098,0.103c3.198,0.485,4.104,2.628,3.948,5.667
					c-0.098,1.913,2.87,1.904,2.968,0c0.17-3.32-0.77-6.497-4.022-7.907c-3.093-1.342-6.717-0.851-9.991-0.831
					C327.234,252.053,327.233,255.021,329.147,255.009L329.147,255.009z"/>
			</g>
		</g>
		<g>
			<g>
				<path fill="#DDB536" d="M356.844,255.009c3.761,0.322,8.575,1.997,8.738,6.429c0.07,1.908,3.038,1.915,2.968,0
					c-0.23-6.235-6.225-8.927-11.706-9.397C354.936,251.878,354.952,254.847,356.844,255.009L356.844,255.009z"/>
			</g>
		</g>
		<polygon fill="#FFFFFF" points="442.734,280.232 309.045,312.677 286.755,303.313 292.538,321.02 311.524,331.029 
			441.016,302.066 		"/>
		<polygon fill="#FFFFFF" points="435.316,356.892 318.739,384.403 306.161,376.434 308.046,388.555 320.903,400.414 
			433.597,378.725 		"/>
		<polygon fill="#FFFFFF" points="439.768,317.326 314.476,348.483 298.129,340.57 302.139,356.892 314.97,363.815 438.048,339.159 
					"/>
		<polygon fill="#FFFFFF" points="432.844,400.414 323.61,420.441 310.405,411.786 310.684,424.318 327.664,433.88 431.124,422.247 
					"/>
		<path fill="none" stroke="#470205" stroke-width="5.4403" stroke-miterlimit="10" d="M307.222,299.191l-5.77-6.76l-8.243,3.298
			l-4.286-12.2l-8.902,1.154c0,0,31.322,77.979,30.663,139.635c5.853,4.78,14.528,7.975,14.528,7.975L307.222,299.191
			c0,0-0.879-1.211,11.046-4.451c2.485-0.676,8.6-5.191,11.539-5.936c4.22-1.066,7.677,6.584,12.777,5.44
			c2.549-0.571,7.135-6.842,9.892-7.418c2.154-0.451,4.398,6.26,6.677,5.811c3.191-0.629,8.844-8.473,12.268-9.087
			c3.217-0.578,5.957,4.573,9.369,4.018c4.131-0.672,9.949-7.373,14.352-7.995c3.354-0.475,9.964,6.205,13.469,5.77
			c4.179-0.52,5.283-8.146,9.663-8.599c2.979-0.309,11.008,6.398,14.076,6.126c6.272-0.556,7.723-8.029,14.343-8.407
			c-13.848,35.114-15.826,148.866-15.826,148.866L327.664,433.88"/>
	</g>
	<g>
		<path fill="#303843" stroke="#8C9399" stroke-width="10" stroke-miterlimit="10" d="M175.191,221.547
			c117,0,42.5,335.5-122.5,225.064L175.191,221.547z"/>
		<path fill="#303843" stroke="#8C9399" stroke-width="14.7744" stroke-miterlimit="10" d="M146.301,209.88
			c87.313,4.667,51.286,264.532-103.452,231.532C-15.559,419.297,8.862,212.047,146.301,209.88z"/>
		<polygon fill="#8C9399" points="111.191,220.547 106.191,281.547 115.191,284.547 157.191,228.047 168.191,252.047 
			117.691,301.047 117.691,317.547 161.191,327.297 146.941,362.047 112.879,347.547 99.47,356.547 96.473,421.047 68.582,431.047 
			75.641,368.547 65.666,366.547 24.191,422.547 14.691,394.047 61.691,346.547 62.191,332.434 22.191,322.983 35.191,291.547 
			71.191,305.547 81.191,295.047 86.82,228.08 		"/>
		<path fill="#303843" stroke="#8C9399" stroke-width="4" stroke-miterlimit="10" d="M98.359,305.547
			c12.807-3.143,3.667,41-13.333,35S91.026,299.547,98.359,305.547z"/>
		<path fill="#8C9399" stroke="#8C9399" stroke-width="2" stroke-miterlimit="10" d="M26.359,422.214
			c3.912,4.347-0.537,11.521,3.332,14.833c168.656,63,224.399-288.383,87-223.316c6.641-1.8,2.248,3.825,7.5,6.316
			C204.691,206.379,167.478,461.127,26.359,422.214z"/>
		<path fill="#2F3742" stroke="#303843" stroke-width="7.9915" stroke-miterlimit="10" d="M168.191,411.047
			c0,0,54.133-46.489-9,84.972l35.962,10.389c31.567-65.73,33.364-88.406,27.271-94.649c-6.094-6.244-34.063-10.04-34.063-10.04"/>
		<path fill="#626A72" d="M219.443,442.113c-2.156,6.472-8.672,10.134-14.545,8.176l-9.745-3.25
			c-5.875-1.958-8.885-8.79-6.727-15.266l1.628-4.887c2.157-6.474,8.668-10.134,14.541-8.176l9.749,3.251
			c5.873,1.957,8.883,8.792,6.723,15.267L219.443,442.113z"/>
		<path fill="#626A72" d="M206.443,480.113c-2.156,6.472-8.672,10.134-14.545,8.176l-9.745-3.25
			c-5.875-1.958-8.885-8.79-6.727-15.266l1.628-4.887c2.157-6.474,8.668-10.134,14.541-8.176l9.749,3.251
			c5.873,1.957,8.883,8.792,6.723,15.267L206.443,480.113z"/>
	</g>
</g>
<g>
	<path fill="#C8552F" d="M507.695,84.402h197.217v77.906h-37.228v-46.489h-98.245v88.438h94.613v30.509h-94.613v93.705h27.603
		v31.235h-89.347v-31.235h26.15V115.819h-26.15V84.402z"/>
	<path fill="#C8552F" d="M724.161,77.139h61.018v251.333h28.329v31.235h-89.347v-31.235h27.24V108.374h-27.24V77.139z"/>
	<path fill="#C8552F" d="M845.106,171.57h61.381v156.901h28.329v31.235H845.47v-31.235h26.877V202.806h-27.24V171.57z
		 M865.99,104.924c0-3.147,0.636-6.144,1.907-8.989c1.271-2.844,2.965-5.326,5.085-7.446c2.116-2.116,4.63-3.813,7.536-5.084
		c2.905-1.271,5.992-1.907,9.262-1.907c3.146,0,6.143,0.636,8.988,1.907c2.844,1.271,5.326,2.968,7.446,5.084
		c2.116,2.12,3.813,4.603,5.085,7.446c1.271,2.846,1.906,5.842,1.906,8.989c0,3.269-0.636,6.355-1.906,9.261
		c-1.271,2.906-2.969,5.479-5.085,7.719c-2.12,2.241-4.603,3.995-7.446,5.266c-2.846,1.271-5.842,1.907-8.988,1.907
		c-3.27,0-6.356-0.636-9.262-1.907c-2.906-1.271-5.42-3.024-7.536-5.266c-2.12-2.239-3.814-4.813-5.085-7.719
		C866.626,111.279,865.99,108.192,865.99,104.924z"/>
	<path fill="#C8552F" d="M1073.739,328.472h10.715l-37.409-46.489l-36.502,46.489h9.262v31.235h-62.47v-31.235h15.254l57.204-66.646
		l-53.754-59.02h-19.067V171.57h62.47v31.235h-7.082l34.686,44.673l35.048-44.673h-9.079V171.57h62.47v31.235h-16.162l-53.209,61.38
		l56.296,64.286h13.802v31.235h-62.471V328.472z"/>
	<path fill="#C8552F" d="M1268.867,209.07c-2.36-3.569-5.42-6.475-9.171-8.717c-3.754-2.238-7.931-3.873-12.53-4.903
		c-4.603-1.026-9.08-1.543-13.438-1.543c-4.844,0-9.292,0.545-13.348,1.634c-4.058,1.09-7.536,2.665-10.441,4.722
		c-2.905,2.061-5.176,4.571-6.811,7.536c-1.634,2.969-2.451,6.266-2.451,9.897c0,6.297,1.907,11.29,5.721,14.982
		c3.813,3.694,10.197,7.113,19.158,10.26l36.139,12.712c15.495,5.207,26.813,12.289,33.959,21.247
		c7.142,8.961,10.714,19.676,10.714,32.144c0,8.354-1.665,16.012-4.994,22.973c-3.331,6.963-8.053,12.893-14.164,17.796
		c-6.115,4.903-13.47,8.717-22.064,11.441c-8.598,2.724-18.16,4.086-28.692,4.086c-14.65,0-26.576-2.361-35.775-7.083
		c-9.202-4.722-16.284-10.955-21.247-18.704h-18.886v-31.235h37.591c0,5.207,1.117,9.656,3.359,13.348
		c2.238,3.694,5.204,6.69,8.898,8.989c3.691,2.301,7.868,3.995,12.53,5.085c4.659,1.089,9.412,1.634,14.255,1.634
		c4.722,0,9.262-0.573,13.62-1.725c4.358-1.149,8.2-2.844,11.532-5.085c3.328-2.239,5.961-4.932,7.899-8.081
		c1.935-3.147,2.905-6.72,2.905-10.715c0-6.052-1.969-11.196-5.902-15.436c-3.936-4.236-10.623-8.05-20.066-11.441l-35.956-13.438
		c-14.65-5.203-25.515-11.832-32.598-19.885c-7.082-8.05-10.623-18.129-10.623-30.236c0-7.99,1.48-15.373,4.449-22.155
		c2.965-6.778,7.264-12.621,12.894-17.523c5.629-4.903,12.499-8.745,20.611-11.532c8.109-2.783,17.371-4.177,27.784-4.177
		c13.438,0,24.698,1.879,33.777,5.63c9.08,3.754,17.252,10.17,24.517,19.249h17.614v31.235h-37.228
		C1272.408,216.97,1271.229,212.643,1268.867,209.07z"/>
	<path fill="#C8552F" d="M1398.62,171.57h44.129v27.422h-44.492l-0.545,108.596c0,7.386,0.846,13.379,2.543,17.979
		c1.693,4.603,4.418,7.78,8.172,9.534c3.751,1.756,7.99,2.633,12.712,2.633c5.084,0,9.562-0.454,13.438-1.362
		c3.874-0.907,8.11-2.451,12.713-4.63l7.809,22.699c-5.812,3.027-11.926,5.417-18.342,7.174c-6.418,1.753-13.983,2.633-22.7,2.633
		c-8.234,0-15.407-0.999-21.52-2.996c-6.114-1.998-11.259-5.357-15.436-10.079s-7.295-11.046-9.353-18.978
		c-2.06-7.928-3.087-17.824-3.087-29.691l0.545-103.511h-29.964V171.57h30.327v-45.036l33.051-15.618V171.57z"/>
	<path fill="#C8552F" d="M1481.065,171.57h61.381v156.901h28.329v31.235h-89.347v-31.235h26.877V202.806h-27.24V171.57z
		 M1501.949,104.924c0-3.147,0.636-6.144,1.907-8.989c1.271-2.844,2.965-5.326,5.085-7.446c2.116-2.116,4.63-3.813,7.536-5.084
		c2.905-1.271,5.992-1.907,9.262-1.907c3.146,0,6.143,0.636,8.988,1.907c2.844,1.271,5.326,2.968,7.446,5.084
		c2.116,2.12,3.813,4.603,5.085,7.446c1.271,2.846,1.906,5.842,1.906,8.989c0,3.269-0.636,6.355-1.906,9.261
		c-1.271,2.906-2.969,5.479-5.085,7.719c-2.12,2.241-4.603,3.995-7.446,5.266c-2.846,1.271-5.842,1.907-8.988,1.907
		c-3.27,0-6.356-0.636-9.262-1.907c-2.906-1.271-5.42-3.024-7.536-5.266c-2.12-2.239-3.814-4.813-5.085-7.719
		C1502.585,111.279,1501.949,108.192,1501.949,104.924z"/>
	<path fill="#C8552F" d="M1600.376,77.139h61.018v251.333h28.329v31.235h-89.347v-31.235h27.24V108.374h-27.24V77.139z"/>
	<path fill="#C8552F" d="M1721.321,77.139h61.018v251.333h28.329v31.235h-89.347v-31.235h27.24V108.374h-27.24V77.139z"/>
	<path fill="#C8552F" d="M1875.68,269.997c0,5.329,0.392,10.2,1.181,14.618c0.786,4.421,1.907,8.626,3.359,12.621
		c4.478,12.108,11.65,21.22,21.52,27.331c9.866,6.115,21.034,9.171,33.505,9.171c9.807,0,19.341-1.362,28.603-4.086
		c9.261-2.724,18.977-6.991,29.146-12.803l13.619,23.063c-12.349,8.476-24.76,14.771-37.228,18.886
		c-12.471,4.114-25.424,6.175-38.862,6.175c-12.712,0-24.487-2.12-35.32-6.356c-10.837-4.236-20.158-10.532-27.967-18.886
		s-13.923-18.765-18.341-31.235c-4.421-12.468-6.629-26.996-6.629-43.584c0-13.438,1.876-26.119,5.63-38.045
		c3.751-11.923,9.353-22.337,16.798-31.235s16.676-15.949,27.693-21.156c11.016-5.204,23.85-7.809,38.499-7.809
		c14.165,0,25.997,2.151,35.503,6.447c9.503,4.299,17.252,9.987,23.244,17.07c5.993,7.082,10.533,15.163,13.62,24.243
		c3.088,9.08,5.235,18.342,6.447,27.784c0.604,4.603,0.999,9.262,1.18,13.983c0.182,4.722,0.272,9.324,0.272,13.802H1875.68z
		 M1928.525,194.996c-7.871,0-14.741,1.121-20.611,3.36c-5.874,2.241-10.868,5.447-14.982,9.624
		c-4.117,4.177-7.417,9.293-9.897,15.346c-2.482,6.055-4.329,12.834-5.538,20.339h97.519c-0.485-7.02-1.606-13.498-3.359-19.431
		c-1.757-5.931-4.449-11.078-8.081-15.437c-3.633-4.358-8.294-7.746-13.983-10.169
		C1943.898,196.208,1936.879,194.996,1928.525,194.996z"/>
	<path fill="#C8552F" d="M2192.389,211.341h-34.504v-11.623c-3.995,0-8.081,0.758-12.258,2.271c-4.177,1.515-8.081,3.813-11.713,6.9
		s-6.811,7.023-9.534,11.804c-2.724,4.784-4.693,10.442-5.902,16.979v90.8h31.962v31.235h-93.342v-31.235h25.969l0.182-125.666
		h-26.15V171.57h60.109v25.969c2.179-3.873,4.631-7.474,7.354-10.806c2.724-3.328,5.749-6.233,9.08-8.717
		c3.328-2.479,7.02-4.418,11.077-5.811c4.055-1.391,8.444-2.089,13.166-2.089c6.294,0,12.227,0,17.797,0
		c5.567,0,11.137,0.122,16.707,0.363V211.341z"/>
	<path fill="#C8552F" d="M2218.902,171.57h71.368v31.235h-22.337l44.129,120.037l46.126-120.037h-22.155V171.57h71.368v31.235
		h-19.431l-83.717,211.199h25.787v31.235h-75.909v-31.235h22.882l19.976-51.756l-62.833-159.443h-15.254V171.57z"/>
</g>
</svg>
