<?xml version="1.0" encoding="utf-8"?>
<!-- Generator: Adobe Illustrator 16.0.0, SVG Export Plug-In . SVG Version: 6.00 Build 0)  -->
<!DOCTYPE svg PUBLIC "-//W3C//DTD SVG 1.1//EN" "http://www.w3.org/Graphics/SVG/1.1/DTD/svg11.dtd">
<svg version="1.1" id="Layer_1" xmlns="http://www.w3.org/2000/svg" xmlns:xlink="http://www.w3.org/1999/xlink" x="0px" y="0px"
	 width="1256px" height="769px" viewBox="0 0 1256 769" enable-background="new 0 0 1256 769" xml:space="preserve">
<g>
	<defs>
		<path id="SVGID_1_" d="M1257,756.882c0,6.692-3.593,14.118-10.253,14.118H15.568C8.907,771,2,763.574,2,756.882V11.618
			C2,4.925,8.907,1,15.568,1h1231.179c6.66,0,10.253,3.925,10.253,10.618V756.882z"/>
	</defs>
	<clipPath id="SVGID_2_">
		<use xlink:href="#SVGID_1_"  overflow="visible"/>
	</clipPath>
	<path clip-path="url(#SVGID_2_)" fill="#C8552F" stroke="#C8552F" stroke-width="7" stroke-miterlimit="10" d="M1258.5,753.5
		c0,6.627-5.093,12-11.753,12H15.568c-6.661,0-12.068-5.373-12.068-12v-738c0-6.627,5.407-12,12.068-12h1231.179
		c6.66,0,11.753,5.373,11.753,12V753.5z"/>
</g>
<g>
	<defs>
		<path id="SVGID_3_" d="M1257,756.882c0,6.692-3.593,14.118-10.253,14.118H15.568C8.907,771,2,763.574,2,756.882V11.618
			C2,4.925,8.907,1,15.568,1h1231.179c6.66,0,10.253,3.925,10.253,10.618V756.882z"/>
	</defs>
	<clipPath id="SVGID_4_">
		<use xlink:href="#SVGID_3_"  overflow="visible"/>
	</clipPath>
	<path clip-path="url(#SVGID_4_)" fill="#8C9399" stroke="#8C9399" stroke-width="7" stroke-miterlimit="10" d="M1242.5,747.038
		c0,4.674-3.581,8.462-8.277,8.462h-0.076c-4.696,0-8.646-3.788-8.646-8.462V28.962c0-4.673,3.949-8.462,8.646-8.462h0.076
		c4.696,0,8.277,3.789,8.277,8.462V747.038z"/>
</g>
<g>
	<defs>
		<path id="SVGID_5_" d="M1257,756.882c0,6.692-3.593,14.118-10.253,14.118H15.568C8.907,771,2,763.574,2,756.882V11.618
			C2,4.925,8.907,1,15.568,1h1231.179c6.66,0,10.253,3.925,10.253,10.618V756.882z"/>
	</defs>
	<clipPath id="SVGID_6_">
		<use xlink:href="#SVGID_5_"  overflow="visible"/>
	</clipPath>
	<path clip-path="url(#SVGID_6_)" fill="#303843" stroke="#303843" stroke-width="10" stroke-miterlimit="10" d="M1242,394.106
		c0,9.713-3.782,17.586-8.5,17.586l0,0c-4.718,0-8.5-7.873-8.5-17.586V63.085c0-9.712,3.782-17.585,8.5-17.585l0,0
		c4.718,0,8.5,7.874,8.5,17.585V394.106z"/>
</g>
<g>
	<defs>
		<path id="SVGID_7_" d="M1257,756.882c0,6.692-3.593,14.118-10.253,14.118H15.568C8.907,771,2,763.574,2,756.882V11.618
			C2,4.925,8.907,1,15.568,1h1231.179c6.66,0,10.253,3.925,10.253,10.618V756.882z"/>
	</defs>
	<clipPath id="SVGID_8_">
		<use xlink:href="#SVGID_7_"  overflow="visible"/>
	</clipPath>
	
		<line clip-path="url(#SVGID_8_)" fill="none" stroke="#FFFFFF" stroke-width="8.0202" stroke-miterlimit="10" x1="65.396" y1="705" x2="1076.624" y2="706.538"/>
</g>
<g>
	<defs>
		<path id="SVGID_9_" d="M1257,756.882c0,6.692-3.593,14.118-10.253,14.118H15.568C8.907,771,2,763.574,2,756.882V11.618
			C2,4.925,8.907,1,15.568,1h1231.179c6.66,0,10.253,3.925,10.253,10.618V756.882z"/>
	</defs>
	<clipPath id="SVGID_10_">
		<use xlink:href="#SVGID_9_"  overflow="visible"/>
	</clipPath>
	
		<line clip-path="url(#SVGID_10_)" fill="none" stroke="#FFFFFF" stroke-width="8.0202" stroke-miterlimit="10" x1="65.396" y1="582" x2="1076.624" y2="583.538"/>
</g>
<g>
	<defs>
		<path id="SVGID_11_" d="M1257,756.882c0,6.692-3.593,14.118-10.253,14.118H15.568C8.907,771,2,763.574,2,756.882V11.618
			C2,4.925,8.907,1,15.568,1h1231.179c6.66,0,10.253,3.925,10.253,10.618V756.882z"/>
	</defs>
	<clipPath id="SVGID_12_">
		<use xlink:href="#SVGID_11_"  overflow="visible"/>
	</clipPath>
	
		<line clip-path="url(#SVGID_12_)" fill="none" stroke="#FFFFFF" stroke-width="8.0202" stroke-miterlimit="10" x1="65.396" y1="453" x2="1076.624" y2="454.538"/>
</g>
<g>
	<defs>
		<path id="SVGID_13_" d="M1257,756.882c0,6.692-3.593,14.118-10.253,14.118H15.568C8.907,771,2,763.574,2,756.882V11.618
			C2,4.925,8.907,1,15.568,1h1231.179c6.66,0,10.253,3.925,10.253,10.618V756.882z"/>
	</defs>
	<clipPath id="SVGID_14_">
		<use xlink:href="#SVGID_13_"  overflow="visible"/>
	</clipPath>
	
		<line clip-path="url(#SVGID_14_)" fill="none" stroke="#FFFFFF" stroke-width="8.0202" stroke-miterlimit="10" x1="65.396" y1="313" x2="1076.624" y2="314.538"/>
</g>
<g>
	<defs>
		<path id="SVGID_15_" d="M1257,756.882c0,6.692-3.593,14.118-10.253,14.118H15.568C8.907,771,2,763.574,2,756.882V11.618
			C2,4.925,8.907,1,15.568,1h1231.179c6.66,0,10.253,3.925,10.253,10.618V756.882z"/>
	</defs>
	<clipPath id="SVGID_16_">
		<use xlink:href="#SVGID_15_"  overflow="visible"/>
	</clipPath>
	
		<line clip-path="url(#SVGID_16_)" fill="none" stroke="#FFFFFF" stroke-width="8.0202" stroke-miterlimit="10" x1="65.396" y1="168" x2="1076.624" y2="169.538"/>
</g>
<g>
	<defs>
		<path id="SVGID_17_" d="M1257,756.882c0,6.692-3.593,14.118-10.253,14.118H15.568C8.907,771,2,763.574,2,756.882V11.618
			C2,4.925,8.907,1,15.568,1h1231.179c6.66,0,10.253,3.925,10.253,10.618V756.882z"/>
	</defs>
	<clipPath id="SVGID_18_">
		<use xlink:href="#SVGID_17_"  overflow="visible"/>
	</clipPath>
	<g clip-path="url(#SVGID_18_)">
		<g enable-background="new    ">
			<path fill="#FFFFFF" d="M69.596,76.672h19.387c2.383,0,4.652,0.31,6.806,0.928c2.153,0.619,4.159,1.49,6.015,2.612
				c1.856,1.123,3.541,2.47,5.053,4.039c1.512,1.57,2.801,3.317,3.867,5.242c1.066,1.925,1.885,3.993,2.458,6.204
				c0.572,2.212,0.859,4.509,0.859,6.893c0,2.429-0.287,4.755-0.859,6.978c-0.573,2.223-1.392,4.309-2.458,6.256
				c-1.065,1.948-2.354,3.719-3.867,5.311c-1.513,1.594-3.197,2.956-5.053,4.091c-1.856,1.134-3.862,2.011-6.015,2.63
				c-2.154,0.618-4.423,0.928-6.806,0.928H69.596v-5.912h4.95V82.618h-4.95V76.672z M81.283,82.618v40.252h8.112
				c2.406,0,4.669-0.527,6.789-1.581s3.97-2.492,5.551-4.314c1.582-1.821,2.83-3.964,3.747-6.428
				c0.916-2.463,1.375-5.115,1.375-7.957c0-2.796-0.459-5.408-1.375-7.838c-0.917-2.429-2.166-4.542-3.747-6.342
				c-1.581-1.799-3.432-3.214-5.551-4.245s-4.382-1.547-6.789-1.547H81.283z"/>
			<path fill="#FFFFFF" d="M145.528,100.699h-6.531v-2.2c-0.756,0-1.529,0.144-2.32,0.43c-0.791,0.287-1.529,0.722-2.217,1.306
				c-0.688,0.585-1.289,1.33-1.805,2.234c-0.516,0.906-0.888,1.977-1.117,3.214v17.188h6.05v5.912h-17.668v-5.912h4.916
				l0.034-23.787h-4.95v-5.912h11.377v4.916c0.413-0.733,0.876-1.415,1.392-2.046c0.516-0.63,1.088-1.18,1.719-1.649
				c0.63-0.47,1.329-0.837,2.097-1.101c0.768-0.263,1.599-0.395,2.492-0.395c1.191,0,2.314,0,3.369,0
				c1.054,0,2.108,0.022,3.163,0.068V100.699z"/>
			<path fill="#FFFFFF" d="M152.643,93.171h11.618v29.699h5.362v5.912h-16.912v-5.912h5.087V99.083h-5.156V93.171z M156.596,80.556
				c0-0.596,0.121-1.162,0.361-1.701c0.241-0.538,0.562-1.008,0.963-1.409c0.4-0.401,0.876-0.722,1.426-0.963
				c0.55-0.24,1.134-0.36,1.753-0.36c0.596,0,1.163,0.12,1.702,0.36c0.538,0.241,1.008,0.562,1.409,0.963s0.722,0.871,0.962,1.409
				c0.241,0.539,0.361,1.105,0.361,1.701c0,0.619-0.121,1.203-0.361,1.753c-0.24,0.551-0.562,1.037-0.962,1.461
				c-0.401,0.425-0.871,0.757-1.409,0.997c-0.539,0.24-1.106,0.361-1.702,0.361c-0.619,0-1.203-0.121-1.753-0.361
				s-1.026-0.572-1.426-0.997c-0.401-0.424-0.722-0.91-0.963-1.461C156.716,81.759,156.596,81.175,156.596,80.556z"/>
			<path fill="#FFFFFF" d="M198.944,122.87h5.019v-16.259c0-2.727-0.693-4.795-2.08-6.205c-1.387-1.409-3.375-2.113-5.964-2.113
				c-1.49,0-2.991,0.355-4.503,1.065c-1.513,0.711-2.945,1.593-4.297,2.646v20.865h5.019v5.912h-16.637v-5.912h4.95V99.083h-4.95
				v-5.912h11.343v4.193h0.069c0.756-0.664,1.564-1.294,2.423-1.891c0.859-0.595,1.758-1.11,2.698-1.546
				c0.939-0.436,1.919-0.779,2.939-1.031c1.02-0.252,2.091-0.379,3.214-0.379c1.902,0,3.621,0.264,5.156,0.791
				c1.535,0.527,2.841,1.329,3.918,2.406c1.077,1.077,1.908,2.458,2.492,4.142c0.584,1.685,0.876,3.673,0.876,5.964v17.05h4.95
				v5.912h-16.637V122.87z"/>
			<path fill="#FFFFFF" d="M222.181,75.297h12.546v5.912h-0.069v26.605h6.187l8.456-8.731h-2.131v-5.912h13.509v5.912h-4.503
				l-10.828,11.172l11.825,12.615h4.297v5.912h-7.528l-14.575-15.915h-4.709v10.003h2.956v5.912h-15.228v-5.912h5.844V81.209h-6.05
				V75.297z"/>
			<path fill="#FFFFFF" d="M266.386,93.171h11.618v29.699h5.362v5.912h-16.912v-5.912h5.087V99.083h-5.156V93.171z M270.338,80.556
				c0-0.596,0.121-1.162,0.361-1.701c0.241-0.538,0.562-1.008,0.963-1.409c0.4-0.401,0.876-0.722,1.426-0.963
				c0.55-0.24,1.134-0.36,1.753-0.36c0.596,0,1.163,0.12,1.702,0.36c0.538,0.241,1.008,0.562,1.409,0.963s0.722,0.871,0.962,1.409
				c0.241,0.539,0.361,1.105,0.361,1.701c0,0.619-0.121,1.203-0.361,1.753c-0.24,0.551-0.562,1.037-0.962,1.461
				c-0.401,0.425-0.871,0.757-1.409,0.997c-0.539,0.24-1.106,0.361-1.702,0.361c-0.619,0-1.203-0.121-1.753-0.361
				s-1.026-0.572-1.426-0.997c-0.401-0.424-0.722-0.91-0.963-1.461C270.459,81.759,270.338,81.175,270.338,80.556z"/>
			<path fill="#FFFFFF" d="M312.687,122.87h5.019v-16.259c0-2.727-0.693-4.795-2.08-6.205c-1.387-1.409-3.375-2.113-5.964-2.113
				c-1.49,0-2.991,0.355-4.503,1.065c-1.513,0.711-2.945,1.593-4.297,2.646v20.865h5.019v5.912h-16.637v-5.912h4.95V99.083h-4.95
				v-5.912h11.343v4.193h0.069c0.756-0.664,1.564-1.294,2.423-1.891c0.859-0.595,1.758-1.11,2.698-1.546
				c0.939-0.436,1.919-0.779,2.939-1.031c1.02-0.252,2.091-0.379,3.214-0.379c1.902,0,3.621,0.264,5.156,0.791
				c1.535,0.527,2.841,1.329,3.918,2.406c1.077,1.077,1.908,2.458,2.492,4.142c0.584,1.685,0.876,3.673,0.876,5.964v17.05h4.95
				v5.912h-16.637V122.87z"/>
			<path fill="#FFFFFF" d="M362.254,125.654c-1.169,1.237-2.526,2.2-4.073,2.888s-3.306,1.031-5.276,1.031
				c-2.406,0-4.646-0.419-6.72-1.255c-2.074-0.837-3.873-2.063-5.396-3.678c-1.524-1.616-2.716-3.598-3.575-5.947
				c-0.859-2.349-1.289-5.035-1.289-8.061c0-2.75,0.412-5.253,1.237-7.511c0.825-2.257,1.994-4.182,3.506-5.774
				c1.513-1.593,3.334-2.83,5.466-3.713c2.131-0.882,4.503-1.323,7.115-1.323c1.788,0,3.397,0.201,4.83,0.602
				c1.432,0.401,2.824,1.095,4.176,2.08v-1.822h6.394v34.202c0,5.637-1.335,9.899-4.004,12.787c-2.67,2.887-6.823,4.331-12.46,4.331
				c-1.238,0-2.533-0.092-3.884-0.275c-1.353-0.184-2.687-0.476-4.005-0.876c-1.318-0.401-2.601-0.911-3.85-1.53
				c-1.25-0.618-2.401-1.375-3.455-2.269l3.438-5.19c0.688,0.596,1.472,1.146,2.354,1.65c0.882,0.504,1.827,0.934,2.836,1.289
				c1.008,0.354,2.05,0.636,3.128,0.842c1.077,0.206,2.154,0.31,3.231,0.31c1.765,0,3.294-0.184,4.589-0.55
				c1.294-0.367,2.36-1.015,3.197-1.942c0.836-0.928,1.461-2.183,1.874-3.764s0.619-3.587,0.619-6.016V125.654z M353.729,124.004
				c1.054,0,2.017-0.103,2.888-0.309c0.871-0.207,1.661-0.476,2.372-0.809c0.71-0.331,1.335-0.716,1.874-1.151
				c0.538-0.435,1.002-0.894,1.392-1.375v-19.489c-1.169-1.031-2.515-1.776-4.039-2.234s-3.088-0.688-4.692-0.688
				c-1.512,0-2.934,0.28-4.262,0.842c-1.33,0.562-2.492,1.381-3.489,2.458c-0.997,1.077-1.782,2.395-2.354,3.953
				s-0.859,3.346-0.859,5.362c0,2.199,0.275,4.137,0.825,5.809c0.55,1.673,1.317,3.077,2.303,4.211
				c0.985,1.135,2.166,1.988,3.541,2.561C350.601,123.718,352.102,124.004,353.729,124.004z"/>
			<path fill="#FFFFFF" d="M404.98,122.87h4.778V82.309h-11.893v8.112h-7.047V76.672h46.474v13.749h-7.047v-8.112h-13.75v40.562
				h5.362v5.912H404.98V122.87z"/>
			<path fill="#FFFFFF" d="M467.747,100.699h-6.531v-2.2c-0.756,0-1.529,0.144-2.32,0.43c-0.791,0.287-1.529,0.722-2.217,1.306
				c-0.688,0.585-1.289,1.33-1.805,2.234c-0.516,0.906-0.888,1.977-1.117,3.214v17.188h6.05v5.912h-17.668v-5.912h4.916
				l0.034-23.787h-4.95v-5.912h11.377v4.916c0.413-0.733,0.876-1.415,1.392-2.046c0.516-0.63,1.088-1.18,1.719-1.649
				c0.63-0.47,1.329-0.837,2.097-1.101c0.768-0.263,1.599-0.395,2.492-0.395c1.191,0,2.314,0,3.369,0
				c1.054,0,2.108,0.022,3.163,0.068V100.699z"/>
			<path fill="#FFFFFF" d="M496.071,125.482c-1.353,1.261-2.848,2.292-4.486,3.094c-1.639,0.802-3.501,1.203-5.586,1.203
				c-1.742,0-3.34-0.275-4.795-0.825c-1.456-0.55-2.71-1.301-3.764-2.252c-1.054-0.95-1.873-2.056-2.458-3.316
				c-0.584-1.26-0.876-2.601-0.876-4.021c0-1.513,0.223-2.854,0.67-4.022c0.447-1.168,1.042-2.183,1.787-3.042
				s1.616-1.581,2.612-2.165c0.997-0.585,2.04-1.054,3.128-1.409c1.088-0.355,2.2-0.607,3.334-0.757
				c1.134-0.148,2.217-0.224,3.249-0.224c1.65,0,3.036,0.052,4.159,0.155c1.123,0.103,2.143,0.246,3.059,0.43l0.035-2.922
				c0-1.26-0.184-2.354-0.55-3.283c-0.367-0.928-0.882-1.695-1.547-2.303c-0.665-0.606-1.461-1.06-2.389-1.357
				c-0.928-0.298-1.965-0.447-3.111-0.447c-1.078,0-2.109,0.075-3.094,0.224c-0.985,0.149-1.908,0.344-2.767,0.584
				c-0.859,0.241-1.65,0.516-2.372,0.825c-0.722,0.31-1.335,0.636-1.839,0.979l-2.097-4.434c0.848-0.551,1.776-1.06,2.784-1.53
				c1.008-0.469,2.068-0.87,3.18-1.203c1.111-0.332,2.246-0.596,3.403-0.79s2.297-0.292,3.42-0.292c2.063,0,3.918,0.246,5.568,0.738
				c1.65,0.493,3.047,1.255,4.194,2.286c1.146,1.031,2.028,2.344,2.646,3.936c0.619,1.594,0.928,3.501,0.928,5.724l-0.034,17.806
				h3.953v5.912h-10.346V125.482z M487.409,124.417c0.847,0,1.695-0.104,2.543-0.31c0.848-0.206,1.65-0.486,2.406-0.842
				s1.455-0.768,2.097-1.238c0.641-0.469,1.18-0.956,1.616-1.46l0.034-8.044h-7.425c-1.237,0-2.366,0.138-3.386,0.412
				c-1.02,0.275-1.902,0.677-2.646,1.203c-0.745,0.527-1.324,1.181-1.736,1.96c-0.413,0.779-0.619,1.673-0.619,2.681
				c0,0.94,0.172,1.759,0.516,2.458s0.831,1.283,1.461,1.753c0.63,0.47,1.38,0.825,2.251,1.065
				C485.392,124.297,486.354,124.417,487.409,124.417z"/>
			<path fill="#FFFFFF" d="M539.348,102.658c-0.962-1.719-2.183-2.979-3.661-3.781c-1.478-0.802-3.191-1.203-5.139-1.203
				c-1.49,0-2.887,0.31-4.193,0.929c-1.306,0.618-2.447,1.501-3.42,2.646c-0.974,1.146-1.742,2.538-2.303,4.176
				c-0.562,1.639-0.842,3.467-0.842,5.483c0,1.993,0.28,3.793,0.842,5.396c0.561,1.604,1.334,2.974,2.32,4.107
				c0.985,1.135,2.125,2.006,3.42,2.612c1.294,0.607,2.687,0.911,4.176,0.911c2.2,0,4.113-0.533,5.741-1.599
				c1.626-1.065,2.921-2.629,3.884-4.691l5.293,2.612c-0.688,1.467-1.536,2.784-2.544,3.953c-1.008,1.168-2.148,2.165-3.42,2.99
				c-1.272,0.825-2.67,1.461-4.194,1.907c-1.524,0.447-3.134,0.671-4.83,0.671c-2.475,0-4.761-0.464-6.857-1.393
				c-2.097-0.928-3.907-2.229-5.431-3.901c-1.524-1.672-2.71-3.666-3.558-5.98c-0.848-2.314-1.271-4.847-1.271-7.597
				s0.447-5.282,1.34-7.597s2.119-4.303,3.678-5.964c1.558-1.661,3.38-2.962,5.465-3.901c2.085-0.939,4.319-1.409,6.703-1.409
				c2.246,0,4.371,0.39,6.376,1.168c2.005,0.779,3.764,1.96,5.276,3.541h3.609v5.912H539.348z"/>
			<path fill="#FFFFFF" d="M551.791,75.297h12.546v5.912h-0.069v26.605h6.187l8.456-8.731h-2.131v-5.912h13.509v5.912h-4.503
				l-10.828,11.172l11.825,12.615h4.297v5.912h-7.528l-14.575-15.915h-4.709v10.003h2.956v5.912h-15.228v-5.912h5.844V81.209h-6.05
				V75.297z"/>
			<path fill="#FFFFFF" d="M596.133,97.605c0-0.596,0.121-1.163,0.361-1.702c0.241-0.538,0.567-1.008,0.98-1.409
				c0.412-0.4,0.888-0.722,1.426-0.962c0.538-0.241,1.117-0.361,1.736-0.361c0.596,0,1.163,0.12,1.702,0.361
				c0.538,0.24,1.008,0.562,1.409,0.962c0.401,0.401,0.722,0.871,0.962,1.409c0.241,0.539,0.361,1.106,0.361,1.702
				c0,0.618-0.12,1.203-0.361,1.753c-0.24,0.55-0.562,1.031-0.962,1.443c-0.401,0.413-0.871,0.745-1.409,0.997
				c-0.539,0.253-1.106,0.378-1.702,0.378c-0.619,0-1.198-0.125-1.736-0.378c-0.539-0.252-1.014-0.584-1.426-0.997
				c-0.413-0.412-0.739-0.894-0.98-1.443C596.253,98.809,596.133,98.224,596.133,97.605z M596.133,124.623
				c0-0.596,0.121-1.163,0.361-1.701c0.241-0.538,0.567-1.009,0.98-1.41c0.412-0.4,0.888-0.722,1.426-0.962
				c0.538-0.24,1.117-0.361,1.736-0.361c0.596,0,1.163,0.121,1.702,0.361c0.538,0.24,1.008,0.562,1.409,0.962
				c0.401,0.401,0.722,0.872,0.962,1.41c0.241,0.538,0.361,1.105,0.361,1.701c0,0.619-0.12,1.203-0.361,1.753
				c-0.24,0.55-0.562,1.037-0.962,1.461c-0.401,0.425-0.871,0.756-1.409,0.997c-0.539,0.24-1.106,0.36-1.702,0.36
				c-0.619,0-1.198-0.12-1.736-0.36c-0.539-0.241-1.014-0.572-1.426-0.997c-0.413-0.424-0.739-0.911-0.98-1.461
				C596.253,125.826,596.133,125.242,596.133,124.623z"/>
			<path fill="#FFFFFF" d="M631.16,76.672h37.329v14.746h-7.046v-8.8h-18.597V99.29h15.64v5.912h-15.64v17.668h18.597v-8.8h7.046
				v14.712H631.16v-5.912h4.949V82.618h-4.949V76.672z"/>
			<path fill="#FFFFFF" d="M694.82,125.482c-1.354,1.261-2.848,2.292-4.486,3.094s-3.501,1.203-5.586,1.203
				c-1.742,0-3.34-0.275-4.795-0.825s-2.711-1.301-3.764-2.252c-1.055-0.95-1.873-2.056-2.458-3.316
				c-0.585-1.26-0.876-2.601-0.876-4.021c0-1.513,0.223-2.854,0.67-4.022c0.447-1.168,1.043-2.183,1.787-3.042
				s1.615-1.581,2.612-2.165c0.997-0.585,2.04-1.054,3.128-1.409s2.2-0.607,3.334-0.757c1.135-0.148,2.218-0.224,3.249-0.224
				c1.649,0,3.036,0.052,4.159,0.155c1.123,0.103,2.143,0.246,3.059,0.43l0.035-2.922c0-1.26-0.184-2.354-0.551-3.283
				c-0.366-0.928-0.882-1.695-1.547-2.303c-0.664-0.606-1.461-1.06-2.389-1.357s-1.965-0.447-3.11-0.447
				c-1.077,0-2.108,0.075-3.094,0.224c-0.985,0.149-1.907,0.344-2.767,0.584c-0.859,0.241-1.65,0.516-2.372,0.825
				s-1.335,0.636-1.839,0.979l-2.098-4.434c0.848-0.551,1.776-1.06,2.785-1.53c1.008-0.469,2.067-0.87,3.18-1.203
				c1.111-0.332,2.245-0.596,3.402-0.79s2.297-0.292,3.42-0.292c2.063,0,3.919,0.246,5.568,0.738
				c1.65,0.493,3.048,1.255,4.194,2.286c1.146,1.031,2.028,2.344,2.646,3.936c0.618,1.594,0.929,3.501,0.929,5.724l-0.035,17.806
				h3.953v5.912H694.82V125.482z M686.158,124.417c0.847,0,1.695-0.104,2.543-0.31s1.65-0.486,2.406-0.842s1.455-0.768,2.097-1.238
				c0.642-0.469,1.181-0.956,1.616-1.46l0.033-8.044h-7.424c-1.238,0-2.367,0.138-3.387,0.412c-1.02,0.275-1.902,0.677-2.646,1.203
				c-0.744,0.527-1.323,1.181-1.735,1.96c-0.413,0.779-0.619,1.673-0.619,2.681c0,0.94,0.172,1.759,0.516,2.458
				s0.831,1.283,1.461,1.753s1.38,0.825,2.251,1.065C684.141,124.297,685.104,124.417,686.158,124.417z"/>
			<path fill="#FFFFFF" d="M732.27,100.27c-0.446-0.676-1.025-1.226-1.735-1.65c-0.711-0.424-1.501-0.733-2.372-0.928
				s-1.719-0.292-2.544-0.292c-0.916,0-1.759,0.103-2.526,0.309c-0.768,0.207-1.426,0.505-1.977,0.895
				c-0.55,0.39-0.979,0.865-1.289,1.426c-0.309,0.563-0.464,1.187-0.464,1.874c0,1.191,0.361,2.137,1.083,2.836
				s1.931,1.346,3.626,1.941l6.841,2.406c2.933,0.985,5.075,2.326,6.428,4.021c1.352,1.696,2.028,3.725,2.028,6.085
				c0,1.581-0.315,3.03-0.945,4.348c-0.631,1.318-1.524,2.44-2.682,3.369c-1.157,0.928-2.549,1.649-4.176,2.165
				c-1.628,0.516-3.438,0.773-5.432,0.773c-2.772,0-5.03-0.446-6.771-1.341c-1.741-0.894-3.082-2.073-4.021-3.54h-3.575v-5.912
				h7.115c0,0.985,0.212,1.827,0.637,2.526c0.424,0.699,0.984,1.267,1.684,1.701c0.699,0.436,1.489,0.757,2.372,0.963
				c0.882,0.206,1.781,0.31,2.698,0.31c0.894,0,1.753-0.109,2.578-0.327s1.552-0.538,2.183-0.962c0.63-0.424,1.129-0.934,1.495-1.53
				c0.366-0.596,0.55-1.271,0.55-2.027c0-1.146-0.372-2.12-1.116-2.922c-0.745-0.802-2.012-1.524-3.799-2.166l-6.806-2.544
				c-2.773-0.984-4.83-2.239-6.17-3.764c-1.341-1.523-2.012-3.432-2.012-5.723c0-1.513,0.281-2.91,0.843-4.194
				c0.562-1.283,1.375-2.389,2.44-3.316c1.065-0.929,2.366-1.655,3.901-2.183s3.288-0.791,5.259-0.791
				c2.544,0,4.675,0.355,6.394,1.065c1.719,0.711,3.266,1.925,4.641,3.644h3.334v5.912h-7.046
				C732.94,101.765,732.717,100.945,732.27,100.27z"/>
			<path fill="#FFFFFF" d="M744.146,93.171h13.509v5.912h-4.228l8.353,22.722l8.731-22.722h-4.194v-5.912h13.509v5.912h-3.678
				l-15.846,39.977h4.881v5.913h-14.368v-5.913h4.331l3.781-9.796l-11.894-30.181h-2.888V93.171z"/>
		</g>
	</g>
</g>
<g>
	<defs>
		<path id="SVGID_19_" d="M1257,756.882c0,6.692-3.593,14.118-10.253,14.118H15.568C8.907,771,2,763.574,2,756.882V11.618
			C2,4.925,8.907,1,15.568,1h1231.179c6.66,0,10.253,3.925,10.253,10.618V756.882z"/>
	</defs>
	<clipPath id="SVGID_20_">
		<use xlink:href="#SVGID_19_"  overflow="visible"/>
	</clipPath>
	<g clip-path="url(#SVGID_20_)">
		<g enable-background="new    ">
			<path fill="#FFFFFF" d="M71.519,213.903h19.387c2.383,0,4.652,0.31,6.806,0.928c2.153,0.619,4.159,1.49,6.015,2.612
				c1.856,1.123,3.541,2.47,5.053,4.039c1.512,1.57,2.801,3.317,3.867,5.242c1.066,1.925,1.885,3.993,2.458,6.204
				c0.572,2.212,0.859,4.509,0.859,6.893c0,2.429-0.287,4.755-0.859,6.978c-0.573,2.223-1.392,4.309-2.458,6.256
				c-1.065,1.948-2.354,3.719-3.867,5.311c-1.513,1.594-3.197,2.956-5.053,4.091c-1.856,1.134-3.862,2.011-6.015,2.63
				c-2.154,0.618-4.423,0.928-6.806,0.928H71.519v-5.912h4.95V219.85h-4.95V213.903z M83.206,219.85v40.252h8.112
				c2.406,0,4.669-0.527,6.789-1.581s3.97-2.492,5.551-4.314c1.582-1.821,2.83-3.964,3.747-6.428
				c0.916-2.463,1.375-5.115,1.375-7.957c0-2.796-0.459-5.408-1.375-7.838c-0.917-2.429-2.166-4.542-3.747-6.342
				c-1.581-1.799-3.432-3.214-5.551-4.245s-4.382-1.547-6.789-1.547H83.206z"/>
			<path fill="#FFFFFF" d="M147.451,237.931h-6.531v-2.2c-0.756,0-1.529,0.144-2.32,0.43c-0.791,0.287-1.529,0.722-2.217,1.306
				c-0.688,0.585-1.289,1.33-1.805,2.234c-0.516,0.906-0.888,1.977-1.117,3.214v17.188h6.05v5.912h-17.668v-5.912h4.916
				l0.034-23.787h-4.95v-5.912h11.377v4.916c0.413-0.733,0.876-1.415,1.392-2.046c0.516-0.63,1.088-1.18,1.719-1.649
				c0.63-0.47,1.329-0.837,2.097-1.101c0.768-0.263,1.599-0.395,2.492-0.395c1.191,0,2.314,0,3.369,0
				c1.054,0,2.108,0.022,3.163,0.068V237.931z"/>
			<path fill="#FFFFFF" d="M154.566,230.402h11.618v29.699h5.362v5.912h-16.912v-5.912h5.087v-23.787h-5.156V230.402z
				 M158.519,217.787c0-0.596,0.121-1.162,0.361-1.701c0.241-0.538,0.562-1.008,0.963-1.409c0.4-0.401,0.876-0.722,1.426-0.963
				c0.55-0.24,1.134-0.36,1.753-0.36c0.596,0,1.163,0.12,1.702,0.36c0.538,0.241,1.008,0.562,1.409,0.963s0.722,0.871,0.962,1.409
				c0.241,0.539,0.361,1.105,0.361,1.701c0,0.619-0.121,1.203-0.361,1.753c-0.24,0.551-0.562,1.037-0.962,1.461
				c-0.401,0.425-0.871,0.757-1.409,0.997c-0.539,0.24-1.106,0.361-1.702,0.361c-0.619,0-1.203-0.121-1.753-0.361
				s-1.026-0.572-1.426-0.997c-0.401-0.424-0.722-0.91-0.963-1.461C158.639,218.99,158.519,218.406,158.519,217.787z"/>
			<path fill="#FFFFFF" d="M200.867,260.102h5.019v-16.259c0-2.727-0.693-4.795-2.08-6.205c-1.387-1.409-3.375-2.113-5.964-2.113
				c-1.49,0-2.991,0.355-4.503,1.065c-1.513,0.711-2.945,1.593-4.297,2.646v20.865h5.019v5.912h-16.637v-5.912h4.95v-23.787h-4.95
				v-5.912h11.343v4.193h0.069c0.756-0.664,1.564-1.294,2.423-1.891c0.859-0.595,1.758-1.11,2.698-1.546
				c0.939-0.436,1.919-0.779,2.939-1.031c1.02-0.252,2.091-0.379,3.214-0.379c1.902,0,3.621,0.264,5.156,0.791
				c1.535,0.527,2.841,1.329,3.918,2.406c1.077,1.077,1.908,2.458,2.492,4.142c0.584,1.685,0.876,3.673,0.876,5.964v17.05h4.95
				v5.912h-16.637V260.102z"/>
			<path fill="#FFFFFF" d="M224.104,212.528h12.546v5.912h-0.069v26.605h6.187l8.456-8.731h-2.131v-5.912h13.509v5.912H258.1
				l-10.828,11.172l11.825,12.615h4.297v5.912h-7.528l-14.575-15.915h-4.709v10.003h2.956v5.912H224.31v-5.912h5.844V218.44h-6.05
				V212.528z"/>
			<path fill="#FFFFFF" d="M268.309,230.402h11.618v29.699h5.362v5.912h-16.912v-5.912h5.087v-23.787h-5.156V230.402z
				 M272.261,217.787c0-0.596,0.121-1.162,0.361-1.701c0.241-0.538,0.562-1.008,0.963-1.409c0.4-0.401,0.876-0.722,1.426-0.963
				c0.55-0.24,1.134-0.36,1.753-0.36c0.596,0,1.163,0.12,1.702,0.36c0.538,0.241,1.008,0.562,1.409,0.963s0.722,0.871,0.962,1.409
				c0.241,0.539,0.361,1.105,0.361,1.701c0,0.619-0.121,1.203-0.361,1.753c-0.24,0.551-0.562,1.037-0.962,1.461
				c-0.401,0.425-0.871,0.757-1.409,0.997c-0.539,0.24-1.106,0.361-1.702,0.361c-0.619,0-1.203-0.121-1.753-0.361
				s-1.026-0.572-1.426-0.997c-0.401-0.424-0.722-0.91-0.963-1.461C272.382,218.99,272.261,218.406,272.261,217.787z"/>
			<path fill="#FFFFFF" d="M314.61,260.102h5.019v-16.259c0-2.727-0.693-4.795-2.08-6.205c-1.387-1.409-3.375-2.113-5.964-2.113
				c-1.49,0-2.991,0.355-4.503,1.065c-1.513,0.711-2.945,1.593-4.297,2.646v20.865h5.019v5.912h-16.637v-5.912h4.95v-23.787h-4.95
				v-5.912h11.343v4.193h0.069c0.756-0.664,1.564-1.294,2.423-1.891c0.859-0.595,1.758-1.11,2.698-1.546
				c0.939-0.436,1.919-0.779,2.939-1.031c1.02-0.252,2.091-0.379,3.214-0.379c1.902,0,3.621,0.264,5.156,0.791
				c1.535,0.527,2.841,1.329,3.918,2.406c1.077,1.077,1.908,2.458,2.492,4.142c0.584,1.685,0.876,3.673,0.876,5.964v17.05h4.95
				v5.912H314.61V260.102z"/>
			<path fill="#FFFFFF" d="M364.177,262.886c-1.169,1.237-2.526,2.2-4.073,2.888s-3.306,1.031-5.276,1.031
				c-2.406,0-4.646-0.419-6.72-1.255c-2.074-0.837-3.873-2.063-5.396-3.678c-1.524-1.616-2.716-3.598-3.575-5.947
				c-0.859-2.349-1.289-5.035-1.289-8.061c0-2.75,0.412-5.253,1.237-7.511c0.825-2.257,1.994-4.182,3.506-5.774
				c1.513-1.593,3.334-2.83,5.466-3.713c2.131-0.882,4.503-1.323,7.115-1.323c1.788,0,3.397,0.201,4.83,0.602
				c1.432,0.401,2.824,1.095,4.176,2.08v-1.822h6.394v34.202c0,5.637-1.335,9.899-4.004,12.787c-2.67,2.887-6.823,4.331-12.46,4.331
				c-1.238,0-2.533-0.092-3.884-0.275c-1.353-0.184-2.687-0.476-4.005-0.876c-1.318-0.401-2.601-0.911-3.85-1.53
				c-1.25-0.618-2.401-1.375-3.455-2.269l3.438-5.19c0.688,0.596,1.472,1.146,2.354,1.65c0.882,0.504,1.827,0.934,2.836,1.289
				c1.008,0.354,2.05,0.636,3.128,0.842c1.077,0.206,2.154,0.31,3.231,0.31c1.765,0,3.294-0.184,4.589-0.55
				c1.294-0.367,2.36-1.015,3.197-1.942c0.836-0.928,1.461-2.183,1.874-3.764s0.619-3.587,0.619-6.016V262.886z M355.652,261.235
				c1.054,0,2.017-0.103,2.888-0.309c0.871-0.207,1.661-0.476,2.372-0.809c0.71-0.331,1.335-0.716,1.874-1.151
				c0.538-0.435,1.002-0.894,1.392-1.375v-19.489c-1.169-1.031-2.515-1.776-4.039-2.234s-3.088-0.688-4.692-0.688
				c-1.512,0-2.934,0.28-4.262,0.842c-1.33,0.562-2.492,1.381-3.489,2.458c-0.997,1.077-1.782,2.395-2.354,3.953
				s-0.859,3.346-0.859,5.362c0,2.199,0.275,4.137,0.825,5.809c0.55,1.673,1.317,3.077,2.303,4.211
				c0.985,1.135,2.166,1.988,3.541,2.561C352.524,260.949,354.025,261.235,355.652,261.235z"/>
			<path fill="#FFFFFF" d="M406.903,260.102h4.778V219.54h-11.893v8.112h-7.047v-13.749h46.474v13.749h-7.047v-8.112h-13.75v40.562
				h5.362v5.912h-16.877V260.102z"/>
			<path fill="#FFFFFF" d="M469.67,237.931h-6.531v-2.2c-0.756,0-1.529,0.144-2.32,0.43c-0.791,0.287-1.529,0.722-2.217,1.306
				c-0.688,0.585-1.289,1.33-1.805,2.234c-0.516,0.906-0.888,1.977-1.117,3.214v17.188h6.05v5.912h-17.668v-5.912h4.916
				l0.034-23.787h-4.95v-5.912h11.377v4.916c0.413-0.733,0.876-1.415,1.392-2.046c0.516-0.63,1.088-1.18,1.719-1.649
				c0.63-0.47,1.329-0.837,2.097-1.101c0.768-0.263,1.599-0.395,2.492-0.395c1.191,0,2.314,0,3.369,0
				c1.054,0,2.108,0.022,3.163,0.068V237.931z"/>
			<path fill="#FFFFFF" d="M497.994,262.714c-1.353,1.261-2.848,2.292-4.486,3.094c-1.639,0.802-3.501,1.203-5.586,1.203
				c-1.742,0-3.34-0.275-4.795-0.825c-1.456-0.55-2.71-1.301-3.764-2.252c-1.054-0.95-1.873-2.056-2.458-3.316
				c-0.584-1.26-0.876-2.601-0.876-4.021c0-1.513,0.223-2.854,0.67-4.022c0.447-1.168,1.042-2.183,1.787-3.042
				s1.616-1.581,2.612-2.165c0.997-0.585,2.04-1.054,3.128-1.409c1.088-0.355,2.2-0.607,3.334-0.757
				c1.134-0.148,2.217-0.224,3.249-0.224c1.65,0,3.036,0.052,4.159,0.155c1.123,0.103,2.143,0.246,3.059,0.43l0.035-2.922
				c0-1.26-0.184-2.354-0.55-3.283c-0.367-0.928-0.882-1.695-1.547-2.303c-0.665-0.606-1.461-1.06-2.389-1.357
				c-0.928-0.298-1.965-0.447-3.111-0.447c-1.078,0-2.109,0.075-3.094,0.224c-0.985,0.149-1.908,0.344-2.767,0.584
				c-0.859,0.241-1.65,0.516-2.372,0.825c-0.722,0.31-1.335,0.636-1.839,0.979l-2.097-4.434c0.848-0.551,1.776-1.06,2.784-1.53
				c1.008-0.469,2.068-0.87,3.18-1.203c1.111-0.332,2.246-0.596,3.403-0.79s2.297-0.292,3.42-0.292c2.063,0,3.918,0.246,5.568,0.738
				c1.65,0.493,3.047,1.255,4.194,2.286c1.146,1.031,2.028,2.344,2.646,3.936c0.619,1.594,0.928,3.501,0.928,5.724l-0.034,17.806
				h3.953v5.912h-10.346V262.714z M489.332,261.648c0.847,0,1.695-0.104,2.543-0.31c0.848-0.206,1.65-0.486,2.406-0.842
				s1.455-0.768,2.097-1.238c0.641-0.469,1.18-0.956,1.616-1.46l0.034-8.044h-7.425c-1.237,0-2.366,0.138-3.386,0.412
				c-1.02,0.275-1.902,0.677-2.646,1.203c-0.745,0.527-1.324,1.181-1.736,1.96c-0.413,0.779-0.619,1.673-0.619,2.681
				c0,0.94,0.172,1.759,0.516,2.458s0.831,1.283,1.461,1.753c0.63,0.47,1.38,0.825,2.251,1.065
				C487.315,261.528,488.277,261.648,489.332,261.648z"/>
			<path fill="#FFFFFF" d="M541.271,239.89c-0.962-1.719-2.183-2.979-3.661-3.781c-1.478-0.802-3.191-1.203-5.139-1.203
				c-1.49,0-2.887,0.31-4.193,0.929c-1.306,0.618-2.447,1.501-3.42,2.646c-0.974,1.146-1.742,2.538-2.303,4.176
				c-0.562,1.639-0.842,3.467-0.842,5.483c0,1.993,0.28,3.793,0.842,5.396c0.561,1.604,1.334,2.974,2.32,4.107
				c0.985,1.135,2.125,2.006,3.42,2.612c1.294,0.607,2.687,0.911,4.176,0.911c2.2,0,4.113-0.533,5.741-1.599
				c1.626-1.065,2.921-2.629,3.884-4.691l5.293,2.612c-0.688,1.467-1.536,2.784-2.544,3.953c-1.008,1.168-2.148,2.165-3.42,2.99
				c-1.272,0.825-2.67,1.461-4.194,1.907c-1.524,0.447-3.134,0.671-4.83,0.671c-2.475,0-4.761-0.464-6.857-1.393
				c-2.097-0.928-3.907-2.229-5.431-3.901c-1.524-1.672-2.71-3.666-3.558-5.98c-0.848-2.314-1.271-4.847-1.271-7.597
				s0.447-5.282,1.34-7.597s2.119-4.303,3.678-5.964c1.558-1.661,3.38-2.962,5.465-3.901c2.085-0.939,4.319-1.409,6.703-1.409
				c2.246,0,4.371,0.39,6.376,1.168c2.005,0.779,3.764,1.96,5.276,3.541h3.609v5.912H541.271z"/>
			<path fill="#FFFFFF" d="M553.714,212.528h12.546v5.912h-0.069v26.605h6.187l8.456-8.731h-2.131v-5.912h13.509v5.912h-4.503
				l-10.828,11.172l11.825,12.615h4.297v5.912h-7.528L570.9,250.099h-4.709v10.003h2.956v5.912H553.92v-5.912h5.844V218.44h-6.05
				V212.528z"/>
			<path fill="#FFFFFF" d="M598.056,234.837c0-0.596,0.121-1.163,0.361-1.702c0.241-0.538,0.567-1.008,0.98-1.409
				c0.412-0.4,0.888-0.722,1.426-0.962c0.538-0.241,1.117-0.361,1.736-0.361c0.596,0,1.163,0.12,1.702,0.361
				c0.538,0.24,1.008,0.562,1.409,0.962c0.401,0.401,0.722,0.871,0.962,1.409c0.241,0.539,0.361,1.106,0.361,1.702
				c0,0.618-0.12,1.203-0.361,1.753c-0.24,0.55-0.562,1.031-0.962,1.443c-0.401,0.413-0.871,0.745-1.409,0.997
				c-0.539,0.253-1.106,0.378-1.702,0.378c-0.619,0-1.198-0.125-1.736-0.378c-0.539-0.252-1.014-0.584-1.426-0.997
				c-0.413-0.412-0.739-0.894-0.98-1.443C598.176,236.04,598.056,235.455,598.056,234.837z M598.056,261.854
				c0-0.596,0.121-1.163,0.361-1.701c0.241-0.538,0.567-1.009,0.98-1.41c0.412-0.4,0.888-0.722,1.426-0.962
				c0.538-0.24,1.117-0.361,1.736-0.361c0.596,0,1.163,0.121,1.702,0.361c0.538,0.24,1.008,0.562,1.409,0.962
				c0.401,0.401,0.722,0.872,0.962,1.41c0.241,0.538,0.361,1.105,0.361,1.701c0,0.619-0.12,1.203-0.361,1.753
				c-0.24,0.55-0.562,1.037-0.962,1.461c-0.401,0.425-0.871,0.756-1.409,0.997c-0.539,0.24-1.106,0.36-1.702,0.36
				c-0.619,0-1.198-0.12-1.736-0.36c-0.539-0.241-1.014-0.572-1.426-0.997c-0.413-0.424-0.739-0.911-0.98-1.461
				C598.176,263.058,598.056,262.474,598.056,261.854z"/>
			<path fill="#FFFFFF" d="M633.082,260.102h4.95v-39.633h-4.95v-6.565h16.5l16.533,44.995l16.74-44.995h15.641v6.565h-4.916v39.633
				h4.916v5.912h-16.912v-5.912h5.568v-40.011l-18.219,45.923h-5.843l-18.459-46.026v40.114h5.362v5.912h-16.912V260.102z"/>
			<path fill="#FFFFFF" d="M712.898,249.033c0,1.009,0.074,1.931,0.224,2.767c0.148,0.837,0.36,1.633,0.636,2.39
				c0.848,2.291,2.205,4.016,4.073,5.173c1.867,1.157,3.981,1.736,6.342,1.736c1.856,0,3.661-0.258,5.414-0.773
				s3.592-1.324,5.517-2.424l2.578,4.365c-2.337,1.604-4.687,2.797-7.047,3.575s-4.812,1.169-7.355,1.169
				c-2.406,0-4.635-0.401-6.686-1.203c-2.052-0.802-3.815-1.994-5.294-3.575c-1.478-1.581-2.636-3.552-3.472-5.912
				c-0.837-2.36-1.254-5.11-1.254-8.25c0-2.543,0.354-4.943,1.064-7.201c0.711-2.257,1.771-4.228,3.18-5.912
				s3.157-3.019,5.242-4.005c2.085-0.984,4.515-1.478,7.287-1.478c2.682,0,4.921,0.407,6.721,1.22
				c1.798,0.814,3.265,1.891,4.399,3.231s1.994,2.87,2.578,4.589s0.991,3.472,1.22,5.259c0.115,0.872,0.189,1.754,0.224,2.647
				s0.052,1.765,0.052,2.612H712.898z M722.901,234.837c-1.49,0-2.79,0.212-3.901,0.636c-1.112,0.424-2.058,1.031-2.836,1.821
				c-0.779,0.791-1.404,1.76-1.874,2.905s-0.819,2.429-1.048,3.85h18.459c-0.093-1.329-0.305-2.555-0.637-3.678
				s-0.842-2.097-1.529-2.922s-1.57-1.467-2.646-1.925C725.811,235.066,724.482,234.837,722.901,234.837z"/>
			<path fill="#FFFFFF" d="M768.24,212.528h11.24v47.573h5.225v5.912h-11.618v-2.922c-1.146,1.169-2.475,2.08-3.987,2.732
				c-1.512,0.653-3.23,0.98-5.156,0.98c-2.405,0-4.646-0.419-6.72-1.255c-2.074-0.837-3.873-2.063-5.396-3.678
				c-1.524-1.616-2.716-3.598-3.575-5.947c-0.859-2.349-1.289-5.035-1.289-8.061c0-2.75,0.413-5.253,1.237-7.511
				c0.825-2.257,1.994-4.182,3.507-5.774c1.512-1.593,3.334-2.83,5.465-3.713c2.132-0.882,4.503-1.323,7.115-1.323
				c1.719,0,3.288,0.189,4.71,0.567c1.42,0.378,2.784,1.037,4.09,1.977V218.44h-4.847V212.528z M764.769,261.235
				c1.902,0,3.494-0.28,4.778-0.842c1.283-0.562,2.463-1.403,3.54-2.526v-19.937c-1.146-0.963-2.463-1.661-3.953-2.097
				c-1.489-0.436-3.013-0.653-4.571-0.653c-1.513,0-2.934,0.28-4.263,0.842s-2.492,1.381-3.488,2.458
				c-0.997,1.077-1.782,2.395-2.354,3.953c-0.573,1.559-0.859,3.346-0.859,5.362c0,2.199,0.274,4.137,0.824,5.809
				c0.551,1.673,1.317,3.077,2.304,4.211c0.984,1.135,2.165,1.988,3.54,2.561C761.641,260.949,763.142,261.235,764.769,261.235z"/>
			<path fill="#FFFFFF" d="M790.548,230.402h11.618v29.699h5.362v5.912h-16.911v-5.912h5.087v-23.787h-5.156V230.402z
				 M794.501,217.787c0-0.596,0.12-1.162,0.361-1.701c0.24-0.538,0.561-1.008,0.962-1.409s0.877-0.722,1.427-0.963
				c0.55-0.24,1.135-0.36,1.753-0.36c0.596,0,1.163,0.12,1.701,0.36c0.539,0.241,1.009,0.562,1.41,0.963
				c0.4,0.401,0.722,0.871,0.962,1.409c0.241,0.539,0.361,1.105,0.361,1.701c0,0.619-0.12,1.203-0.361,1.753
				c-0.24,0.551-0.562,1.037-0.962,1.461c-0.401,0.425-0.871,0.757-1.41,0.997c-0.538,0.24-1.105,0.361-1.701,0.361
				c-0.618,0-1.203-0.121-1.753-0.361s-1.025-0.572-1.427-0.997c-0.401-0.424-0.722-0.91-0.962-1.461
				C794.621,218.99,794.501,218.406,794.501,217.787z"/>
			<path fill="#FFFFFF" d="M834.856,230.402h11.48v29.699h3.953v5.912h-10.381v-3.3c-1.604,1.237-3.352,2.2-5.242,2.888
				s-3.913,1.031-6.066,1.031c-1.788,0-3.409-0.258-4.864-0.773s-2.693-1.317-3.712-2.406c-1.021-1.089-1.805-2.47-2.354-4.143
				c-0.551-1.672-0.825-3.666-0.825-5.98v-17.016h-4.813v-5.912h11.48v22.171c0,2.728,0.63,4.79,1.891,6.188
				c1.26,1.398,3.07,2.097,5.432,2.097c1.397,0,2.87-0.252,4.417-0.756s3.008-1.203,4.382-2.097v-21.69h-4.777V230.402z"/>
			<path fill="#FFFFFF" d="M859.812,230.402h11.343v4.159h0.069c0.778-0.664,1.599-1.289,2.458-1.873
				c0.859-0.585,1.758-1.094,2.698-1.529c0.939-0.436,1.919-0.779,2.938-1.031s2.08-0.379,3.18-0.379
				c2.566,0,4.778,0.477,6.634,1.427c1.856,0.951,3.288,2.436,4.297,4.451c0.871-0.778,1.788-1.529,2.75-2.251
				c0.963-0.722,1.965-1.346,3.008-1.873c1.042-0.527,2.137-0.951,3.282-1.272c1.146-0.32,2.338-0.481,3.575-0.481
				c1.925,0,3.655,0.264,5.19,0.791s2.842,1.329,3.919,2.406c1.076,1.077,1.896,2.458,2.457,4.142
				c0.562,1.685,0.843,3.673,0.843,5.964v17.05h4.949v5.912h-16.637v-5.912h5.019v-16.259c0-2.727-0.688-4.795-2.063-6.205
				c-1.375-1.409-3.357-2.113-5.946-2.113c-1.535,0-3.105,0.366-4.709,1.1c-1.604,0.733-2.979,1.662-4.125,2.784v20.693h4.915v5.912
				h-16.603v-5.912h5.019v-16.259c0-2.727-0.693-4.795-2.079-6.205c-1.387-1.409-3.375-2.113-5.964-2.113
				c-1.49,0-2.99,0.355-4.503,1.065c-1.513,0.711-2.945,1.593-4.297,2.646v20.865h5.019v5.912h-16.637v-5.912h4.949v-23.787h-4.949
				V230.402z"/>
		</g>
	</g>
</g>
<g>
	<defs>
		<path id="SVGID_21_" d="M1257,756.882c0,6.692-3.593,14.118-10.253,14.118H15.568C8.907,771,2,763.574,2,756.882V11.618
			C2,4.925,8.907,1,15.568,1h1231.179c6.66,0,10.253,3.925,10.253,10.618V756.882z"/>
	</defs>
	<clipPath id="SVGID_22_">
		<use xlink:href="#SVGID_21_"  overflow="visible"/>
	</clipPath>
	<g clip-path="url(#SVGID_22_)">
		<g enable-background="new    ">
			<path fill="#FFFFFF" d="M72.75,355.672h19.387c2.383,0,4.652,0.31,6.806,0.928c2.153,0.619,4.159,1.49,6.015,2.612
				c1.856,1.123,3.541,2.47,5.053,4.039c1.512,1.57,2.801,3.317,3.867,5.242c1.066,1.925,1.885,3.993,2.458,6.204
				c0.572,2.212,0.859,4.509,0.859,6.893c0,2.429-0.287,4.755-0.859,6.978c-0.573,2.223-1.392,4.309-2.458,6.256
				c-1.065,1.948-2.354,3.719-3.867,5.311c-1.513,1.594-3.197,2.956-5.053,4.091c-1.856,1.134-3.862,2.011-6.015,2.63
				c-2.154,0.618-4.423,0.928-6.806,0.928H72.75v-5.912h4.95v-40.252h-4.95V355.672z M84.437,361.618v40.252h8.112
				c2.406,0,4.669-0.527,6.789-1.581s3.97-2.492,5.551-4.314c1.582-1.821,2.83-3.964,3.747-6.428
				c0.916-2.463,1.375-5.115,1.375-7.957c0-2.796-0.459-5.408-1.375-7.838c-0.917-2.429-2.166-4.542-3.747-6.342
				c-1.581-1.799-3.432-3.214-5.551-4.245s-4.382-1.547-6.789-1.547H84.437z"/>
			<path fill="#FFFFFF" d="M148.682,379.699h-6.531v-2.2c-0.756,0-1.529,0.144-2.32,0.43c-0.791,0.287-1.529,0.722-2.217,1.306
				c-0.688,0.585-1.289,1.33-1.805,2.234c-0.516,0.906-0.888,1.977-1.117,3.214v17.188h6.05v5.912h-17.668v-5.912h4.916
				l0.034-23.787h-4.95v-5.912h11.377v4.916c0.413-0.733,0.876-1.415,1.392-2.046c0.516-0.63,1.088-1.18,1.719-1.649
				c0.63-0.47,1.329-0.837,2.097-1.101c0.768-0.263,1.599-0.395,2.492-0.395c1.191,0,2.314,0,3.369,0
				c1.054,0,2.108,0.022,3.163,0.068V379.699z"/>
			<path fill="#FFFFFF" d="M155.797,372.171h11.618v29.699h5.362v5.912h-16.912v-5.912h5.087v-23.787h-5.156V372.171z
				 M159.75,359.556c0-0.596,0.121-1.162,0.361-1.701c0.241-0.538,0.562-1.008,0.963-1.409c0.4-0.401,0.876-0.722,1.426-0.963
				c0.55-0.24,1.134-0.36,1.753-0.36c0.596,0,1.163,0.12,1.702,0.36c0.538,0.241,1.008,0.562,1.409,0.963s0.722,0.871,0.962,1.409
				c0.241,0.539,0.361,1.105,0.361,1.701c0,0.619-0.121,1.203-0.361,1.753c-0.24,0.551-0.562,1.037-0.962,1.461
				c-0.401,0.425-0.871,0.757-1.409,0.997c-0.539,0.24-1.106,0.361-1.702,0.361c-0.619,0-1.203-0.121-1.753-0.361
				s-1.026-0.572-1.426-0.997c-0.401-0.424-0.722-0.91-0.963-1.461C159.87,360.759,159.75,360.175,159.75,359.556z"/>
			<path fill="#FFFFFF" d="M202.098,401.87h5.019v-16.259c0-2.727-0.693-4.795-2.08-6.205c-1.387-1.409-3.375-2.113-5.964-2.113
				c-1.49,0-2.991,0.355-4.503,1.065c-1.513,0.711-2.945,1.593-4.297,2.646v20.865h5.019v5.912h-16.637v-5.912h4.95v-23.787h-4.95
				v-5.912h11.343v4.193h0.069c0.756-0.664,1.564-1.294,2.423-1.891c0.859-0.595,1.758-1.11,2.698-1.546
				c0.939-0.436,1.919-0.779,2.939-1.031c1.02-0.252,2.091-0.379,3.214-0.379c1.902,0,3.621,0.264,5.156,0.791
				c1.535,0.527,2.841,1.329,3.918,2.406c1.077,1.077,1.908,2.458,2.492,4.142c0.584,1.685,0.876,3.673,0.876,5.964v17.05h4.95
				v5.912h-16.637V401.87z"/>
			<path fill="#FFFFFF" d="M225.335,354.297h12.546v5.912h-0.069v26.605H244l8.456-8.731h-2.131v-5.912h13.509v5.912h-4.503
				l-10.828,11.172l11.825,12.615h4.297v5.912h-7.528l-14.575-15.915h-4.709v10.003h2.956v5.912h-15.228v-5.912h5.844v-41.661h-6.05
				V354.297z"/>
			<path fill="#FFFFFF" d="M269.54,372.171h11.618v29.699h5.362v5.912h-16.912v-5.912h5.087v-23.787h-5.156V372.171z
				 M273.492,359.556c0-0.596,0.121-1.162,0.361-1.701c0.241-0.538,0.562-1.008,0.963-1.409c0.4-0.401,0.876-0.722,1.426-0.963
				c0.55-0.24,1.134-0.36,1.753-0.36c0.596,0,1.163,0.12,1.702,0.36c0.538,0.241,1.008,0.562,1.409,0.963s0.722,0.871,0.962,1.409
				c0.241,0.539,0.361,1.105,0.361,1.701c0,0.619-0.121,1.203-0.361,1.753c-0.24,0.551-0.562,1.037-0.962,1.461
				c-0.401,0.425-0.871,0.757-1.409,0.997c-0.539,0.24-1.106,0.361-1.702,0.361c-0.619,0-1.203-0.121-1.753-0.361
				s-1.026-0.572-1.426-0.997c-0.401-0.424-0.722-0.91-0.963-1.461C273.613,360.759,273.492,360.175,273.492,359.556z"/>
			<path fill="#FFFFFF" d="M315.841,401.87h5.019v-16.259c0-2.727-0.693-4.795-2.08-6.205c-1.387-1.409-3.375-2.113-5.964-2.113
				c-1.49,0-2.991,0.355-4.503,1.065c-1.513,0.711-2.945,1.593-4.297,2.646v20.865h5.019v5.912h-16.637v-5.912h4.95v-23.787h-4.95
				v-5.912h11.343v4.193h0.069c0.756-0.664,1.564-1.294,2.423-1.891c0.859-0.595,1.758-1.11,2.698-1.546
				c0.939-0.436,1.919-0.779,2.939-1.031c1.02-0.252,2.091-0.379,3.214-0.379c1.902,0,3.621,0.264,5.156,0.791
				c1.535,0.527,2.841,1.329,3.918,2.406c1.077,1.077,1.908,2.458,2.492,4.142c0.584,1.685,0.876,3.673,0.876,5.964v17.05h4.95
				v5.912h-16.637V401.87z"/>
			<path fill="#FFFFFF" d="M365.408,404.654c-1.169,1.237-2.526,2.2-4.073,2.888s-3.306,1.031-5.276,1.031
				c-2.406,0-4.646-0.419-6.72-1.255c-2.074-0.837-3.873-2.063-5.396-3.678c-1.524-1.616-2.716-3.598-3.575-5.947
				c-0.859-2.349-1.289-5.035-1.289-8.061c0-2.75,0.412-5.253,1.237-7.511c0.825-2.257,1.994-4.182,3.506-5.774
				c1.513-1.593,3.334-2.83,5.466-3.713c2.131-0.882,4.503-1.323,7.115-1.323c1.788,0,3.397,0.201,4.83,0.602
				c1.432,0.401,2.824,1.095,4.176,2.08v-1.822h6.394v34.202c0,5.637-1.335,9.899-4.004,12.787c-2.67,2.887-6.823,4.331-12.46,4.331
				c-1.238,0-2.533-0.092-3.884-0.275c-1.353-0.184-2.687-0.476-4.005-0.876c-1.318-0.401-2.601-0.911-3.85-1.53
				c-1.25-0.618-2.401-1.375-3.455-2.269l3.438-5.19c0.688,0.596,1.472,1.146,2.354,1.65c0.882,0.504,1.827,0.934,2.836,1.289
				c1.008,0.354,2.05,0.636,3.128,0.842c1.077,0.206,2.154,0.31,3.231,0.31c1.765,0,3.294-0.184,4.589-0.55
				c1.294-0.367,2.36-1.015,3.197-1.942c0.836-0.928,1.461-2.183,1.874-3.764s0.619-3.587,0.619-6.016V404.654z M356.883,403.004
				c1.054,0,2.017-0.103,2.888-0.309c0.871-0.207,1.661-0.476,2.372-0.809c0.71-0.331,1.335-0.716,1.874-1.151
				c0.538-0.435,1.002-0.894,1.392-1.375v-19.489c-1.169-1.031-2.515-1.776-4.039-2.234s-3.088-0.688-4.692-0.688
				c-1.512,0-2.934,0.28-4.262,0.842c-1.33,0.562-2.492,1.381-3.489,2.458c-0.997,1.077-1.782,2.395-2.354,3.953
				s-0.859,3.346-0.859,5.362c0,2.199,0.275,4.137,0.825,5.809c0.55,1.673,1.317,3.077,2.303,4.211
				c0.985,1.135,2.166,1.988,3.541,2.561C353.755,402.718,355.256,403.004,356.883,403.004z"/>
			<path fill="#FFFFFF" d="M408.134,401.87h4.778v-40.562h-11.893v8.112h-7.047v-13.749h46.474v13.749h-7.047v-8.112h-13.75v40.562
				h5.362v5.912h-16.877V401.87z"/>
			<path fill="#FFFFFF" d="M470.901,379.699h-6.531v-2.2c-0.756,0-1.529,0.144-2.32,0.43c-0.791,0.287-1.529,0.722-2.217,1.306
				c-0.688,0.585-1.289,1.33-1.805,2.234c-0.516,0.906-0.888,1.977-1.117,3.214v17.188h6.05v5.912h-17.668v-5.912h4.916
				l0.034-23.787h-4.95v-5.912h11.377v4.916c0.413-0.733,0.876-1.415,1.392-2.046c0.516-0.63,1.088-1.18,1.719-1.649
				c0.63-0.47,1.329-0.837,2.097-1.101c0.768-0.263,1.599-0.395,2.492-0.395c1.191,0,2.314,0,3.369,0
				c1.054,0,2.108,0.022,3.163,0.068V379.699z"/>
			<path fill="#FFFFFF" d="M499.225,404.482c-1.353,1.261-2.848,2.292-4.486,3.094c-1.639,0.802-3.501,1.203-5.586,1.203
				c-1.742,0-3.34-0.275-4.795-0.825c-1.456-0.55-2.71-1.301-3.764-2.252c-1.054-0.95-1.873-2.056-2.458-3.316
				c-0.584-1.26-0.876-2.601-0.876-4.021c0-1.513,0.223-2.854,0.67-4.022c0.447-1.168,1.042-2.183,1.787-3.042
				s1.616-1.581,2.612-2.165c0.997-0.585,2.04-1.054,3.128-1.409c1.088-0.355,2.2-0.607,3.334-0.757
				c1.134-0.148,2.217-0.224,3.249-0.224c1.65,0,3.036,0.052,4.159,0.155c1.123,0.103,2.143,0.246,3.059,0.43l0.035-2.922
				c0-1.26-0.184-2.354-0.55-3.283c-0.367-0.928-0.882-1.695-1.547-2.303c-0.665-0.606-1.461-1.06-2.389-1.357
				c-0.928-0.298-1.965-0.447-3.111-0.447c-1.078,0-2.109,0.075-3.094,0.224c-0.985,0.149-1.908,0.344-2.767,0.584
				c-0.859,0.241-1.65,0.516-2.372,0.825c-0.722,0.31-1.335,0.636-1.839,0.979l-2.097-4.434c0.848-0.551,1.776-1.06,2.784-1.53
				c1.008-0.469,2.068-0.87,3.18-1.203c1.111-0.332,2.246-0.596,3.403-0.79s2.297-0.292,3.42-0.292c2.063,0,3.918,0.246,5.568,0.738
				c1.65,0.493,3.047,1.255,4.194,2.286c1.146,1.031,2.028,2.344,2.646,3.936c0.619,1.594,0.928,3.501,0.928,5.724l-0.034,17.806
				h3.953v5.912h-10.346V404.482z M490.563,403.417c0.847,0,1.695-0.104,2.543-0.31c0.848-0.206,1.65-0.486,2.406-0.842
				s1.455-0.768,2.097-1.238c0.641-0.469,1.18-0.956,1.616-1.46l0.034-8.044h-7.425c-1.237,0-2.366,0.138-3.386,0.412
				c-1.02,0.275-1.902,0.677-2.646,1.203c-0.745,0.527-1.324,1.181-1.736,1.96c-0.413,0.779-0.619,1.673-0.619,2.681
				c0,0.94,0.172,1.759,0.516,2.458s0.831,1.283,1.461,1.753c0.63,0.47,1.38,0.825,2.251,1.065
				C488.546,403.297,489.508,403.417,490.563,403.417z"/>
			<path fill="#FFFFFF" d="M542.501,381.658c-0.962-1.719-2.183-2.979-3.661-3.781c-1.478-0.802-3.191-1.203-5.139-1.203
				c-1.49,0-2.887,0.31-4.193,0.929c-1.306,0.618-2.447,1.501-3.42,2.646c-0.974,1.146-1.742,2.538-2.303,4.176
				c-0.562,1.639-0.842,3.467-0.842,5.483c0,1.993,0.28,3.793,0.842,5.396c0.561,1.604,1.334,2.974,2.32,4.107
				c0.985,1.135,2.125,2.006,3.42,2.612c1.294,0.607,2.687,0.911,4.176,0.911c2.2,0,4.113-0.533,5.741-1.599
				c1.626-1.065,2.921-2.629,3.884-4.691l5.293,2.612c-0.688,1.467-1.536,2.784-2.544,3.953c-1.008,1.168-2.148,2.165-3.42,2.99
				c-1.272,0.825-2.67,1.461-4.194,1.907c-1.524,0.447-3.134,0.671-4.83,0.671c-2.475,0-4.761-0.464-6.857-1.393
				c-2.097-0.928-3.907-2.229-5.431-3.901c-1.524-1.672-2.71-3.666-3.558-5.98c-0.848-2.314-1.271-4.847-1.271-7.597
				s0.447-5.282,1.34-7.597s2.119-4.303,3.678-5.964c1.558-1.661,3.38-2.962,5.465-3.901c2.085-0.939,4.319-1.409,6.703-1.409
				c2.246,0,4.371,0.39,6.376,1.168c2.005,0.779,3.764,1.96,5.276,3.541h3.609v5.912H542.501z"/>
			<path fill="#FFFFFF" d="M554.945,354.297h12.546v5.912h-0.069v26.605h6.187l8.456-8.731h-2.131v-5.912h13.509v5.912h-4.503
				l-10.828,11.172l11.825,12.615h4.297v5.912h-7.528l-14.575-15.915h-4.709v10.003h2.956v5.912h-15.228v-5.912h5.844v-41.661h-6.05
				V354.297z"/>
			<path fill="#FFFFFF" d="M599.287,376.605c0-0.596,0.121-1.163,0.361-1.702c0.241-0.538,0.567-1.008,0.98-1.409
				c0.412-0.4,0.888-0.722,1.426-0.962c0.538-0.241,1.117-0.361,1.736-0.361c0.596,0,1.163,0.12,1.702,0.361
				c0.538,0.24,1.008,0.562,1.409,0.962c0.401,0.401,0.722,0.871,0.962,1.409c0.241,0.539,0.361,1.106,0.361,1.702
				c0,0.618-0.12,1.203-0.361,1.753c-0.24,0.55-0.562,1.031-0.962,1.443c-0.401,0.413-0.871,0.745-1.409,0.997
				c-0.539,0.253-1.106,0.378-1.702,0.378c-0.619,0-1.198-0.125-1.736-0.378c-0.539-0.252-1.014-0.584-1.426-0.997
				c-0.413-0.412-0.739-0.894-0.98-1.443C599.407,377.809,599.287,377.224,599.287,376.605z M599.287,403.623
				c0-0.596,0.121-1.163,0.361-1.701c0.241-0.538,0.567-1.009,0.98-1.41c0.412-0.4,0.888-0.722,1.426-0.962
				c0.538-0.24,1.117-0.361,1.736-0.361c0.596,0,1.163,0.121,1.702,0.361c0.538,0.24,1.008,0.562,1.409,0.962
				c0.401,0.401,0.722,0.872,0.962,1.41c0.241,0.538,0.361,1.105,0.361,1.701c0,0.619-0.12,1.203-0.361,1.753
				c-0.24,0.55-0.562,1.037-0.962,1.461c-0.401,0.425-0.871,0.756-1.409,0.997c-0.539,0.24-1.106,0.36-1.702,0.36
				c-0.619,0-1.198-0.12-1.736-0.36c-0.539-0.241-1.014-0.572-1.426-0.997c-0.413-0.424-0.739-0.911-0.98-1.461
				C599.407,404.826,599.287,404.242,599.287,403.623z"/>
			<path fill="#FFFFFF" d="M670.922,355.672h16.912v5.912h-4.951v40.286h4.951v5.912h-16.912v-5.912h5.225v-18.733H646v18.733h5.225
				v5.912h-16.911v-5.912h4.95v-40.286h-4.95v-5.912h16.911v5.912H646v15.777h30.146v-15.777h-5.225V355.672z"/>
			<path fill="#FFFFFF" d="M717.119,404.482c-1.352,1.261-2.848,2.292-4.486,3.094s-3.5,1.203-5.585,1.203
				c-1.741,0-3.34-0.275-4.795-0.825c-1.456-0.55-2.71-1.301-3.765-2.252c-1.054-0.95-1.873-2.056-2.457-3.316
				c-0.584-1.26-0.877-2.601-0.877-4.021c0-1.513,0.224-2.854,0.671-4.022c0.446-1.168,1.042-2.183,1.787-3.042
				s1.616-1.581,2.612-2.165c0.997-0.585,2.039-1.054,3.129-1.409c1.088-0.355,2.199-0.607,3.334-0.757
				c1.134-0.148,2.217-0.224,3.248-0.224c1.65,0,3.035,0.052,4.158,0.155c1.123,0.103,2.143,0.246,3.061,0.43l0.033-2.922
				c0-1.26-0.184-2.354-0.549-3.283c-0.367-0.928-0.883-1.695-1.547-2.303c-0.666-0.606-1.461-1.06-2.389-1.357
				c-0.93-0.298-1.967-0.447-3.111-0.447c-1.078,0-2.109,0.075-3.094,0.224c-0.985,0.149-1.908,0.344-2.768,0.584
				c-0.859,0.241-1.649,0.516-2.371,0.825c-0.723,0.31-1.336,0.636-1.84,0.979l-2.096-4.434c0.848-0.551,1.775-1.06,2.783-1.53
				c1.009-0.469,2.068-0.87,3.18-1.203c1.111-0.332,2.246-0.596,3.403-0.79s2.298-0.292,3.421-0.292
				c2.063,0,3.918,0.246,5.568,0.738c1.65,0.493,3.047,1.255,4.193,2.286c1.145,1.031,2.027,2.344,2.646,3.936
				c0.619,1.594,0.928,3.501,0.928,5.724l-0.033,17.806h3.953v5.912h-10.348V404.482z M708.457,403.417
				c0.848,0,1.695-0.104,2.545-0.31c0.846-0.206,1.648-0.486,2.404-0.842c0.758-0.355,1.455-0.768,2.098-1.238
				c0.641-0.469,1.18-0.956,1.615-1.46l0.035-8.044h-7.426c-1.236,0-2.365,0.138-3.385,0.412c-1.021,0.275-1.902,0.677-2.646,1.203
				c-0.746,0.527-1.324,1.181-1.736,1.96s-0.619,1.673-0.619,2.681c0,0.94,0.172,1.759,0.516,2.458s0.83,1.283,1.461,1.753
				c0.63,0.47,1.381,0.825,2.252,1.065C706.44,403.297,707.402,403.417,708.457,403.417z"/>
			<path fill="#FFFFFF" d="M760.293,379.699h-6.531v-2.2c-0.756,0-1.529,0.144-2.32,0.43c-0.789,0.287-1.529,0.722-2.217,1.306
				c-0.688,0.585-1.289,1.33-1.805,2.234c-0.516,0.906-0.889,1.977-1.117,3.214v17.188h6.051v5.912h-17.668v-5.912h4.914
				l0.035-23.787h-4.949v-5.912h11.377v4.916c0.412-0.733,0.877-1.415,1.393-2.046c0.516-0.63,1.088-1.18,1.719-1.649
				c0.629-0.47,1.328-0.837,2.096-1.101c0.768-0.263,1.6-0.395,2.492-0.395c1.191,0,2.314,0,3.369,0s2.107,0.022,3.162,0.068
				V379.699z"/>
			<path fill="#FFFFFF" d="M788.686,354.297h11.24v47.573h5.225v5.912h-11.617v-2.922c-1.146,1.169-2.475,2.08-3.988,2.732
				c-1.512,0.653-3.23,0.98-5.156,0.98c-2.404,0-4.645-0.419-6.719-1.255c-2.074-0.837-3.873-2.063-5.396-3.678
				c-1.525-1.616-2.717-3.598-3.576-5.947c-0.859-2.349-1.289-5.035-1.289-8.061c0-2.75,0.414-5.253,1.238-7.511
				c0.824-2.257,1.994-4.182,3.506-5.774s3.334-2.83,5.465-3.713c2.133-0.882,4.504-1.323,7.115-1.323
				c1.719,0,3.289,0.189,4.711,0.567c1.42,0.378,2.783,1.037,4.09,1.977v-13.646h-4.848V354.297z M785.215,403.004
				c1.902,0,3.494-0.28,4.777-0.842s2.463-1.403,3.541-2.526v-19.937c-1.146-0.963-2.463-1.661-3.953-2.097
				s-3.014-0.653-4.572-0.653c-1.512,0-2.934,0.28-4.262,0.842c-1.33,0.562-2.492,1.381-3.488,2.458
				c-0.998,1.077-1.783,2.395-2.355,3.953s-0.859,3.346-0.859,5.362c0,2.199,0.275,4.137,0.824,5.809
				c0.551,1.673,1.318,3.077,2.305,4.211c0.984,1.135,2.164,1.988,3.539,2.561C782.086,402.718,783.588,403.004,785.215,403.004z"/>
		</g>
	</g>
</g>
<g>
	<defs>
		<path id="SVGID_23_" d="M1257,756.882c0,6.692-3.593,14.118-10.253,14.118H15.568C8.907,771,2,763.574,2,756.882V11.618
			C2,4.925,8.907,1,15.568,1h1231.179c6.66,0,10.253,3.925,10.253,10.618V756.882z"/>
	</defs>
	<clipPath id="SVGID_24_">
		<use xlink:href="#SVGID_23_"  overflow="visible"/>
	</clipPath>
	<g clip-path="url(#SVGID_24_)">
		<g enable-background="new    ">
			<path fill="#FFFFFF" d="M109.967,504.575c-1.535-2.612-3.569-4.663-6.101-6.152c-2.532-1.489-5.357-2.234-8.473-2.234
				c-2.659,0-5.087,0.562-7.287,1.685c-2.2,1.123-4.085,2.629-5.655,4.52c-1.57,1.891-2.79,4.079-3.661,6.565
				c-0.871,2.486-1.306,5.104-1.306,7.854c0,3.254,0.481,6.136,1.444,8.645c0.962,2.51,2.217,4.596,3.764,6.257
				s3.386,3.048,5.517,4.159s4.525,1.667,7.184,1.667c3.621,0,6.771-0.877,9.453-2.63s4.973-4.635,6.875-8.645l6.05,2.853
				c-0.871,2.475-2.35,4.864-4.435,7.167c-2.085,2.303-4.657,4.159-7.717,5.568c-3.059,1.409-6.445,2.114-10.157,2.114
				c-3.552,0-6.818-0.67-9.797-2.011s-5.632-3.248-7.958-5.724c-2.326-2.475-4.102-5.407-5.328-8.8
				c-1.226-3.391-1.839-6.932-1.839-10.621c0-3.712,0.613-7.219,1.839-10.519c1.226-3.3,2.944-6.17,5.156-8.61
				s4.847-4.365,7.906-5.774c3.059-1.41,6.376-2.114,9.951-2.114c3.185,0,5.935,0.452,8.25,1.357
				c2.314,0.905,4.28,1.982,5.895,3.231c1.616,1.249,3.008,2.606,4.177,4.073h3.644v6.118H109.967z"/>
			<path fill="#FFFFFF" d="M122.892,525.131c0.022-2.818,0.476-5.385,1.358-7.699c0.882-2.314,2.114-4.303,3.695-5.964
				c1.581-1.661,3.46-2.939,5.637-3.833c2.177-0.894,4.572-1.341,7.184-1.341c2.635,0,5.047,0.447,7.235,1.341
				s4.062,2.16,5.62,3.798c1.558,1.639,2.772,3.615,3.644,5.93c0.871,2.315,1.306,4.881,1.306,7.7c0,2.772-0.436,5.322-1.306,7.647
				c-0.872,2.326-2.086,4.326-3.644,5.999c-1.559,1.673-3.432,2.973-5.62,3.901c-2.188,0.928-4.601,1.392-7.235,1.392
				c-2.681,0-5.11-0.459-7.287-1.375c-2.178-0.916-4.045-2.205-5.603-3.867c-1.559-1.661-2.773-3.648-3.644-5.964
				C123.361,530.482,122.914,527.927,122.892,525.131z M129.663,525.131c0,2.04,0.292,3.885,0.877,5.534
				c0.584,1.65,1.386,3.054,2.406,4.211s2.2,2.051,3.541,2.681c1.341,0.631,2.767,0.945,4.28,0.945c1.581,0,3.053-0.309,4.417-0.928
				c1.363-0.619,2.549-1.507,3.558-2.664c1.008-1.157,1.799-2.561,2.372-4.211c0.573-1.649,0.859-3.506,0.859-5.568
				c0-2.153-0.287-4.067-0.859-5.74s-1.357-3.07-2.354-4.193c-0.997-1.123-2.183-1.971-3.558-2.544
				c-1.375-0.572-2.853-0.859-4.434-0.859c-1.513,0-2.939,0.287-4.28,0.859c-1.34,0.573-2.521,1.421-3.541,2.544
				s-1.822,2.521-2.406,4.193C129.956,521.063,129.663,522.978,129.663,525.131z"/>
			<path fill="#FFFFFF" d="M165.48,507.325h11.343v4.159h0.069c0.779-0.664,1.598-1.289,2.458-1.873
				c0.859-0.585,1.758-1.094,2.698-1.529c0.939-0.436,1.919-0.779,2.939-1.031c1.02-0.252,2.08-0.379,3.18-0.379
				c2.566,0,4.778,0.477,6.634,1.427c1.856,0.951,3.288,2.436,4.296,4.451c0.871-0.778,1.788-1.529,2.75-2.251
				s1.965-1.346,3.008-1.873c1.042-0.527,2.137-0.951,3.283-1.272c1.146-0.32,2.337-0.481,3.575-0.481
				c1.925,0,3.655,0.264,5.19,0.791c1.535,0.527,2.841,1.329,3.919,2.406c1.077,1.077,1.896,2.458,2.458,4.142
				c0.561,1.685,0.842,3.673,0.842,5.964v17.05h4.95v5.912h-16.637v-5.912h5.019v-16.259c0-2.727-0.688-4.795-2.063-6.205
				c-1.375-1.409-3.357-2.113-5.947-2.113c-1.536,0-3.105,0.366-4.709,1.1c-1.604,0.733-2.979,1.662-4.125,2.784v20.693h4.916v5.912
				h-16.603v-5.912h5.019v-16.259c0-2.727-0.693-4.795-2.08-6.205c-1.387-1.409-3.375-2.113-5.964-2.113
				c-1.49,0-2.991,0.355-4.503,1.065c-1.513,0.711-2.945,1.593-4.297,2.646v20.865h5.019v5.912H165.48v-5.912h4.95v-23.787h-4.95
				V507.325z"/>
			<path fill="#FFFFFF" d="M235.947,507.325h11.343v4.159h0.069c0.779-0.664,1.598-1.289,2.458-1.873
				c0.859-0.585,1.758-1.094,2.698-1.529c0.939-0.436,1.919-0.779,2.939-1.031c1.02-0.252,2.08-0.379,3.18-0.379
				c2.566,0,4.778,0.477,6.634,1.427c1.856,0.951,3.288,2.436,4.296,4.451c0.871-0.778,1.788-1.529,2.75-2.251
				s1.965-1.346,3.008-1.873c1.042-0.527,2.137-0.951,3.283-1.272c1.146-0.32,2.337-0.481,3.575-0.481
				c1.925,0,3.655,0.264,5.19,0.791c1.535,0.527,2.841,1.329,3.919,2.406c1.077,1.077,1.896,2.458,2.458,4.142
				c0.561,1.685,0.842,3.673,0.842,5.964v17.05h4.95v5.912h-16.637v-5.912h5.019v-16.259c0-2.727-0.688-4.795-2.063-6.205
				c-1.375-1.409-3.357-2.113-5.947-2.113c-1.536,0-3.105,0.366-4.709,1.1c-1.604,0.733-2.979,1.662-4.125,2.784v20.693h4.916v5.912
				H259.39v-5.912h5.019v-16.259c0-2.727-0.693-4.795-2.08-6.205c-1.387-1.409-3.375-2.113-5.964-2.113
				c-1.49,0-2.991,0.355-4.503,1.065c-1.513,0.711-2.945,1.593-4.297,2.646v20.865h5.019v5.912h-16.637v-5.912h4.95v-23.787h-4.95
				V507.325z"/>
			<path fill="#FFFFFF" d="M312.463,525.956c0,1.009,0.074,1.931,0.223,2.767c0.149,0.837,0.361,1.633,0.636,2.39
				c0.847,2.291,2.205,4.016,4.073,5.173c1.867,1.157,3.981,1.736,6.342,1.736c1.856,0,3.661-0.258,5.414-0.773
				c1.753-0.516,3.592-1.324,5.517-2.424l2.578,4.365c-2.337,1.604-4.687,2.797-7.046,3.575c-2.361,0.778-4.813,1.169-7.356,1.169
				c-2.406,0-4.635-0.401-6.686-1.203s-3.815-1.994-5.293-3.575s-2.635-3.552-3.472-5.912c-0.837-2.36-1.254-5.11-1.254-8.25
				c0-2.543,0.355-4.943,1.065-7.201c0.71-2.257,1.77-4.228,3.18-5.912c1.409-1.685,3.156-3.019,5.242-4.005
				c2.085-0.984,4.514-1.478,7.287-1.478c2.681,0,4.921,0.407,6.72,1.22c1.799,0.814,3.266,1.891,4.4,3.231s1.994,2.87,2.578,4.589
				s0.991,3.472,1.22,5.259c0.114,0.872,0.189,1.754,0.224,2.647c0.034,0.894,0.051,1.765,0.051,2.612H312.463z M322.465,511.76
				c-1.49,0-2.79,0.212-3.901,0.636c-1.112,0.424-2.057,1.031-2.836,1.821c-0.779,0.791-1.404,1.76-1.873,2.905
				c-0.47,1.146-0.82,2.429-1.048,3.85h18.458c-0.092-1.329-0.304-2.555-0.636-3.678c-0.333-1.123-0.842-2.097-1.53-2.922
				s-1.57-1.467-2.647-1.925S324.047,511.76,322.465,511.76z"/>
			<path fill="#FFFFFF" d="M370.245,537.024h5.019v-16.259c0-2.727-0.693-4.795-2.08-6.205c-1.387-1.409-3.375-2.113-5.964-2.113
				c-1.49,0-2.991,0.355-4.503,1.065c-1.513,0.711-2.945,1.593-4.297,2.646v20.865h5.019v5.912h-16.637v-5.912h4.95v-23.787h-4.95
				v-5.912h11.343v4.193h0.069c0.756-0.664,1.564-1.294,2.423-1.891c0.859-0.595,1.758-1.11,2.698-1.546
				c0.939-0.436,1.919-0.779,2.939-1.031c1.02-0.252,2.091-0.379,3.214-0.379c1.902,0,3.621,0.264,5.156,0.791
				c1.535,0.527,2.841,1.329,3.918,2.406c1.077,1.077,1.908,2.458,2.492,4.142c0.584,1.685,0.876,3.673,0.876,5.964v17.05h4.95
				v5.912h-16.637V537.024z"/>
			<path fill="#FFFFFF" d="M404.069,507.325h8.353v5.19H404l-0.103,20.556c0,1.398,0.16,2.532,0.481,3.403
				c0.32,0.871,0.836,1.473,1.546,1.805s1.513,0.498,2.406,0.498c0.962,0,1.81-0.086,2.544-0.258
				c0.733-0.172,1.535-0.464,2.406-0.877l1.479,4.297c-1.1,0.573-2.258,1.025-3.472,1.358c-1.215,0.331-2.646,0.498-4.296,0.498
				c-1.559,0-2.917-0.189-4.073-0.567c-1.158-0.378-2.131-1.014-2.922-1.907c-0.791-0.895-1.381-2.091-1.771-3.593
				c-0.39-1.5-0.584-3.374-0.584-5.62l0.103-19.593h-5.672v-5.19h5.741v-8.524l6.256-2.956V507.325z"/>
			<path fill="#FFFFFF" d="M440.883,539.637c-1.353,1.261-2.848,2.292-4.486,3.094c-1.639,0.802-3.501,1.203-5.586,1.203
				c-1.742,0-3.34-0.275-4.795-0.825c-1.456-0.55-2.71-1.301-3.764-2.252c-1.054-0.95-1.873-2.056-2.458-3.316
				c-0.584-1.26-0.876-2.601-0.876-4.021c0-1.513,0.223-2.854,0.67-4.022c0.447-1.168,1.042-2.183,1.787-3.042
				s1.616-1.581,2.612-2.165c0.997-0.585,2.04-1.054,3.128-1.409c1.088-0.355,2.2-0.607,3.334-0.757
				c1.134-0.148,2.217-0.224,3.249-0.224c1.65,0,3.036,0.052,4.159,0.155c1.123,0.103,2.143,0.246,3.059,0.43l0.035-2.922
				c0-1.26-0.184-2.354-0.55-3.283c-0.367-0.928-0.882-1.695-1.547-2.303c-0.665-0.606-1.461-1.06-2.389-1.357
				c-0.928-0.298-1.965-0.447-3.111-0.447c-1.078,0-2.109,0.075-3.094,0.224c-0.985,0.149-1.908,0.344-2.767,0.584
				c-0.859,0.241-1.65,0.516-2.372,0.825c-0.722,0.31-1.335,0.636-1.839,0.979l-2.097-4.434c0.848-0.551,1.776-1.06,2.784-1.53
				c1.008-0.469,2.068-0.87,3.18-1.203c1.111-0.332,2.246-0.596,3.403-0.79s2.297-0.292,3.42-0.292c2.063,0,3.918,0.246,5.568,0.738
				c1.65,0.493,3.047,1.255,4.194,2.286c1.146,1.031,2.028,2.344,2.646,3.936c0.619,1.594,0.928,3.501,0.928,5.724l-0.034,17.806
				h3.953v5.912h-10.346V539.637z M432.221,538.571c0.847,0,1.695-0.104,2.543-0.31c0.848-0.206,1.65-0.486,2.406-0.842
				s1.455-0.768,2.097-1.238c0.641-0.469,1.18-0.956,1.616-1.46l0.034-8.044h-7.425c-1.237,0-2.366,0.138-3.386,0.412
				c-1.02,0.275-1.902,0.677-2.646,1.203c-0.745,0.527-1.324,1.181-1.736,1.96c-0.413,0.779-0.619,1.673-0.619,2.681
				c0,0.94,0.172,1.759,0.516,2.458s0.831,1.283,1.461,1.753c0.63,0.47,1.38,0.825,2.251,1.065
				C430.204,538.451,431.166,538.571,432.221,538.571z"/>
			<path fill="#FFFFFF" d="M484.057,514.854h-6.531v-2.2c-0.756,0-1.529,0.144-2.32,0.43c-0.791,0.287-1.529,0.722-2.217,1.306
				c-0.688,0.585-1.289,1.33-1.805,2.234c-0.516,0.906-0.888,1.977-1.117,3.214v17.188h6.05v5.912h-17.668v-5.912h4.916
				l0.034-23.787h-4.95v-5.912h11.377v4.916c0.413-0.733,0.876-1.415,1.392-2.046c0.516-0.63,1.088-1.18,1.719-1.649
				c0.63-0.47,1.329-0.837,2.097-1.101c0.768-0.263,1.599-0.395,2.492-0.395c1.191,0,2.314,0,3.369,0
				c1.054,0,2.108,0.022,3.163,0.068V514.854z"/>
			<path fill="#FFFFFF" d="M489.075,507.325h13.509v5.912h-4.228l8.353,22.722l8.731-22.722h-4.193v-5.912h13.509v5.912h-3.678
				l-15.846,39.977h4.881v5.913h-14.369v-5.913h4.331l3.781-9.796l-11.893-30.181h-2.888V507.325z"/>
			<path fill="#FFFFFF" d="M559.403,537.024h4.778v-40.562h-11.893v8.112h-7.047v-13.749h46.474v13.749h-7.047v-8.112h-13.75v40.562
				h5.362v5.912h-16.877V537.024z"/>
			<path fill="#FFFFFF" d="M622.17,514.854h-6.531v-2.2c-0.756,0-1.529,0.144-2.32,0.43c-0.791,0.287-1.529,0.722-2.217,1.306
				c-0.688,0.585-1.289,1.33-1.805,2.234c-0.516,0.906-0.888,1.977-1.117,3.214v17.188h6.05v5.912h-17.668v-5.912h4.916
				l0.034-23.787h-4.95v-5.912h11.377v4.916c0.413-0.733,0.876-1.415,1.392-2.046c0.516-0.63,1.088-1.18,1.719-1.649
				c0.63-0.47,1.329-0.837,2.097-1.101c0.768-0.263,1.599-0.395,2.492-0.395c1.191,0,2.314,0,3.369,0
				c1.054,0,2.108,0.022,3.163,0.068V514.854z"/>
			<path fill="#FFFFFF" d="M650.494,539.637c-1.353,1.261-2.848,2.292-4.486,3.094s-3.5,1.203-5.586,1.203
				c-1.741,0-3.34-0.275-4.795-0.825s-2.71-1.301-3.764-2.252c-1.055-0.95-1.873-2.056-2.457-3.316
				c-0.585-1.26-0.877-2.601-0.877-4.021c0-1.513,0.223-2.854,0.67-4.022c0.447-1.168,1.043-2.183,1.787-3.042
				c0.745-0.859,1.616-1.581,2.613-2.165c0.996-0.585,2.039-1.054,3.128-1.409c1.088-0.355,2.2-0.607,3.334-0.757
				c1.134-0.148,2.218-0.224,3.249-0.224c1.649,0,3.035,0.052,4.158,0.155c1.123,0.103,2.143,0.246,3.06,0.43l0.034-2.922
				c0-1.26-0.184-2.354-0.55-3.283c-0.366-0.928-0.882-1.695-1.547-2.303c-0.665-0.606-1.461-1.06-2.389-1.357
				c-0.929-0.298-1.966-0.447-3.11-0.447c-1.078,0-2.109,0.075-3.094,0.224c-0.986,0.149-1.908,0.344-2.768,0.584
				c-0.859,0.241-1.65,0.516-2.371,0.825c-0.723,0.31-1.336,0.636-1.84,0.979l-2.097-4.434c0.848-0.551,1.776-1.06,2.784-1.53
				c1.008-0.469,2.068-0.87,3.18-1.203c1.111-0.332,2.246-0.596,3.402-0.79c1.158-0.194,2.298-0.292,3.421-0.292
				c2.063,0,3.919,0.246,5.568,0.738c1.649,0.493,3.048,1.255,4.194,2.286c1.145,1.031,2.027,2.344,2.646,3.936
				c0.618,1.594,0.928,3.501,0.928,5.724l-0.034,17.806h3.952v5.912h-10.346V539.637z M641.832,538.571
				c0.848,0,1.695-0.104,2.543-0.31s1.65-0.486,2.406-0.842c0.757-0.355,1.455-0.768,2.098-1.238c0.641-0.469,1.18-0.956,1.615-1.46
				l0.034-8.044h-7.425c-1.237,0-2.366,0.138-3.386,0.412c-1.021,0.275-1.902,0.677-2.646,1.203
				c-0.745,0.527-1.323,1.181-1.735,1.96c-0.413,0.779-0.619,1.673-0.619,2.681c0,0.94,0.172,1.759,0.516,2.458
				s0.83,1.283,1.461,1.753c0.629,0.47,1.38,0.825,2.251,1.065C639.814,538.451,640.777,538.571,641.832,538.571z"/>
			<path fill="#FFFFFF" d="M693.771,516.813c-0.962-1.719-2.183-2.979-3.661-3.781c-1.478-0.802-3.191-1.203-5.139-1.203
				c-1.49,0-2.887,0.31-4.193,0.929c-1.307,0.618-2.447,1.501-3.42,2.646c-0.975,1.146-1.742,2.538-2.303,4.176
				c-0.563,1.639-0.843,3.467-0.843,5.483c0,1.993,0.28,3.793,0.843,5.396c0.561,1.604,1.334,2.974,2.319,4.107
				c0.985,1.135,2.126,2.006,3.421,2.612c1.294,0.607,2.686,0.911,4.176,0.911c2.2,0,4.113-0.533,5.74-1.599
				s2.922-2.629,3.885-4.691l5.293,2.612c-0.688,1.467-1.535,2.784-2.543,3.953c-1.009,1.168-2.148,2.165-3.42,2.99
				c-1.272,0.825-2.67,1.461-4.194,1.907c-1.524,0.447-3.134,0.671-4.829,0.671c-2.475,0-4.762-0.464-6.857-1.393
				c-2.098-0.928-3.908-2.229-5.432-3.901c-1.523-1.672-2.71-3.666-3.558-5.98c-0.849-2.314-1.271-4.847-1.271-7.597
				s0.446-5.282,1.341-7.597c0.893-2.314,2.119-4.303,3.678-5.964s3.38-2.962,5.465-3.901c2.086-0.939,4.32-1.409,6.703-1.409
				c2.246,0,4.371,0.39,6.377,1.168c2.004,0.779,3.764,1.96,5.275,3.541h3.609v5.912H693.771z"/>
			<path fill="#FFFFFF" d="M706.214,489.451h12.547v5.912h-0.07v26.605h6.188l8.457-8.731h-2.131v-5.912h13.508v5.912h-4.502
				l-10.828,11.172l11.824,12.615h4.297v5.912h-7.527l-14.574-15.915h-4.711v10.003h2.957v5.912H706.42v-5.912h5.843v-41.661h-6.049
				V489.451z"/>
		</g>
	</g>
</g>
<g>
	<defs>
		<path id="SVGID_25_" d="M1257,756.882c0,6.692-3.593,14.118-10.253,14.118H15.568C8.907,771,2,763.574,2,756.882V11.618
			C2,4.925,8.907,1,15.568,1h1231.179c6.66,0,10.253,3.925,10.253,10.618V756.882z"/>
	</defs>
	<clipPath id="SVGID_26_">
		<use xlink:href="#SVGID_25_"  overflow="visible"/>
	</clipPath>
	<g clip-path="url(#SVGID_26_)">
		<g enable-background="new    ">
			<path fill="#FFFFFF" d="M76.058,612.364h37.33v14.746h-7.046v-8.8H87.745v16.74h17.909v5.774H87.745v17.737h5.225v5.912H76.058
				v-5.912h4.95v-40.252h-4.95V612.364z"/>
			<path fill="#FFFFFF" d="M134.733,661.175c-1.353,1.261-2.848,2.292-4.486,3.094c-1.639,0.802-3.501,1.203-5.586,1.203
				c-1.742,0-3.34-0.275-4.795-0.825c-1.456-0.55-2.71-1.301-3.764-2.252c-1.054-0.95-1.873-2.056-2.458-3.316
				c-0.584-1.26-0.876-2.601-0.876-4.021c0-1.513,0.223-2.854,0.67-4.022c0.447-1.168,1.042-2.183,1.787-3.042
				s1.616-1.581,2.612-2.165c0.997-0.585,2.04-1.054,3.128-1.409c1.088-0.355,2.2-0.607,3.334-0.757
				c1.134-0.148,2.217-0.224,3.249-0.224c1.65,0,3.036,0.052,4.159,0.155c1.123,0.103,2.143,0.246,3.059,0.43l0.035-2.922
				c0-1.26-0.184-2.354-0.55-3.283c-0.367-0.928-0.882-1.695-1.547-2.303c-0.665-0.606-1.461-1.06-2.389-1.357
				c-0.928-0.298-1.965-0.447-3.111-0.447c-1.078,0-2.109,0.075-3.094,0.224c-0.985,0.149-1.908,0.344-2.767,0.584
				c-0.859,0.241-1.65,0.516-2.372,0.825c-0.722,0.31-1.335,0.636-1.839,0.979l-2.097-4.434c0.848-0.551,1.776-1.06,2.784-1.53
				c1.008-0.469,2.068-0.87,3.18-1.203c1.111-0.332,2.246-0.596,3.403-0.79s2.297-0.292,3.42-0.292c2.063,0,3.918,0.246,5.568,0.738
				c1.65,0.493,3.047,1.255,4.194,2.286c1.146,1.031,2.028,2.344,2.646,3.936c0.619,1.594,0.928,3.501,0.928,5.724l-0.034,17.806
				h3.953v5.912h-10.346V661.175z M126.071,660.109c0.847,0,1.695-0.104,2.543-0.31c0.848-0.206,1.65-0.486,2.406-0.842
				s1.455-0.768,2.097-1.238c0.641-0.469,1.18-0.956,1.616-1.46l0.034-8.044h-7.425c-1.237,0-2.366,0.138-3.386,0.412
				c-1.02,0.275-1.902,0.677-2.646,1.203c-0.745,0.527-1.324,1.181-1.736,1.96c-0.413,0.779-0.619,1.673-0.619,2.681
				c0,0.94,0.172,1.759,0.516,2.458s0.831,1.283,1.461,1.753c0.63,0.47,1.38,0.825,2.251,1.065
				C124.054,659.989,125.017,660.109,126.071,660.109z"/>
			<path fill="#FFFFFF" d="M152.023,628.863h11.618v29.699h5.362v5.912h-16.912v-5.912h5.087v-23.787h-5.156V628.863z
				 M155.976,616.248c0-0.596,0.121-1.162,0.361-1.701c0.241-0.538,0.562-1.008,0.963-1.409c0.4-0.401,0.876-0.722,1.426-0.963
				c0.55-0.24,1.134-0.36,1.753-0.36c0.596,0,1.163,0.12,1.702,0.36c0.538,0.241,1.008,0.562,1.409,0.963s0.722,0.871,0.962,1.409
				c0.241,0.539,0.361,1.105,0.361,1.701c0,0.619-0.121,1.203-0.361,1.753c-0.24,0.551-0.562,1.037-0.962,1.461
				c-0.401,0.425-0.871,0.757-1.409,0.997c-0.539,0.24-1.106,0.361-1.702,0.361c-0.619,0-1.203-0.121-1.753-0.361
				s-1.026-0.572-1.426-0.997c-0.401-0.424-0.722-0.91-0.963-1.461C156.097,617.451,155.976,616.867,155.976,616.248z"/>
			<path fill="#FFFFFF" d="M174.607,610.989h11.549v47.573h5.362v5.912h-16.912v-5.912h5.156v-41.661h-5.156V610.989z"/>
			<path fill="#FFFFFF" d="M225.308,658.563h4.778v-40.562h-11.893v8.112h-7.047v-13.749h46.474v13.749h-7.047v-8.112h-13.75v40.562
				h5.362v5.912h-16.877V658.563z"/>
			<path fill="#FFFFFF" d="M288.075,636.392h-6.531v-2.2c-0.756,0-1.529,0.144-2.32,0.43c-0.791,0.287-1.529,0.722-2.217,1.306
				c-0.688,0.585-1.289,1.33-1.805,2.234c-0.516,0.906-0.888,1.977-1.117,3.214v17.188h6.05v5.912h-17.668v-5.912h4.916
				l0.034-23.787h-4.95v-5.912h11.377v4.916c0.413-0.733,0.876-1.415,1.392-2.046c0.516-0.63,1.088-1.18,1.719-1.649
				c0.63-0.47,1.329-0.837,2.097-1.101c0.768-0.263,1.599-0.395,2.492-0.395c1.191,0,2.314,0,3.369,0
				c1.054,0,2.108,0.022,3.163,0.068V636.392z"/>
			<path fill="#FFFFFF" d="M316.399,661.175c-1.353,1.261-2.848,2.292-4.486,3.094c-1.639,0.802-3.501,1.203-5.586,1.203
				c-1.742,0-3.34-0.275-4.795-0.825c-1.456-0.55-2.71-1.301-3.764-2.252c-1.054-0.95-1.873-2.056-2.458-3.316
				c-0.584-1.26-0.876-2.601-0.876-4.021c0-1.513,0.223-2.854,0.67-4.022c0.447-1.168,1.042-2.183,1.787-3.042
				s1.616-1.581,2.612-2.165c0.997-0.585,2.04-1.054,3.128-1.409c1.088-0.355,2.2-0.607,3.334-0.757
				c1.134-0.148,2.217-0.224,3.249-0.224c1.65,0,3.036,0.052,4.159,0.155c1.123,0.103,2.143,0.246,3.059,0.43l0.035-2.922
				c0-1.26-0.184-2.354-0.55-3.283c-0.367-0.928-0.882-1.695-1.547-2.303c-0.665-0.606-1.461-1.06-2.389-1.357
				c-0.928-0.298-1.965-0.447-3.111-0.447c-1.078,0-2.109,0.075-3.094,0.224c-0.985,0.149-1.908,0.344-2.767,0.584
				c-0.859,0.241-1.65,0.516-2.372,0.825c-0.722,0.31-1.335,0.636-1.839,0.979l-2.097-4.434c0.848-0.551,1.776-1.06,2.784-1.53
				c1.008-0.469,2.068-0.87,3.18-1.203c1.111-0.332,2.246-0.596,3.403-0.79s2.297-0.292,3.42-0.292c2.063,0,3.918,0.246,5.568,0.738
				c1.65,0.493,3.047,1.255,4.194,2.286c1.146,1.031,2.028,2.344,2.646,3.936c0.619,1.594,0.928,3.501,0.928,5.724l-0.034,17.806
				h3.953v5.912h-10.346V661.175z M307.737,660.109c0.847,0,1.695-0.104,2.543-0.31c0.848-0.206,1.65-0.486,2.406-0.842
				s1.455-0.768,2.097-1.238c0.641-0.469,1.18-0.956,1.616-1.46l0.034-8.044h-7.425c-1.237,0-2.366,0.138-3.386,0.412
				c-1.02,0.275-1.902,0.677-2.646,1.203c-0.745,0.527-1.324,1.181-1.736,1.96c-0.413,0.779-0.619,1.673-0.619,2.681
				c0,0.94,0.172,1.759,0.516,2.458s0.831,1.283,1.461,1.753c0.63,0.47,1.38,0.825,2.251,1.065
				C305.72,659.989,306.682,660.109,307.737,660.109z"/>
			<path fill="#FFFFFF" d="M359.675,638.351c-0.962-1.719-2.183-2.979-3.661-3.781c-1.478-0.802-3.191-1.203-5.139-1.203
				c-1.49,0-2.887,0.31-4.193,0.929c-1.306,0.618-2.447,1.501-3.42,2.646c-0.974,1.146-1.742,2.538-2.303,4.176
				c-0.562,1.639-0.842,3.467-0.842,5.483c0,1.993,0.28,3.793,0.842,5.396c0.561,1.604,1.334,2.974,2.32,4.107
				c0.985,1.135,2.125,2.006,3.42,2.612c1.294,0.607,2.687,0.911,4.176,0.911c2.2,0,4.113-0.533,5.741-1.599
				c1.626-1.065,2.921-2.629,3.884-4.691l5.293,2.612c-0.688,1.467-1.536,2.784-2.544,3.953c-1.008,1.168-2.148,2.165-3.42,2.99
				c-1.272,0.825-2.67,1.461-4.194,1.907c-1.524,0.447-3.134,0.671-4.83,0.671c-2.475,0-4.761-0.464-6.857-1.393
				c-2.097-0.928-3.907-2.229-5.431-3.901c-1.524-1.672-2.71-3.666-3.558-5.98c-0.848-2.314-1.271-4.847-1.271-7.597
				s0.447-5.282,1.34-7.597s2.119-4.303,3.678-5.964c1.558-1.661,3.38-2.962,5.465-3.901c2.085-0.939,4.319-1.409,6.703-1.409
				c2.246,0,4.371,0.39,6.376,1.168c2.005,0.779,3.764,1.96,5.276,3.541h3.609v5.912H359.675z"/>
			<path fill="#FFFFFF" d="M372.119,610.989h12.546v5.912h-0.069v26.605h6.187l8.456-8.731h-2.131v-5.912h13.509v5.912h-4.503
				l-10.828,11.172l11.825,12.615h4.297v5.912h-7.528l-14.575-15.915h-4.709v10.003h2.956v5.912h-15.228v-5.912h5.844v-41.661h-6.05
				V610.989z"/>
		</g>
	</g>
</g>
</svg>
